<?xml version="1.0" encoding="utf-8"?>
<!-- Generator: Adobe Illustrator 21.0.2, SVG Export Plug-In . SVG Version: 6.00 Build 0)  -->
<svg version="1.1" xmlns="http://www.w3.org/2000/svg" xmlns:xlink="http://www.w3.org/1999/xlink" x="0px" y="0px"
	 viewBox="0 0 60 60" style="enable-background:new 0 0 60 60;" xml:space="preserve">
<style type="text/css">
	.st0{fill:#FFFFFF;}
</style>
<g id="Podlojki">
</g>
<g id="Layer_2">
	<g>
		<g>
			<path class="st0" d="M36.8,17.4H6c-0.6,0-1-0.4-1-1s0.4-1,1-1h30.3L46.5,3.6c0.4-0.4,1-0.5,1.4-0.1c0.4,0.4,0.5,1,0.1,1.4
				L37.5,17.1C37.3,17.3,37,17.4,36.8,17.4z"/>
		</g>
		<g>
			<path class="st0" d="M41.4,55.5c-0.6,0-1-0.4-1-1V20.4c0-0.2,0.1-0.5,0.2-0.7L57.3,0.5c0.4-0.4,1-0.5,1.4-0.1
				c0.4,0.4,0.5,1,0.1,1.4L42.4,20.8v33.7C42.4,55.1,42,55.5,41.4,55.5z"/>
		</g>
		<g>
			<path class="st0" d="M18.3,57.6c-0.6,0-1-0.4-1-1V47c0-0.2,0.1-0.5,0.2-0.7l16.9-19.5c0.4-0.4,1-0.5,1.4-0.1
				c0.4,0.4,0.5,1,0.1,1.4L19.3,47.4v9.2C19.3,57.1,18.9,57.6,18.3,57.6z"/>
		</g>
		<g>
			<path class="st0" d="M13.7,44H3.2c-0.6,0-1-0.4-1-1s0.4-1,1-1h10.5c0.6,0,1,0.4,1,1S14.2,44,13.7,44z"/>
		</g>
	</g>
</g>
</svg>
