<?xml version="1.0" encoding="utf-8"?>
<!-- Generator: Adobe Illustrator 21.0.2, SVG Export Plug-In . SVG Version: 6.00 Build 0)  -->
<svg version="1.1" xmlns="http://www.w3.org/2000/svg" xmlns:xlink="http://www.w3.org/1999/xlink" x="0px" y="0px"
	 viewBox="0 0 60 60" style="enable-background:new 0 0 60 60;" xml:space="preserve">
<style type="text/css">
	.st0{fill:#FFFFFF;}
</style>
<g id="Podlojki">
</g>
<g id="Layer_2">
	<g>
		<g>
			<path class="st0" d="M29.9,28.1c-0.5,0-0.9,0-1.4-0.1c-5.2-0.6-8.8-4.4-9.3-9.6C18.6,12,22.9,8.1,27.4,7
				c4.5-1.1,10.1,0.5,12.4,6.4c0.2,0.5,0,1.1-0.6,1.3c-0.5,0.2-1.1,0-1.3-0.6C36,9.3,31.5,8,27.8,8.9c-3.6,0.9-7.1,4.1-6.6,9.3
				c0.5,5.1,4.4,7.4,7.5,7.8c3.5,0.4,7.7-1.1,9.3-5.5c0.2-0.5,0.8-0.8,1.3-0.6c0.5,0.2,0.8,0.8,0.6,1.3C38.2,26,33.9,28.1,29.9,28.1
				z"/>
		</g>
		<g>
			<path class="st0" d="M29.9,59.8c-0.4,0-0.7-0.2-0.9-0.5c-5.6-11-11.8-23.9-15.6-38c-0.1-0.5,0.2-1.1,0.7-1.2
				c0.5-0.1,1.1,0.2,1.2,0.7c3.5,13.2,9.3,25.4,14.5,35.9C35.3,45.8,41.1,33.2,44.6,20c0.9-3.4,0.3-7.1-1.6-10.3
				c-2.2-3.6-5.9-6.3-10-7.2c-4-0.9-8.3-0.1-11.9,2.3c-3.3,2.2-5.5,5.4-6.2,9c-0.1,0.5-0.6,0.9-1.2,0.8c-0.5-0.1-0.9-0.6-0.8-1.2
				c0.8-4.1,3.3-7.8,7-10.3c4-2.7,8.9-3.6,13.4-2.6c4.7,1,8.8,4,11.3,8.1c2.2,3.7,2.9,7.9,1.8,11.8C42.8,34.6,36.5,48,30.8,59.3
				C30.6,59.6,30.2,59.8,29.9,59.8z"/>
		</g>
	</g>
</g>
</svg>
