<?xml version="1.0" encoding="utf-8"?>
<!-- Generator: Adobe Illustrator 19.0.0, SVG Export Plug-In . SVG Version: 6.00 Build 0)  -->
<svg version="1.1" xmlns="http://www.w3.org/2000/svg" xmlns:xlink="http://www.w3.org/1999/xlink" x="0px" y="0px"
	 viewBox="0 0 60 60" style="enable-background:new 0 0 60 60;" xml:space="preserve">
<style type="text/css">
	.st0{fill:#FFFFFF;}
</style>
<g id="Podlojki">
</g>
<g id="Layer_2">
	<path class="st0" d="M30,54.4c-0.3,0-0.5-0.1-0.7-0.3c-0.4-0.4-0.3-1,0.1-1.4l24-21.6c3.4-3,5-7.6,4.3-12.1S54,10.7,49.8,8.8
		c-4.2-1.9-8.9-1.5-12.7,1S31,16.5,31,21c0,0.6-0.4,1-1,1s-1-0.4-1-1c0-4.6-2.3-8.8-6.1-11.2c-3.8-2.5-8.6-2.9-12.7-1
		C6,10.7,3.1,14.4,2.4,18.9S3.3,28,6.6,31l19.1,17.2l23.8-21.4c0.4-0.4,1-0.3,1.4,0.1c0.4,0.4,0.3,1-0.1,1.4l-24.5,22
		c-0.4,0.3-1,0.3-1.3,0L5.3,32.5C1.4,29-0.4,23.8,0.4,18.6C1.2,13.5,4.6,9.1,9.3,7C14.1,4.8,19.6,5.3,24,8.1c2.8,1.8,4.9,4.4,6,7.4
		c1.1-3,3.2-5.6,6-7.4c4.4-2.9,9.9-3.3,14.7-1.2c4.8,2.1,8.1,6.5,8.9,11.7c0.8,5.2-1,10.3-4.9,13.9l-24,21.6
		C30.5,54.3,30.2,54.4,30,54.4z"/>
</g>
</svg>
