<?xml version="1.0" encoding="utf-8"?>
<!-- Generator: Adobe Illustrator 21.0.2, SVG Export Plug-In . SVG Version: 6.00 Build 0)  -->
<svg version="1.1" id="Слой_1" xmlns="http://www.w3.org/2000/svg" xmlns:xlink="http://www.w3.org/1999/xlink" x="0px" y="0px"
	 viewBox="0 0 60 60" style="enable-background:new 0 0 60 60;" xml:space="preserve">
<style type="text/css">
	.st0{fill:#FFFFFF;}
</style>
<g id="Podlojki">
</g>
<g id="Layer_2">
	<g>
		<g>
			<path class="st0" d="M5,44.7c-0.5,0-0.9-0.3-0.9-0.9V9.1c0-0.5,0.3-0.9,0.9-0.9s0.9,0.3,0.9,0.9v34.7C5.9,44.3,5.5,44.7,5,44.7z"
				/>
		</g>
		<g>
			<path class="st0" d="M21.1,28.9H5c-0.5,0-0.9-0.3-0.9-0.9s0.3-0.9,0.9-0.9h16.2c0.5,0,0.9,0.3,0.9,0.9S21.7,28.9,21.1,28.9z"/>
		</g>
		<g>
			<path class="st0" d="M55,44.7c-0.5,0-0.9-0.3-0.9-0.9V21.3c0-0.5,0.3-0.9,0.9-0.9c0.5,0,0.9,0.3,0.9,0.9v22.6
				C55.9,44.3,55.5,44.7,55,44.7z"/>
		</g>
		<g>
			<path class="st0" d="M55,34.1H10.5c-0.5,0-0.9-0.3-0.9-0.9s0.3-0.9,0.9-0.9H55c0.5,0,0.9,0.3,0.9,0.9S55.5,34.1,55,34.1z"/>
		</g>
	</g>
</g>
</svg>
