<?xml version="1.0" encoding="utf-8"?>
<!-- Generator: Adobe Illustrator 21.0.2, SVG Export Plug-In . SVG Version: 6.00 Build 0)  -->
<svg version="1.1" id="Layer_2" xmlns="http://www.w3.org/2000/svg" xmlns:xlink="http://www.w3.org/1999/xlink" x="0px" y="0px"
	 viewBox="0 0 60 60" style="enable-background:new 0 0 60 60;" xml:space="preserve">
<style type="text/css">
	.st0{fill:#FFFFFF;}
	.st1{fill:none;stroke:#FFFFFF;stroke-width:2;stroke-linecap:round;stroke-linejoin:round;}
</style>
<g>
	<path class="st0" d="M25.7,57.2c-0.1,0-0.1,0-0.2,0C15,55.6,6.1,48.4,2.4,38.4c-0.2-0.5,0.1-1.1,0.6-1.3s1.1,0.1,1.3,0.6
		C7.8,47,16,53.7,25.8,55.2c0.5,0.1,0.9,0.6,0.8,1.1C26.6,56.8,26.2,57.2,25.7,57.2z"/>
</g>
<g>
	<path class="st1" d="M25.7,56.2"/>
</g>
<g>
	<path class="st0" d="M30,57.5c-0.6,0-1-0.4-1-1s0.4-1,1-1c1.3,0,2.6-0.1,3.9-0.3c0.5-0.1,1.1,0.3,1.1,0.8c0.1,0.5-0.3,1.1-0.8,1.1
		C32.8,57.4,31.4,57.5,30,57.5z"/>
</g>
<g>
	<path class="st0" d="M34.1,57.2c-0.5,0-0.9-0.4-1-0.9s0.3-1.1,0.8-1.1c4.5-0.7,8.9-2.5,12.6-5.2c3.1-2.3,5.7-5.4,7.6-8.8
		c0.6-1.1,1.2-2.3,1.6-3.5c0.2-0.5,0.8-0.8,1.3-0.6s0.8,0.8,0.6,1.3c-0.5,1.3-1.1,2.5-1.7,3.7c-2,3.6-4.8,6.9-8.2,9.4
		c-3.9,3-8.6,4.9-13.5,5.6C34.2,57.2,34.1,57.2,34.1,57.2z"/>
</g>
<g>
	<path class="st0" d="M25.7,52.4c-0.1,0-0.1,0-0.2,0C17.7,51,11,45.8,7.5,38.6c-0.2-0.5,0-1.1,0.5-1.3s1.1,0,1.3,0.5
		c3.1,6.6,9.3,11.4,16.5,12.7c0.5,0.1,0.9,0.6,0.8,1.2C26.6,52.1,26.1,52.4,25.7,52.4z"/>
</g>
<g>
	<path class="st0" d="M30,22.3c-0.6,0-1-0.4-1-1v-9.6c0-0.6,0.4-1,1-1s1,0.4,1,1v9.6C31,21.9,30.5,22.3,30,22.3z"/>
</g>
<g>
	<path class="st0" d="M30,57.5c-0.6,0-1-0.4-1-1V25.8c0-0.6,0.4-1,1-1s1,0.4,1,1v30.8C31,57.1,30.5,57.5,30,57.5z"/>
</g>
<g>
	<path class="st0" d="M33.7,13.7c-0.3,0-0.6-0.1-0.8-0.4c-0.3-0.4-0.3-1.1,0.1-1.4c1.1-0.9,1.8-2.3,1.8-3.8c0-2.7-2.2-4.8-4.8-4.8
		s-4.8,2.2-4.8,4.8c0,1.4,0.6,2.7,1.7,3.6c0.4,0.4,0.5,1,0.1,1.4s-1,0.5-1.4,0.1c-1.5-1.3-2.3-3.2-2.3-5.2c0-3.8,3.1-6.8,6.8-6.8
		s6.8,3.1,6.8,6.8c0,2.1-0.9,4-2.5,5.3C34.1,13.6,33.9,13.7,33.7,13.7z"/>
</g>
<g>
	<path class="st0" d="M25.7,22.3h-7.2c-0.6,0-1-0.4-1-1s0.4-1,1-1h7.2c0.6,0,1,0.4,1,1S26.2,22.3,25.7,22.3z"/>
</g>
<g>
	<path class="st0" d="M40.8,22.3H30c-0.6,0-1-0.4-1-1s0.4-1,1-1h10.8c0.6,0,1,0.4,1,1S41.4,22.3,40.8,22.3z"/>
</g>
</svg>
