<?xml version="1.0" encoding="utf-8"?>
<!-- Generator: Adobe Illustrator 21.0.2, SVG Export Plug-In . SVG Version: 6.00 Build 0)  -->
<svg version="1.1" xmlns="http://www.w3.org/2000/svg" xmlns:xlink="http://www.w3.org/1999/xlink" x="0px" y="0px"
	 viewBox="0 0 60 60" style="enable-background:new 0 0 60 60;" xml:space="preserve">
<style type="text/css">
	.st0{fill:#FFFFFF;}
</style>
<g id="Podlojki">
</g>
<g id="Layer_2">
	<g>
		<path class="st0" d="M51.6,47.4H1.2c-0.6,0-1-0.4-1-1s0.4-1,1-1h50.4c0.6,0,1,0.4,1,1S52.1,47.4,51.6,47.4z"/>
	</g>
	<g>
		<path class="st0" d="M58.8,47.4c-0.6,0-1-0.4-1-1v-8.8h-4.6c-0.6,0-1-0.4-1-1v-8.8h-4.6c-0.6,0-1-0.4-1-1V6.6h-9.2v27.1
			c0,0.6-0.4,1-1,1H25.1c-0.6,0-1-0.4-1-1V23.5h-8.8c-0.6,0-1-0.4-1-1V12.2h-12v27.2c0,0.6-0.4,1-1,1s-1-0.4-1-1V11.2
			c0-0.6,0.4-1,1-1h14c0.6,0,1,0.4,1,1v10.2h8.8c0.6,0,1,0.4,1,1v10.2h9.2V5.6c0-0.6,0.4-1,1-1h11.2c0.6,0,1,0.4,1,1v20.1h4.6
			c0.6,0,1,0.4,1,1v8.8h4.6c0.6,0,1,0.4,1,1v9.8C59.8,46.9,59.4,47.4,58.8,47.4z"/>
	</g>
</g>
</svg>
