<?xml version="1.0" encoding="utf-8"?>
<!-- Generator: Adobe Illustrator 21.0.2, SVG Export Plug-In . SVG Version: 6.00 Build 0)  -->
<svg version="1.1" xmlns="http://www.w3.org/2000/svg" xmlns:xlink="http://www.w3.org/1999/xlink" x="0px" y="0px"
	 viewBox="0 0 60 60" style="enable-background:new 0 0 60 60;" xml:space="preserve">
<style type="text/css">
	.st0{fill:#FFFFFF;}
</style>
<g id="Podlojki">
</g>
<g id="Layer_2">
	<g>
		<path class="st0" d="M56.5,55H2.9c-0.6,0-1-0.4-1-1s0.4-1,1-1h53.6c0.6,0,1,0.4,1,1S57.1,55,56.5,55z"/>
	</g>
	<g>
		<path class="st0" d="M58.8,31C58.8,31,58.8,31,58.8,31C45,30.3,33.6,21,30,8.1C26.4,21,15,30.3,1.2,31c-0.6,0-1-0.4-1-1s0.4-1,1-1
			C15.7,28.3,27.4,17.2,29,2.7c0.1-0.5,0.5-0.9,1-0.9s0.9,0.4,1,0.9C32.6,17.2,44.3,28.3,58.8,29c0.6,0,1,0.5,1,1
			C59.8,30.6,59.3,31,58.8,31z"/>
	</g>
	<g>
		<path class="st0" d="M56.5,38.8H2.9c-0.6,0-1-0.4-1-1s0.4-1,1-1h53.6c0.6,0,1,0.4,1,1S57.1,38.8,56.5,38.8z"/>
	</g>
	<g>
		<path class="st0" d="M56.5,55c-0.6,0-1-0.4-1-1V37.8c0-0.6,0.4-1,1-1s1,0.4,1,1V54C57.5,54.6,57.1,55,56.5,55z"/>
	</g>
</g>
</svg>
