<?xml version="1.0" encoding="utf-8"?>
<!-- Generator: Adobe Illustrator 19.0.0, SVG Export Plug-In . SVG Version: 6.00 Build 0)  -->
<svg version="1.1" xmlns="http://www.w3.org/2000/svg" xmlns:xlink="http://www.w3.org/1999/xlink" x="0px" y="0px"
	 viewBox="0 0 60 60" style="enable-background:new 0 0 60 60;" xml:space="preserve">
<style type="text/css">
	.st0{fill:#FFFFFF;}
</style>
<g id="Podlojki">
</g>
<g id="Layer_2">
	<path class="st0" d="M30,59.8c-0.2,0-0.4-0.1-0.6-0.2c-9-6.5-18.2-11.9-28.3-16.4c-0.4-0.2-0.6-0.5-0.6-0.9V7.8
		c0-0.3,0.2-0.7,0.5-0.8c0.3-0.2,0.6-0.2,1-0.1c10,4.5,19.2,9.8,28.1,16.2c7.1-5.1,14.3-9.4,22.1-13.3c0.5-0.2,1.1,0,1.3,0.4
		c0.2,0.5,0,1.1-0.4,1.3c-7.9,3.9-15.2,8.4-22.4,13.6c-0.4,0.3-0.8,0.3-1.2,0C20.9,18.9,12,13.7,2.5,9.3v32.3
		c9.8,4.4,18.8,9.7,27.5,15.9c8.7-6.3,17.7-11.5,27.5-15.9V2.7c-9.5,4.2-18.4,9.1-27,15c-0.5,0.3-1.1,0.2-1.4-0.3
		c-0.3-0.5-0.2-1.1,0.3-1.4C38.6,9.8,48,4.7,58.1,0.3c0.3-0.1,0.7-0.1,0.9,0.1c0.3,0.2,0.4,0.5,0.4,0.8v41.1c0,0.4-0.2,0.8-0.6,0.9
		c-10.1,4.5-19.4,9.9-28.3,16.4C30.4,59.7,30.2,59.8,30,59.8z"/>
</g>
</svg>
