<?xml version="1.0" encoding="utf-8"?>
<!-- Generator: Adobe Illustrator 21.0.2, SVG Export Plug-In . SVG Version: 6.00 Build 0)  -->
<svg version="1.1" id="Layer_2" xmlns="http://www.w3.org/2000/svg" xmlns:xlink="http://www.w3.org/1999/xlink" x="0px" y="0px"
	 viewBox="0 0 60 60" style="enable-background:new 0 0 60 60;" xml:space="preserve">
<style type="text/css">
	.st0{fill:#FFFFFF;}
</style>
<g>
	<path class="st0" d="M53.3,54.4H6.8c-0.6,0-1-0.4-1-1V27.4c0-0.3,0.1-0.6,0.4-0.8L28.9,7.4c0.4-0.4,1.1-0.3,1.4,0.1
		C30.7,8,30.6,8.6,30.2,9L7.8,27.9v24.6h44.6V25.3L29.5,2.6L2.7,25.1c-0.4,0.4-1.1,0.3-1.4-0.1c-0.4-0.4-0.3-1.1,0.1-1.4L28.9,0.4
		c0.4-0.3,1-0.3,1.4,0.1L54,24.2c0.2,0.2,0.3,0.4,0.3,0.7v28.5C54.3,54,53.9,54.4,53.3,54.4z"/>
</g>
</svg>
