<?xml version="1.0" encoding="utf-8"?>
<!-- Generator: Adobe Illustrator 21.0.2, SVG Export Plug-In . SVG Version: 6.00 Build 0)  -->
<svg version="1.1" xmlns="http://www.w3.org/2000/svg" xmlns:xlink="http://www.w3.org/1999/xlink" x="0px" y="0px"
	 viewBox="0 0 60 60" style="enable-background:new 0 0 60 60;" xml:space="preserve">
<style type="text/css">
	.st0{display:none;fill:none;stroke:#000000;stroke-width:2;stroke-linecap:round;stroke-linejoin:round;}
	.st1{fill:#FFFFFF;}
</style>
<g id="Podlojki">
</g>
<g id="Layer_2">
	<path class="st0" d="M45.1,8.3c15.1,10.5,15.1,32.8,0,43.3"/>
	<path class="st0" d="M14.9,8.3c-15.1,10.5-15.1,32.8,0,43.3"/>
	<g>
		<path class="st1" d="M30.4,23.1c-0.6,0-1-0.4-1-1V1.2c0-0.6,0.4-1,1-1s1,0.4,1,1v20.9C31.4,22.6,30.9,23.1,30.4,23.1z"/>
	</g>
	<g>
		<path class="st1" d="M35.9,59.8c-0.6,0-1-0.4-1-1V1.2c0-0.6,0.4-1,1-1s1,0.4,1,1v57.6C36.9,59.4,36.4,59.8,35.9,59.8z"/>
	</g>
	<g>
		<path class="st1" d="M24.9,59.8c-0.6,0-1-0.4-1-1V4.4l-1.7-1.7l-1.7,1.7V30c0,0.6-0.4,1-1,1s-1-0.4-1-1V3.9c0-0.3,0.1-0.5,0.3-0.7
			l2.7-2.7c0.4-0.4,1-0.4,1.4,0l2.7,2.7c0.2,0.2,0.3,0.4,0.3,0.7v54.9C25.9,59.4,25.4,59.8,24.9,59.8z"/>
	</g>
	<g>
		<path class="st1" d="M35.9,29.6c-0.3,0-0.5-0.1-0.7-0.3c-0.4-0.4-0.4-1,0-1.4l5.2-5.2V1.2c0-0.6,0.4-1,1-1s1,0.4,1,1v21.9
			c0,0.3-0.1,0.5-0.3,0.7l-5.5,5.5C36.4,29.5,36.1,29.6,35.9,29.6z"/>
	</g>
	<g>
		<path class="st1" d="M15,50c-0.2,0-0.4-0.1-0.6-0.2c-6.3-4.6-10-12-10-19.8s3.7-15.2,10-19.8c0.4-0.3,1.1-0.2,1.4,0.2
			c0.3,0.4,0.2,1.1-0.2,1.4c-5.7,4.2-9.2,11-9.2,18.2s3.4,13.9,9.2,18.2c0.4,0.3,0.5,1,0.2,1.4C15.6,49.8,15.3,50,15,50z"/>
	</g>
	<g>
		<path class="st1" d="M45.6,49.8c-0.3,0-0.6-0.1-0.8-0.4C44.5,49,44.6,48.3,45,48c5.7-4.3,8.9-10.9,8.9-18S50.7,16.3,45,12
			c-0.4-0.3-0.5-1-0.2-1.4c0.3-0.4,1-0.5,1.4-0.2c6.2,4.7,9.7,11.8,9.7,19.6s-3.5,14.9-9.7,19.6C46,49.7,45.8,49.8,45.6,49.8z"/>
	</g>
</g>
</svg>
