<?xml version="1.0" encoding="utf-8"?>
<!-- Generator: Adobe Illustrator 21.0.2, SVG Export Plug-In . SVG Version: 6.00 Build 0)  -->
<svg version="1.1" id="Слой_1" xmlns="http://www.w3.org/2000/svg" xmlns:xlink="http://www.w3.org/1999/xlink" x="0px" y="0px"
	 viewBox="0 0 60 60" style="enable-background:new 0 0 60 60;" xml:space="preserve">
<style type="text/css">
	.st0{fill:#FFFFFF;}
</style>
<g id="Podlojki">
</g>
<g id="Layer_2">
	<g>
		<path class="st0" d="M23,18.2c-0.1,0-0.2,0-0.3,0c-0.5-0.2-0.8-0.7-0.6-1.3l4.5-14c0.5-1.5,1.8-2.5,3.4-2.5l0,0
			c1.6,0,2.9,1,3.4,2.5l4.5,14c0.2,0.5-0.1,1.1-0.6,1.3c-0.5,0.2-1.1-0.1-1.3-0.6l-4.5-14c-0.3-0.8-0.9-1.1-1.5-1.1l0,0
			c-0.5,0-1.2,0.3-1.5,1.1l-4.5,14C23.8,17.9,23.4,18.2,23,18.2z"/>
		<path class="st0" d="M45.8,34.7c-0.3,0-0.6-0.1-0.8-0.4c-0.3-0.4-0.2-1.1,0.2-1.4l12-8.6c0.7-0.5,0.7-1.2,0.6-1.7
			s-0.6-1.1-1.5-1.1l-14.7,0.1l0,0c-0.5,0-1-0.4-1-1s0.4-1,1-1l14.7-0.1c1.6,0,2.9,1,3.4,2.4c0.5,1.5,0,3.1-1.3,4l-12,8.6
			C46.2,34.6,46,34.7,45.8,34.7z"/>
		<path class="st0" d="M46.2,57.4c-0.7,0-1.5-0.2-2.1-0.7L32.2,48c-0.4-0.3-0.5-1-0.2-1.4c0.3-0.4,1-0.5,1.4-0.2l11.9,8.7
			c0.7,0.5,1.4,0.3,1.8,0c0.4-0.3,0.8-0.9,0.6-1.7l-4.6-14c-0.2-0.5,0.1-1.1,0.6-1.3s1.1,0.1,1.3,0.6l4.6,14c0.5,1.5,0,3.1-1.3,4
			C47.7,57.2,46.9,57.4,46.2,57.4z"/>
		<path class="st0" d="M14.1,34.7c-0.2,0-0.4-0.1-0.6-0.2L1.6,25.9c-1.3-0.9-1.8-2.5-1.3-4s1.8-2.4,3.4-2.4l0,0l14.7,0.1
			c0.6,0,1,0.5,1,1c0,0.6-0.5,1-1,1L3.7,21.5l0,0c-0.8,0-1.3,0.6-1.5,1.1s-0.1,1.2,0.6,1.7l12,8.6c0.4,0.3,0.6,0.9,0.2,1.4
			C14.8,34.5,14.4,34.7,14.1,34.7z"/>
		<path class="st0" d="M13.8,57.4c-0.7,0-1.4-0.2-2.1-0.7c-1.3-0.9-1.8-2.5-1.3-4l4.6-14c0.2-0.5,0.7-0.8,1.3-0.6
			c0.5,0.2,0.8,0.7,0.6,1.3l-4.6,14c-0.3,0.8,0.1,1.4,0.6,1.7c0.4,0.3,1.2,0.5,1.8,0l11.9-8.7c0.4-0.3,1.1-0.2,1.4,0.2
			s0.2,1.1-0.2,1.4l-11.9,8.7C15.1,57.2,14.4,57.4,13.8,57.4z"/>
	</g>
</g>
</svg>
