<?xml version="1.0" encoding="utf-8"?>
<!-- Generator: Adobe Illustrator 19.0.0, SVG Export Plug-In . SVG Version: 6.00 Build 0)  -->
<svg version="1.1" xmlns="http://www.w3.org/2000/svg" xmlns:xlink="http://www.w3.org/1999/xlink" x="0px" y="0px"
	 viewBox="0 0 60 60" style="enable-background:new 0 0 60 60;" xml:space="preserve">
<style type="text/css">
	.st0{fill:#FFFFFF;}
</style>
<g id="Podlojki">
</g>
<g id="Layer_2">
	<g>
		<path class="st0" d="M30,59.8c-10,0-19.5-5.1-25-13.6c-0.3-0.5-0.2-1.1,0.3-1.4c0.5-0.3,1.1-0.2,1.4,0.3
			c5.4,8.3,14.9,13.1,24.7,12.6c0.5,0,1,0.4,1.1,0.9s-0.4,1-0.9,1.1C31,59.8,30.5,59.8,30,59.8z"/>
		<path class="st0" d="M3.1,41.3c-0.4,0-0.8-0.2-0.9-0.6c-3.8-9.9-2-21.2,4.7-29.4c0.3-0.4,1-0.5,1.4-0.1c0.4,0.3,0.5,1,0.1,1.4
			C2.2,20.2,0.5,30.7,4,39.9C4.2,40.5,4,41,3.5,41.2C3.3,41.3,3.2,41.3,3.1,41.3z"/>
		<path class="st0" d="M37.5,58.8c-0.4,0-0.8-0.3-1-0.7c-0.1-0.5,0.2-1.1,0.7-1.2c9.5-2.6,17.1-10.1,19.6-19.6
			c0.1-0.5,0.7-0.8,1.2-0.7c0.5,0.1,0.8,0.7,0.7,1.2C56,48,48,56,37.7,58.8C37.6,58.8,37.6,58.8,37.5,58.8z"/>
		<path class="st0" d="M58.8,32.5C58.7,32.5,58.7,32.5,58.8,32.5c-0.6,0-1-0.5-1-1.1c0.5-9.9-4.3-19.3-12.6-24.7
			c-0.5-0.3-0.6-0.9-0.3-1.4s0.9-0.6,1.4-0.3c8.9,5.8,14.1,15.9,13.5,26.5C59.7,32.1,59.3,32.5,58.8,32.5z"/>
		<path class="st0" d="M11.9,8.6c-0.3,0-0.6-0.1-0.8-0.4c-0.3-0.4-0.3-1.1,0.1-1.4c8.2-6.7,19.5-8.4,29.4-4.7
			c0.5,0.2,0.8,0.8,0.6,1.3C41,4,40.5,4.2,39.9,4c-9.2-3.5-19.7-1.9-27.4,4.3C12.3,8.5,12.1,8.6,11.9,8.6z"/>
	</g>
</g>
</svg>
