<?xml version="1.0" encoding="utf-8"?>
<!-- Generator: Adobe Illustrator 19.0.0, SVG Export Plug-In . SVG Version: 6.00 Build 0)  -->
<svg version="1.1" xmlns="http://www.w3.org/2000/svg" xmlns:xlink="http://www.w3.org/1999/xlink" x="0px" y="0px"
	 viewBox="0 0 60 60" style="enable-background:new 0 0 60 60;" xml:space="preserve">
<style type="text/css">
	.st0{fill:#FFFFFF;}
</style>
<g id="Podlojki">
</g>
<g id="Layer_2">
	<g>
		<path class="st0" d="M27.9,59.8c-0.2,0-0.5-0.1-0.7-0.2c-0.4-0.4-0.5-1-0.1-1.4l13.3-15.4L26.8,31c-0.4-0.4-0.5-1-0.1-1.4l12-13.8
			L28.6,6.9l-8.2,9.5c-0.4,0.4-1,0.5-1.4,0.1c-0.4-0.4-0.5-1-0.1-1.4l8.9-10.2c0.2-0.2,0.4-0.3,0.7-0.3c0.3,0,0.5,0.1,0.7,0.2
			l11.7,10.1c0.4,0.4,0.5,1,0.1,1.4l-12,13.8l13.6,11.8c0.4,0.4,0.5,1,0.1,1.4l-14,16.1C28.4,59.7,28.2,59.8,27.9,59.8z"/>
		<path class="st0" d="M51.5,13.7c-3.7,0-6.8-3-6.8-6.8s3-6.8,6.8-6.8s6.8,3,6.8,6.8S55.2,13.7,51.5,13.7z M51.5,2.2
			c-2.6,0-4.8,2.1-4.8,4.8s2.1,4.8,4.8,4.8c2.6,0,4.8-2.1,4.8-4.8S54.1,2.2,51.5,2.2z"/>
		<path class="st0" d="M57.3,29.6H42.9c-0.6,0-1-0.4-1-1s0.4-1,1-1h14.4c0.6,0,1,0.4,1,1S57.8,29.6,57.3,29.6z"/>
		<path class="st0" d="M2.7,59.8c-0.2,0-0.5-0.1-0.7-0.2c-0.4-0.4-0.5-1-0.1-1.4l21-24.2c0.4-0.4,1-0.5,1.4-0.1
			c0.4,0.4,0.5,1,0.1,1.4l-21,24.2C3.3,59.7,3,59.8,2.7,59.8z"/>
	</g>
</g>
</svg>
