<?xml version="1.0" encoding="utf-8"?>
<!-- Generator: Adobe Illustrator 21.0.2, SVG Export Plug-In . SVG Version: 6.00 Build 0)  -->
<svg version="1.1" xmlns="http://www.w3.org/2000/svg" xmlns:xlink="http://www.w3.org/1999/xlink" x="0px" y="0px"
	 viewBox="0 0 60 60" style="enable-background:new 0 0 60 60;" xml:space="preserve">
<style type="text/css">
	.st0{fill:#FFFFFF;}
</style>
<g id="Podlojki">
</g>
<g id="Layer_2">
	<g>
		<path class="st0" d="M4.9,59.4c-0.4,0-0.7-0.2-0.9-0.5c-0.2-0.3-0.2-0.7,0-1l19.9-30.5c0.3-0.5,0.9-0.6,1.4-0.3
			c0.2,0.1,18.3,11.7,26.2,16.8c6.3-11.7,3.3-25.5-7.6-34.8c-10.4-8.9-25.5-9.2-36.3-1l32.2,20.9c0.5,0.3,0.6,0.9,0.3,1.4
			c-0.3,0.5-0.9,0.6-1.4,0.3L5.3,9C5.1,8.8,4.9,8.6,4.9,8.2c0-0.3,0.1-0.6,0.4-0.8c11.6-9.7,28.4-9.7,39.9,0.1
			c11.8,10,14.9,25.7,7.6,38.2c-0.1,0.2-0.4,0.4-0.6,0.5c-0.3,0.1-0.5,0-0.8-0.1c-6.4-4.2-22.4-14.4-26.2-16.8L6.7,57.4l45.7,0
			c0,0,0,0,0,0c0.6,0,1,0.4,1,1c0,0.6-0.4,1-1,1L4.9,59.4C4.9,59.4,4.9,59.4,4.9,59.4z"/>
	</g>
</g>
</svg>
