<?xml version="1.0" encoding="utf-8"?>
<!-- Generator: Adobe Illustrator 21.0.2, SVG Export Plug-In . SVG Version: 6.00 Build 0)  -->
<svg version="1.1" id="Layer_2" xmlns="http://www.w3.org/2000/svg" xmlns:xlink="http://www.w3.org/1999/xlink" x="0px" y="0px"
	 viewBox="0 0 60 60" style="enable-background:new 0 0 60 60;" xml:space="preserve">
<style type="text/css">
	.st0{fill:#FFFFFF;}
</style>
<g>
	<path class="st0" d="M44.7,8.8c-0.2,0-0.4-0.1-0.6-0.2c-2.9-2-6.2-3.3-9.7-3.9c-0.5-0.1-0.9-0.6-0.8-1.2c0.1-0.5,0.6-0.9,1.2-0.8
		c3.8,0.7,7.3,2.1,10.4,4.2c0.5,0.3,0.6,0.9,0.3,1.4C45.3,8.6,45,8.8,44.7,8.8z"/>
</g>
<g>
	<path class="st0" d="M15.2,8.7c-0.3,0-0.6-0.2-0.8-0.4c-0.3-0.5-0.2-1.1,0.3-1.4c4.5-3.1,9.8-4.7,15.3-4.7c0.6,0,1,0.4,1,1
		s-0.4,1-1,1c-5.1,0-10,1.5-14.2,4.3C15.6,8.7,15.4,8.7,15.2,8.7z"/>
</g>
<g>
	<path class="st0" d="M48.4,22.2c-0.4,0-0.8-0.2-0.9-0.6c-2.3-5.6-7.2-9.9-13.1-11.3c-0.5-0.1-0.9-0.7-0.7-1.2
		c0.1-0.5,0.7-0.9,1.2-0.7c6.5,1.6,11.9,6.2,14.5,12.5c0.2,0.5,0,1.1-0.6,1.3C48.6,22.1,48.5,22.2,48.4,22.2z"/>
</g>
<g>
	<path class="st0" d="M11.6,22c-0.1,0-0.3,0-0.4-0.1c-0.5-0.2-0.8-0.8-0.5-1.3c2.5-6.2,7.9-10.8,14.4-12.3c0.5-0.1,1.1,0.2,1.2,0.7
		c0.1,0.5-0.2,1.1-0.7,1.2c-5.9,1.4-10.7,5.6-13,11.1C12.4,21.8,12,22,11.6,22z"/>
</g>
<g>
	<path class="st0" d="M30,49.3c-0.6,0-1-0.4-1-1V3.2c0-0.6,0.4-1,1-1s1,0.4,1,1v45.1C31,48.9,30.5,49.3,30,49.3z"/>
</g>
<g>
	<path class="st0" d="M4.1,59c-0.6,0-1-0.4-1-1s0.4-1,1-1l51.8,0c0.6,0,1,0.4,1,1s-0.4,1-1,1L4.1,59z"/>
</g>
<g>
	<path class="st0" d="M55.9,59c-0.4,0-0.7-0.2-0.9-0.5c-4-7.9-11.7-13.5-20.4-15c-0.5-0.1-0.9-0.6-0.8-1.1c0.1-0.5,0.6-0.9,1.1-0.8
		c9.4,1.6,17.5,7.6,21.9,16c0.3,0.5,0.1,1.1-0.4,1.3C56.3,58.9,56.1,59,55.9,59z"/>
</g>
<g>
	<path class="st0" d="M8.3,52.7c-0.2,0-0.5-0.1-0.7-0.3c-0.4-0.4-0.4-1-0.1-1.4c4.5-5,10.7-8.4,17.3-9.6c0.6-0.1,1.1,0.3,1.2,0.8
		c0.1,0.5-0.3,1.1-0.8,1.2c-6.2,1.1-11.9,4.2-16.1,8.9C8.9,52.6,8.6,52.7,8.3,52.7z"/>
</g>
</svg>
