<?xml version="1.0" encoding="utf-8"?>
<!-- Generator: Adobe Illustrator 22.0.1, SVG Export Plug-In . SVG Version: 6.00 Build 0)  -->
<svg version="1.1" id="Layer_2" xmlns="http://www.w3.org/2000/svg" xmlns:xlink="http://www.w3.org/1999/xlink" x="0px" y="0px"
	 viewBox="0 0 60 60" style="enable-background:new 0 0 60 60;" xml:space="preserve">
<style type="text/css">
	.st0{fill:#FFFFFF;}
</style>
<g>
	<g>
		<path class="st0" d="M52.2,51.3h-51c-0.6,0-1-0.4-1-1V18.4c0-0.6,0.4-1,1-1s1,0.4,1,1v30.9h50c0.6,0,1,0.4,1,1
			S52.7,51.3,52.2,51.3z"/>
	</g>
	<g>
		<path class="st0" d="M58.8,51.3c-0.6,0-1-0.4-1-1V19.4H7.4c-0.6,0-1-0.4-1-1s0.4-1,1-1h51.4c0.6,0,1,0.4,1,1v31.9
			C59.8,50.8,59.4,51.3,58.8,51.3z"/>
	</g>
	<g>
		<path class="st0" d="M40.1,13.6c-0.6,0-1-0.4-1-1V6.4H20.9v6.2c0,0.6-0.4,1-1,1s-1-0.4-1-1V5.4c0-0.6,0.4-1,1-1h20.2
			c0.6,0,1,0.4,1,1v7.2C41.1,13.2,40.6,13.6,40.1,13.6z"/>
	</g>
	<g>
		<path class="st0" d="M34.8,38.3H24.8c-0.6,0-1-0.4-1-1v-3.7c0-0.6,0.4-1,1-1s1,0.4,1,1v2.7h8.1v-2.7c0-0.6,0.4-1,1-1s1,0.4,1,1
			v3.7C35.8,37.8,35.4,38.3,34.8,38.3z"/>
	</g>
	<g>
		<path class="st0" d="M52.2,29.2h-51c-0.6,0-1-0.4-1-1s0.4-1,1-1h51c0.6,0,1,0.4,1,1S52.7,29.2,52.2,29.2z"/>
	</g>
</g>
</svg>
