<?xml version="1.0" encoding="utf-8"?>
<!-- Generator: Adobe Illustrator 21.0.2, SVG Export Plug-In . SVG Version: 6.00 Build 0)  -->
<svg version="1.1" xmlns="http://www.w3.org/2000/svg" xmlns:xlink="http://www.w3.org/1999/xlink" x="0px" y="0px"
	 viewBox="0 0 60 60" style="enable-background:new 0 0 60 60;" xml:space="preserve">
<style type="text/css">
	.st0{fill:#FFFFFF;}
</style>
<g id="Podlojki">
</g>
<g id="Layer_2">
	<g>
		<g>
			<path class="st0" d="M52.2,49.6h-51c-0.3,0-0.6-0.1-0.8-0.4s-0.3-0.5-0.2-0.8L6,18.2c0.1-0.5,0.6-0.9,1.2-0.8
				C7.7,17.5,8,18,7.9,18.5L2.4,47.6h49.8c0.6,0,1,0.4,1,1S52.7,49.6,52.2,49.6z"/>
		</g>
		<g>
			<path class="st0" d="M58.8,49.6c-0.5,0-0.9-0.3-1-0.8l-5.6-29.4H13.7c-0.6,0-1-0.4-1-1s0.4-1,1-1H53c0.5,0,0.9,0.3,1,0.8
				l5.8,30.2c0.1,0.5-0.3,1.1-0.8,1.2C58.9,49.6,58.9,49.6,58.8,49.6z"/>
		</g>
		<g>
			<path class="st0" d="M40.1,13.6c-0.6,0-1-0.4-1-1V6.4H20.9v6.2c0,0.6-0.4,1-1,1s-1-0.4-1-1V5.4c0-0.6,0.4-1,1-1h20.2
				c0.6,0,1,0.4,1,1v7.2C41.1,13.2,40.6,13.6,40.1,13.6z"/>
		</g>
	</g>
</g>
</svg>
