<?xml version="1.0" encoding="utf-8"?>
<!-- Generator: Adobe Illustrator 21.0.2, SVG Export Plug-In . SVG Version: 6.00 Build 0)  -->
<svg version="1.1" id="Layer_2" xmlns="http://www.w3.org/2000/svg" xmlns:xlink="http://www.w3.org/1999/xlink" x="0px" y="0px"
	 viewBox="0 0 60 60" style="enable-background:new 0 0 60 60;" xml:space="preserve">
<style type="text/css">
	.st0{fill:#FFFFFF;}
</style>
<g>
	<path class="st0" d="M41.9,7.1H5.8c-0.6,0-1-0.4-1-1s0.4-1,1-1h36.1c0.6,0,1,0.4,1,1S42.5,7.1,41.9,7.1z"/>
</g>
<g>
	<path class="st0" d="M53.8,31h-48c-0.6,0-1-0.4-1-1s0.4-1,1-1h48c0.6,0,1,0.4,1,1S54.4,31,53.8,31z"/>
</g>
<g>
	<path class="st0" d="M53.8,55.3H18.1c-0.6,0-1-0.4-1-1s0.4-1,1-1h35.7c0.6,0,1,0.4,1,1S54.4,55.3,53.8,55.3z"/>
</g>
<g>
	<path class="st0" d="M5.8,31c-0.6,0-1-0.4-1-1V6.1c0-0.6,0.4-1,1-1s1,0.4,1,1V30C6.8,30.5,6.4,31,5.8,31z"/>
</g>
<g>
	<path class="st0" d="M53.8,55.3c-0.6,0-1-0.4-1-1V30c0-0.6,0.4-1,1-1s1,0.4,1,1v24.3C54.8,54.8,54.4,55.3,53.8,55.3z"/>
</g>
</svg>
