<?xml version="1.0" standalone="no"?>
<!DOCTYPE svg PUBLIC "-//W3C//DTD SVG 20010904//EN"
 "http://www.w3.org/TR/2001/REC-SVG-20010904/DTD/svg10.dtd">
<svg version="1.0" xmlns="http://www.w3.org/2000/svg"
 width="846.000000pt" height="846.000000pt" viewBox="0 0 846.000000 846.000000"
 preserveAspectRatio="xMidYMid meet">
<metadata>
Created by potrace 1.11, written by Peter Selinger 2001-2013
</metadata>
<g transform="translate(0.000000,846.000000) scale(0.100000,-0.100000)"
fill="#000000" stroke="none">
<path d="M4097 8434 c-1 -1 -49 -5 -107 -8 -136 -7 -219 -14 -250 -21 -14 -3
-50 -7 -81 -10 -31 -3 -67 -8 -80 -11 -63 -14 -76 -16 -104 -19 -16 -1 -37 -5
-45 -8 -8 -3 -32 -9 -54 -12 -21 -3 -42 -7 -46 -10 -3 -2 -22 -7 -40 -10 -47
-8 -210 -52 -305 -82 -44 -14 -81 -25 -83 -24 -1 1 -16 -6 -32 -14 -17 -9 -30
-13 -30 -9 0 4 -7 0 -17 -7 -9 -8 -19 -13 -22 -13 -6 2 -38 -9 -71 -23 -8 -3
-17 -7 -20 -7 -48 -10 -464 -209 -548 -262 -29 -19 -55 -34 -57 -34 -3 0 -51
-29 -106 -65 -55 -36 -104 -65 -109 -65 -4 0 -10 -3 -12 -7 -1 -5 -43 -37 -93
-72 -49 -36 -97 -71 -105 -78 -8 -7 -42 -35 -75 -61 -33 -26 -69 -55 -79 -64
-11 -10 -24 -18 -28 -18 -5 0 -7 -4 -3 -9 3 -5 -3 -12 -14 -16 -35 -11 -362
-343 -477 -485 -16 -19 -31 -37 -34 -40 -3 -3 -19 -23 -35 -45 -17 -22 -32
-42 -36 -45 -11 -10 -159 -220 -159 -225 0 -4 -11 -21 -24 -38 -37 -48 -196
-320 -196 -334 0 -7 -4 -13 -10 -13 -5 0 -9 -3 -8 -7 0 -5 -27 -66 -61 -138
-34 -71 -66 -139 -71 -150 -22 -48 -97 -245 -114 -300 -2 -5 -6 -17 -9 -25 -5
-12 -42 -135 -53 -175 -2 -5 -10 -37 -20 -70 -9 -33 -17 -64 -18 -70 -23 -105
-30 -133 -38 -149 -8 -14 -7 -17 3 -11 8 5 10 4 5 -4 -4 -6 -9 -21 -12 -34 -2
-12 -6 -33 -9 -47 -3 -14 -8 -38 -10 -55 -3 -16 -7 -41 -10 -55 -5 -24 -11
-70 -20 -140 -2 -19 -7 -73 -10 -120 -4 -47 -9 -96 -12 -110 -8 -34 -11 -4480
-4 -4481 9 -2 124 -10 141 -9 8 0 44 0 80 0 77 0 69 0 148 3 35 1 66 -1 69 -6
2 -4 9 -5 14 -2 16 10 89 13 89 3 0 -5 5 -6 11 -3 15 10 109 12 109 3 0 -4 7
-5 16 -1 24 9 87 10 110 2 12 -4 25 -5 28 -1 9 8 326 9 326 0 0 -4 10 -4 23 0
12 4 36 6 52 5 36 -4 13 -4 228 -1 97 2 177 0 177 -4 0 -4 7 -5 16 -1 24 9 87
10 111 2 12 -5 25 -5 27 0 3 4 20 7 38 5 44 -3 177 -6 248 -4 8 0 44 0 80 0
36 0 72 0 80 0 8 0 44 0 80 0 72 0 71 0 120 1 19 1 55 1 80 0 43 -1 168 -2
200 -1 8 0 44 0 80 0 77 0 69 0 148 3 35 1 66 -1 69 -6 2 -4 9 -5 14 -2 16 10
89 13 89 3 0 -5 5 -6 11 -3 15 10 109 12 109 3 0 -4 7 -5 16 -1 24 9 87 10
110 2 12 -4 25 -5 28 -1 9 8 326 9 326 0 0 -4 7 -5 16 -1 24 9 87 10 111 2 12
-5 24 -5 27 -1 5 9 290 7 305 -2 6 -4 11 -4 11 1 0 4 60 9 133 10 162 2 334
13 417 28 14 2 49 7 79 10 30 4 63 9 75 11 12 2 37 7 56 10 35 6 209 41 243
50 9 2 26 6 36 8 66 15 342 97 381 113 8 3 17 7 20 8 3 1 12 4 20 8 8 3 38 13
65 23 28 10 55 20 60 24 6 4 33 15 60 25 28 10 71 29 97 42 27 13 49 22 50 21
10 -6 409 212 460 251 14 12 29 21 32 21 14 0 269 178 274 192 2 4 10 8 17 8
7 0 15 3 17 8 2 4 28 26 58 50 160 127 329 286 490 461 47 52 90 98 96 105 22
24 192 244 224 291 19 28 38 51 43 53 4 2 7 8 7 13 0 5 12 27 28 48 43 61 52
75 65 98 7 12 32 55 57 95 48 79 195 365 224 438 10 25 24 59 32 75 48 110
149 400 160 459 3 16 7 33 10 38 3 4 7 16 9 25 3 10 9 38 16 63 6 25 12 52 14
60 2 8 4 15 5 15 1 0 3 11 5 25 2 14 6 36 10 50 3 14 10 48 15 75 5 28 12 64
15 80 10 50 24 153 40 285 13 105 17 218 17 425 -1 285 -10 425 -38 600 -3 17
-7 44 -9 60 -10 69 -15 95 -35 190 -11 55 -23 111 -26 125 -9 44 -36 142 -66
245 -17 55 -30 102 -30 105 0 3 -4 13 -10 23 -5 10 -11 26 -13 35 -3 20 -102
276 -115 300 -5 10 -21 44 -35 77 -43 97 -147 297 -189 364 -14 22 -26 43 -26
45 0 6 -105 166 -120 184 -6 6 -7 12 -3 12 4 0 3 4 -3 8 -9 6 -70 90 -109 150
-5 8 -17 23 -25 33 -33 39 -46 55 -84 104 -21 27 -47 59 -58 70 -10 11 -35 40
-56 65 -47 57 -322 332 -387 387 -28 23 -61 52 -75 64 -14 12 -50 40 -79 63
-30 22 -66 51 -79 64 -14 12 -29 22 -34 22 -5 0 -18 9 -30 19 -21 20 -255 181
-263 181 -2 0 -24 14 -48 30 -25 17 -48 30 -53 30 -4 0 -28 13 -53 29 -46 29
-257 140 -266 140 -3 0 -29 11 -58 24 -45 21 -108 47 -182 77 -11 4 -36 15
-55 23 -28 12 -129 47 -150 52 -3 1 -13 5 -22 8 -41 16 -54 20 -63 22 -5 2
-50 15 -100 29 -49 15 -99 29 -110 31 -11 3 -32 7 -47 11 -15 3 -30 5 -33 5
-2 0 -19 5 -37 10 -18 5 -49 12 -68 15 -19 3 -38 8 -42 10 -3 2 -30 7 -60 10
-29 3 -56 8 -61 11 -9 6 -38 10 -107 17 -30 3 -73 8 -95 11 -124 18 -271 27
-473 29 -90 1 -164 1 -165 0z"/>
</g>
</svg>
