<?xml version="1.0" encoding="utf-8"?>
<!-- Generator: Adobe Illustrator 21.1.0, SVG Export Plug-In . SVG Version: 6.00 Build 0)  -->
<svg version="1.1" id="Layer_2" xmlns="http://www.w3.org/2000/svg" xmlns:xlink="http://www.w3.org/1999/xlink" x="0px" y="0px"
	 viewBox="0 0 128 128" style="enable-background:new 0 0 128 128;" xml:space="preserve">
<style type="text/css">
	.st0{fill:#FFFFFF;}
</style>
<g>
	<path class="st0" d="M108.2,126c-6.2,0-12-3.1-15.6-8.2c-1.3-1.8-0.8-4.3,1-5.6c1.8-1.3,4.3-0.8,5.6,1c2,3,5.4,4.7,9,4.7
		c6,0,10.9-4.9,10.9-10.9s-4.9-10.9-10.9-10.9c-0.2,0-0.4,0-0.6,0c-2.2,0.1-4.1-1.6-4.2-3.8c-0.1-2.2,1.6-4.1,3.8-4.2
		c0.3,0,0.7,0,1,0c10.4,0,18.9,8.5,18.9,18.9S118.6,126,108.2,126z"/>
</g>
<g>
	<path class="st0" d="M108.3,39.8c-0.9,0-1.7-0.1-2.6-0.2c-2.2-0.3-3.7-2.3-3.4-4.5c0.3-2.2,2.3-3.7,4.5-3.4c0.5,0.1,1,0.1,1.5,0.1
		c6,0,10.8-4.9,10.8-10.8s-4.9-10.8-10.8-10.8c-3.5,0-6.8,1.7-8.8,4.5c-1.3,1.8-3.8,2.2-5.6,0.9c-1.8-1.3-2.2-3.8-0.9-5.6
		c3.5-4.9,9.3-7.9,15.3-7.9c10.4,0,18.8,8.5,18.8,18.8S118.7,39.8,108.3,39.8z"/>
</g>
<g>
	<path class="st0" d="M19.1,82.2c-9.9,0-17.9-8-17.9-17.9s8-17.9,17.9-17.9c2.4,0,4.8,0.5,7,1.4c2,0.9,3,3.2,2.1,5.2S25,56,23,55.1
		c-1.2-0.5-2.5-0.8-3.9-0.8c-5.5,0-9.9,4.5-9.9,9.9s4.5,9.9,9.9,9.9c1.6,0,3.1-0.4,4.5-1.1c2-1,4.4-0.2,5.4,1.8c1,2,0.2,4.4-1.8,5.4
		C24.7,81.6,21.9,82.2,19.1,82.2z"/>
</g>
<g>
	<path class="st0" d="M35.1,68.3c-1.3,0-2.6-0.7-3.4-1.9c-1.2-1.9-0.6-4.3,1.3-5.5l54.9-34.5c1.9-1.2,4.3-0.6,5.5,1.3
		c1.2,1.9,0.6,4.3-1.3,5.5L37.2,67.7C36.5,68.1,35.8,68.3,35.1,68.3z"/>
</g>
<g>
	<path class="st0" d="M89.8,102.3c-0.7,0-1.4-0.2-2.1-0.6L54.7,81.2c-1.9-1.2-2.5-3.6-1.3-5.5s3.6-2.5,5.5-1.3l32.9,20.4
		c1.9,1.2,2.5,3.6,1.3,5.5C92.4,101.6,91.1,102.3,89.8,102.3z"/>
</g>
</svg>
