<?xml version="1.0" encoding="utf-8"?>
<!-- Generator: Adobe Illustrator 21.1.0, SVG Export Plug-In . SVG Version: 6.00 Build 0)  -->
<svg version="1.1" id="Layer_2" xmlns="http://www.w3.org/2000/svg" xmlns:xlink="http://www.w3.org/1999/xlink" x="0px" y="0px"
	 viewBox="0 0 128 128" style="enable-background:new 0 0 128 128;" xml:space="preserve">
<style type="text/css">
	.st0{fill:#FFFFFF;}
</style>
<g>
	<path class="st0" d="M64,106c-2.2,0-4-1.8-4-4V57.7c0-2.2,1.8-4,4-4s4,1.8,4,4V102C68,104.2,66.2,106,64,106z"/>
</g>
<g>
	<path class="st0" d="M63.3,46.1c-3.6,0-7.1-1.7-9.3-4.7c-1.3-1.8-0.9-4.3,0.9-5.6c1.8-1.3,4.3-0.9,5.6,0.9c0.7,0.9,1.7,1.4,2.8,1.4
		c0.9,0,1.8-0.4,2.4-1c0.7-0.7,1-1.5,1-2.5c0-0.9-0.4-1.8-1-2.4c-0.7-0.7-1.5-1-2.5-1c-1,0-1.9,0.4-2.6,1.2c-1.5,1.6-4,1.8-5.6,0.3
		c-1.6-1.5-1.8-4-0.3-5.6c2.2-2.4,5.2-3.8,8.4-3.8c0,0,0.1,0,0.1,0c3,0,5.9,1.2,8,3.3c2.2,2.1,3.4,5,3.4,8.1c0,3.1-1.1,6-3.3,8.1
		S66.5,46.1,63.3,46.1C63.4,46.1,63.3,46.1,63.3,46.1z"/>
</g>
<g>
	<path class="st0" d="M118.3,122.3H84.5c-2.2,0-4-1.8-4-4s1.8-4,4-4h29.8V13.7H84c-2.2,0-4-1.8-4-4s1.8-4,4-4h34.3c2.2,0,4,1.8,4,4
		v108.7C122.3,120.5,120.5,122.3,118.3,122.3z"/>
</g>
<g>
	<path class="st0" d="M44.2,122.3H9.7c-2.2,0-4-1.8-4-4V9.7c0-2.2,1.8-4,4-4h34.2c2.2,0,4,1.8,4,4s-1.8,4-4,4H13.7v100.7h30.5
		c2.2,0,4,1.8,4,4S46.4,122.3,44.2,122.3z"/>
</g>
</svg>
