<?xml version="1.0" encoding="utf-8"?>
<!-- Generator: Adobe Illustrator 21.1.0, SVG Export Plug-In . SVG Version: 6.00 Build 0)  -->
<svg version="1.1" id="Layer_2" xmlns="http://www.w3.org/2000/svg" xmlns:xlink="http://www.w3.org/1999/xlink" x="0px" y="0px"
	 viewBox="0 0 128 128" style="enable-background:new 0 0 128 128;" xml:space="preserve">
<style type="text/css">
	.st0{fill:#1D1D1B;}
	.st1{fill:#FFFFFF;}
</style>
<path class="st0" d="M126.7,73.2c-1.7-4-4.5-7-7.9-9.5c-0.8-0.6-1.1-1.1-1.1-2.1c0-14,0-28,0-42c0-4.1-0.5-4.6-4.6-4.6
	c-32.3,0-64.6,0-97,0c-2.8,0-3.6,0.8-3.6,3.7c0,14.2,0,28.4,0,42.6c0,1.1-0.3,1.8-1.2,2.5c-4.6,3.4-7.9,7.7-9,13.5
	C2.1,78.2,2,79,1.9,79.9c0,12.6,0,25.1,0,37.7c0.3,0.5,0.5,1,0.8,1.3c0.7,0.8,1.7,1,2.7,0.7c1.2-0.4,1.8-1.3,1.8-2.5
	c0-1.9,0-3.9,0-5.8c0-0.4,0-0.9,0-1.4c38.6,0,77.1,0,115.7,0c0,2.2,0,4.3,0,6.5c0,1.9,0.5,2.8,1.8,3.3c1.3,0.4,2.2,0,3.4-1.5
	c0-13.6,0-27.1,0-40.7C127.7,76,127.3,74.6,126.7,73.2z M18.9,20.3c30.8,0,61.5,0,92.3,0c0.3,0,0.6,0,1.1,0.1c0,13.2,0,26.3,0,39.6
	c-0.4-0.1-0.7-0.2-1-0.3c-2.8-0.7-5.5-1.5-8.3-2.1c-0.8-0.2-1.1-0.4-1.1-1.2c0-3.8,0-7.6,0-11.5c0-4.3-3.7-7.9-7.9-7.8
	c-0.5,0-1.1,0.1-1.6,0.3c-4.3,1.1-8.6,1.1-12.8-0.2c-4.9-1.5-9.4,2.9-9.3,7.2c0.1,3.8,0,7.6,0,11.3c0,0.4,0,0.9,0,1.5
	c-1.8,0-3.5,0-5.2,0c-1.7,0-3.4,0-5.3,0c0-0.5,0-1,0-1.4c0-3.7,0-7.3,0-11c0-5-4.7-8.7-9.5-7.5c-4.3,1.1-8.6,1.1-12.8-0.2
	c-5.1-1.5-9.4,3-9.3,7.2c0.1,3.9,0,7.8,0,11.7c0,0.4,0,0.8,0,1.2c-1.9,0.4-3.7,0.7-5.4,1.1c-1.7,0.4-3.3,1-5.1,1.6
	c0-0.5,0-0.9,0-1.3c0-12.4,0-24.7,0-37.1C17.7,20.6,17.9,20.3,18.9,20.3z M96.6,57c-7,0-13.9,0-20.9,0c0-4.6,0-9,0-13.5
	c0-1.5,0.6-1.9,2.1-1.5c5.5,1.4,10.9,1.6,16.4,0.2c1.4-0.4,2.4,0.2,2.4,1.5C96.6,48.1,96.6,52.5,96.6,57z M54.6,57.1
	c-7.1,0-14,0-21,0c0-0.3-0.1-0.6-0.1-0.9c0-3.9,0-7.9,0-11.8c0-0.4,0-0.7,0.1-1.1c0.2-1.2,0.7-1.5,1.9-1.2
	c5.5,1.5,11.1,1.7,16.7,0.2c1.6-0.4,2.4,0.3,2.4,2.2c0,3.3,0,6.6,0,9.9C54.6,55.1,54.6,56,54.6,57.1z M122.9,83.5c0,0,0,13.8,0,20.8
	c-38.5,0-77,0-115.5,0c0-6.9,0-20.8,0-20.8l0-5.5c0,0,0.8-2.8,1.4-4c1.7-3.3,4.3-5.6,7.4-7.6c5.5-3.4,11.4-4.1,17.6-4.1
	c21.8,0,43.7,0,65.5,0c4.2,0,8.3,0.8,12.2,2.7c4.1,1.9,7.7,4.4,9.8,8.6c0.7,1.4,1.7,4.4,1.7,4.4L122.9,83.5z"/>
<path class="st1" d="M124.8,72c-1.7-4-4.5-7-7.9-9.5c-0.8-0.6-1.1-1.1-1.1-2.1c0-14,0-28,0-42c0-4.1-0.5-4.6-4.6-4.6
	c-32.3,0-64.6,0-97,0c-2.8,0-3.6,0.8-3.6,3.7c0,14.2,0,28.4,0,42.6c0,1.1-0.3,1.8-1.2,2.5c-4.6,3.4-7.9,7.7-9,13.5
	c-0.2,0.8-0.3,1.7-0.4,2.5c0,12.6,0,25.1,0,37.7c0.3,0.5,0.5,1,0.8,1.3c0.7,0.8,1.7,1,2.7,0.7c1.2-0.4,1.8-1.3,1.8-2.5
	c0-1.9,0-3.9,0-5.8c0-0.4,0-0.9,0-1.4c38.6,0,77.1,0,115.7,0c0,2.2,0,4.3,0,6.5c0,1.9,0.5,2.8,1.8,3.3c1.3,0.4,2.2,0,3.4-1.5
	c0-13.6,0-27.1,0-40.7C125.8,74.7,125.4,73.3,124.8,72z M17,19c30.8,0,61.5,0,92.3,0c0.3,0,0.6,0,1.1,0.1c0,13.2,0,26.3,0,39.6
	c-0.4-0.1-0.7-0.2-1-0.3c-2.8-0.7-5.5-1.5-8.3-2.1c-0.8-0.2-1.1-0.4-1.1-1.2c0-3.8,0-7.6,0-11.5c0-4.3-3.7-7.9-7.9-7.8
	c-0.5,0-1.1,0.1-1.6,0.3c-4.3,1.1-8.6,1.1-12.8-0.2c-4.9-1.5-9.4,2.9-9.3,7.2c0.1,3.8,0,7.6,0,11.3c0,0.4,0,0.9,0,1.5
	c-1.8,0-3.5,0-5.2,0c-1.7,0-3.4,0-5.3,0c0-0.5,0-1,0-1.4c0-3.7,0-7.3,0-11c0-5-4.7-8.7-9.5-7.5c-4.3,1.1-8.6,1.1-12.8-0.2
	c-5.1-1.5-9.4,3-9.3,7.2c0.1,3.9,0,7.8,0,11.7c0,0.4,0,0.8,0,1.2c-1.9,0.4-3.7,0.7-5.4,1.1c-1.7,0.4-3.3,1-5.1,1.6
	c0-0.5,0-0.9,0-1.3c0-12.4,0-24.7,0-37.1C15.8,19.3,16,19,17,19z M94.7,55.8c-7,0-13.9,0-20.9,0c0-4.6,0-9,0-13.5
	c0-1.5,0.6-1.9,2.1-1.5c5.5,1.4,10.9,1.6,16.4,0.2c1.4-0.4,2.4,0.2,2.4,1.5C94.7,46.8,94.7,51.3,94.7,55.8z M52.7,55.8
	c-7.1,0-14,0-21,0c0-0.3-0.1-0.6-0.1-0.9c0-3.9,0-7.9,0-11.8c0-0.4,0-0.7,0.1-1.1c0.2-1.2,0.7-1.5,1.9-1.2
	c5.5,1.5,11.1,1.7,16.7,0.2c1.6-0.4,2.4,0.3,2.4,2.2c0,3.3,0,6.6,0,9.9C52.7,53.9,52.7,54.8,52.7,55.8z M121,82.3c0,0,0,13.8,0,20.8
	c-38.5,0-77,0-115.5,0c0-6.9,0-20.8,0-20.8l0-5.5c0,0,0.8-2.8,1.4-4c1.7-3.3,4.3-5.6,7.4-7.6c5.5-3.4,11.4-4.1,17.6-4.1
	c21.8,0,43.7,0,65.5,0c4.2,0,8.3,0.8,12.2,2.7c4.1,1.9,7.7,4.4,9.8,8.6c0.7,1.4,1.7,4.4,1.7,4.4L121,82.3z"/>
</svg>
