<?xml version="1.0" encoding="utf-8"?>
<!-- Generator: Adobe Illustrator 21.0.2, SVG Export Plug-In . SVG Version: 6.00 Build 0)  -->
<svg version="1.1" id="Layer_2" xmlns="http://www.w3.org/2000/svg" xmlns:xlink="http://www.w3.org/1999/xlink" x="0px" y="0px"
	 viewBox="0 0 60 60" style="enable-background:new 0 0 60 60;" xml:space="preserve">
<style type="text/css">
	.st0{display:none;fill:none;stroke:#000000;stroke-width:2;stroke-linecap:round;stroke-linejoin:round;}
	.st1{fill:#FFFFFF;}
</style>
<polyline class="st0" points="30,30 5.8,30 5.8,5.7 54.2,5.7 54.2,54.3 5.8,54.3 "/>
<g>
	<path class="st1" d="M30,59.8C13.5,59.8,0.2,46.5,0.2,30S13.5,0.3,30,0.3S59.8,13.6,59.8,30S46.4,59.8,30,59.8z M30,2.3
		C14.6,2.3,2.2,14.7,2.2,30c0,15.3,12.5,27.8,27.8,27.8S57.8,45.4,57.8,30C57.8,14.7,45.3,2.3,30,2.3z"/>
</g>
<g>
	<path class="st1" d="M30,58.8H1.2V30c0,0-0.4,11.7,8.3,20.3S30,58.8,30,58.8z"/>
	<path class="st1" d="M30,59.8H0.2V30.6c0-0.3,0-0.5,0-0.6l2,0v0.4c0,1.9,0.6,11.8,8,19.2c8.3,8.2,19.6,8.3,19.8,8.3V59.8z
		 M2.2,57.8h17.6c-3.5-1.3-7.5-3.4-11-6.8c-3.3-3.3-5.4-6.9-6.6-10.3V57.8z"/>
</g>
</svg>
