<?xml version="1.0" encoding="utf-8"?>
<!-- Generator: Adobe Illustrator 21.1.0, SVG Export Plug-In . SVG Version: 6.00 Build 0)  -->
<svg version="1.1" xmlns="http://www.w3.org/2000/svg" xmlns:xlink="http://www.w3.org/1999/xlink" x="0px" y="0px"
	 viewBox="0 0 128 128" style="enable-background:new 0 0 128 128;" xml:space="preserve">
<style type="text/css">
	.st0{fill:#FF0000;}
</style>
<g id="Podlojki">
</g>
<g id="Layer_2">
	<g>
		<path d="M64.3,117.6c-0.7,0-1.4-0.3-1.9-0.8c-0.9-1-0.8-2.6,0.2-3.5l50.6-45.6c7-6.3,10.4-15.7,8.9-25
			c-1.5-9.3-7.5-17.2-16.2-21.1c-8.6-3.9-18.5-3.1-26.5,2.1S66.8,37.5,66.8,47c0,1.4-1.1,2.5-2.5,2.5s-2.5-1.1-2.5-2.5
			c0-9.5-4.7-18.2-12.7-23.3c-7.9-5.2-17.8-5.9-26.5-2.1C14,25.4,8,33.3,6.5,42.7s1.8,18.7,8.9,25l39.9,35.9l49.9-44.9
			c1-0.9,2.6-0.8,3.5,0.2c0.9,1,0.8,2.6-0.2,3.5l-51.6,46.4c-1,0.9-2.4,0.9-3.3,0L12,71.4C3.7,63.9-0.2,52.9,1.6,41.9
			c1.7-11,8.9-20.3,19.1-24.9c10.2-4.5,21.9-3.6,31.2,2.5c5.7,3.7,10,8.9,12.5,14.9c2.5-6,6.8-11.3,12.5-14.9c9.4-6.1,21-7,31.2-2.5
			c10.2,4.5,17.3,13.8,19.1,24.9c1.7,11-2.2,22.1-10.5,29.5L66,117C65.5,117.4,64.9,117.6,64.3,117.6z"/>
	</g>
	<g>
		<path class="st0" d="M63.9,115.1c-0.7,0-1.4-0.3-1.9-0.8c-0.9-1-0.8-2.6,0.2-3.5l50.6-45.6c7-6.3,10.4-15.7,8.9-25
			c-1.5-9.3-7.5-17.2-16.2-21.1C96.9,15.2,87,16,79.1,21.1C71.1,26.3,66.4,35,66.4,44.5c0,1.4-1.1,2.5-2.5,2.5s-2.5-1.1-2.5-2.5
			c0-9.5-4.7-18.2-12.7-23.3C40.8,16,30.9,15.2,22.2,19C13.6,22.9,7.5,30.8,6.1,40.1c-1.5,9.3,1.8,18.7,8.9,25L54.8,101l49.9-44.9
			c1-0.9,2.6-0.8,3.5,0.2c0.9,1,0.8,2.6-0.2,3.5l-51.6,46.4c-1,0.9-2.4,0.9-3.3,0L11.6,68.9C3.3,61.4-0.6,50.4,1.1,39.3
			C2.9,28.3,10,19,20.2,14.5c10.2-4.5,21.9-3.6,31.2,2.5c5.7,3.7,10,8.9,12.5,14.9c2.5-6,6.8-11.3,12.5-14.9c9.4-6.1,21-7,31.2-2.5
			c10.2,4.5,17.3,13.8,19.1,24.9c1.7,11-2.2,22.1-10.5,29.5l-50.6,45.6C65.1,114.9,64.5,115.1,63.9,115.1z"/>
	</g>
</g>
</svg>
