<?xml version="1.0" encoding="utf-8"?>
<!-- Generator: Adobe Illustrator 21.1.0, SVG Export Plug-In . SVG Version: 6.00 Build 0)  -->
<svg version="1.1" id="Layer_2" xmlns="http://www.w3.org/2000/svg" xmlns:xlink="http://www.w3.org/1999/xlink" x="0px" y="0px"
	 viewBox="0 0 128 128" style="enable-background:new 0 0 128 128;" xml:space="preserve">
<style type="text/css">
	.st0{display:none;}
	.st1{display:inline;fill:none;stroke:#000000;stroke-width:8;stroke-linecap:round;stroke-linejoin:round;}
	.st2{display:inline;fill:none;stroke:#000000;stroke-width:8;stroke-linecap:round;stroke-linejoin:round;stroke-miterlimit:10;}
	.st3{fill:#FF0000;}
</style>
<g class="st0">
	<polyline class="st1" points="72,6.5 121.5,6.5 121.5,121.5 6.5,121.5 6.5,6.5 55.3,6.5 	"/>
	<polyline class="st2" points="97.7,83.8 70.8,109.2 70.8,70.5 106.5,70.5 	"/>
	<line class="st1" x1="55.3" y1="6.5" x2="55.3" y2="33.3"/>
	<line class="st1" x1="55.3" y1="33.3" x2="25.7" y2="33.3"/>
	<line class="st1" x1="72" y1="6.5" x2="72" y2="33.3"/>
	<line class="st1" x1="72" y1="33.3" x2="103.5" y2="33.3"/>
</g>
<g>
	<path d="M74.1,119c-2.2,0-4-1.8-4-4V68.8c0-1.1,0.4-2.1,1.2-2.8l41.3-41.3H20l41.3,41.3c0.8,0.8,1.2,1.8,1.2,2.8v33.8
		c0,2.2-1.8,4-4,4s-4-1.8-4-4V70.4L7.5,23.5c-1.1-1.1-1.5-2.9-0.9-4.4s2.1-2.5,3.7-2.5h111.9c1.6,0,3.1,1,3.7,2.5s0.3,3.2-0.9,4.4
		L78.1,70.4V115C78.1,117.2,76.3,119,74.1,119z"/>
</g>
<g>
	<path class="st3" d="M70.8,117.4c-2.2,0-4-1.8-4-4V67.2c0-1.1,0.4-2.1,1.2-2.8l41.3-41.3H16.7l41.3,41.3c0.8,0.8,1.2,1.8,1.2,2.8
		V101c0,2.2-1.8,4-4,4s-4-1.8-4-4V68.9L4.2,21.9c-1.1-1.1-1.5-2.9-0.9-4.4s2.1-2.5,3.7-2.5h111.9c1.6,0,3.1,1,3.7,2.5
		s0.3,3.2-0.9,4.4L74.8,68.9v44.5C74.8,115.6,73,117.4,70.8,117.4z"/>
</g>
</svg>
