<?xml version="1.0" encoding="utf-8"?>
<!-- Generator: Adobe Illustrator 21.1.0, SVG Export Plug-In . SVG Version: 6.00 Build 0)  -->
<svg version="1.1" id="Layer_2" xmlns="http://www.w3.org/2000/svg" xmlns:xlink="http://www.w3.org/1999/xlink" x="0px" y="0px"
	 viewBox="0 0 128 128" style="enable-background:new 0 0 128 128;" xml:space="preserve">
<style type="text/css">
	.st0{fill:#FFFFFF;}
</style>
<g>
	<path class="st0" d="M44.2,122.3c-2.2,0-4-1.8-4-4V88.2H9.7c-2.2,0-4-1.8-4-4s1.8-4,4-4h34.5c2.2,0,4,1.8,4,4v34.2
		C48.2,120.5,46.4,122.3,44.2,122.3z"/>
</g>
<g>
	<path class="st0" d="M84.5,122.3c-2.2,0-4-1.8-4-4V84.2c0-2.2,1.8-4,4-4h33.8c2.2,0,4,1.8,4,4s-1.8,4-4,4H88.5v30.2
		C88.5,120.5,86.7,122.3,84.5,122.3z"/>
</g>
<g>
	<path class="st0" d="M118.3,48.2H84c-2.2,0-4-1.8-4-4V9.7c0-2.2,1.8-4,4-4s4,1.8,4,4v30.5h30.3c2.2,0,4,1.8,4,4
		S120.5,48.2,118.3,48.2z"/>
</g>
<g>
	<path class="st0" d="M43.8,48.2H9.7c-2.2,0-4-1.8-4-4s1.8-4,4-4h30.2V9.7c0-2.2,1.8-4,4-4s4,1.8,4,4v34.5
		C47.8,46.4,46,48.2,43.8,48.2z"/>
</g>
</svg>
