<?xml version="1.0" encoding="utf-8"?>
<!-- Generator: Adobe Illustrator 21.1.0, SVG Export Plug-In . SVG Version: 6.00 Build 0)  -->
<svg version="1.1" id="Layer_2" xmlns="http://www.w3.org/2000/svg" xmlns:xlink="http://www.w3.org/1999/xlink" x="0px" y="0px"
	 viewBox="0 0 128 128" style="enable-background:new 0 0 128 128;" xml:space="preserve">
<style type="text/css">
	.st0{fill:#FFFFFF;}
</style>
<g>
	<path class="st0" d="M44.2,122.3H9.7c-2.2,0-4-1.8-4-4V84.2c0-2.2,1.8-4,4-4s4,1.8,4,4v30.2h30.5c2.2,0,4,1.8,4,4
		S46.4,122.3,44.2,122.3z"/>
</g>
<g>
	<path class="st0" d="M118.3,122.3H84.5c-2.2,0-4-1.8-4-4s1.8-4,4-4h29.8V84.2c0-2.2,1.8-4,4-4s4,1.8,4,4v34.2
		C122.3,120.5,120.5,122.3,118.3,122.3z"/>
</g>
<g>
	<path class="st0" d="M118.3,48.2c-2.2,0-4-1.8-4-4V13.7H84c-2.2,0-4-1.8-4-4s1.8-4,4-4h34.3c2.2,0,4,1.8,4,4v34.5
		C122.3,46.4,120.5,48.2,118.3,48.2z"/>
</g>
<g>
	<path class="st0" d="M9.7,48.2c-2.2,0-4-1.8-4-4V9.7c0-2.2,1.8-4,4-4h34.2c2.2,0,4,1.8,4,4s-1.8,4-4,4H13.7v30.5
		C13.7,46.4,11.9,48.2,9.7,48.2z"/>
</g>
</svg>
