<?xml version="1.0" encoding="utf-8"?>
<!-- Generator: Adobe Illustrator 21.1.0, SVG Export Plug-In . SVG Version: 6.00 Build 0)  -->
<svg version="1.1" id="Layer_2" xmlns="http://www.w3.org/2000/svg" xmlns:xlink="http://www.w3.org/1999/xlink" x="0px" y="0px"
	 viewBox="0 0 128 128" style="enable-background:new 0 0 128 128;" xml:space="preserve">
<style type="text/css">
	.st0{fill:#FFFFFF;}
</style>
<g>
	<path class="st0" d="M68.5,93.1c-2.1,0-3.9-1.7-4-3.9c-0.1-2.2,1.7-4.1,3.9-4.1c29-1,48.5-11.7,48.5-21.1c0-6.3-8.3-12.8-21.7-16.9
		c-2.1-0.6-3.3-2.9-2.6-5c0.6-2.1,2.9-3.3,5-2.6c17.4,5.3,27.3,14.3,27.3,24.5c0,15.7-23.6,28-56.2,29.1
		C68.6,93.1,68.5,93.1,68.5,93.1z"/>
</g>
<g>
	<path class="st0" d="M37.4,115.9c-0.7,0-1.4-0.2-2-0.5c-1.9-1.1-2.6-3.6-1.5-5.5l10.5-18.2c-2.7-0.4-5.4-0.9-8-1.5
		C15.6,85.2,3.2,75.5,3.2,64c0-15.8,23.8-28,56.5-29.1c2.2-0.1,4.1,1.7,4.1,3.9c0.1,2.2-1.7,4.1-3.9,4.1
		C30.8,43.8,11.2,54.6,11.2,64c0,7.2,10.9,14.5,27.2,18.4c4.1,1,8.5,1.7,13,2.2c1.3,0.1,2.5,1,3.1,2.2s0.6,2.6-0.1,3.8l-13.5,23.4
		C40.1,115.2,38.8,115.9,37.4,115.9z"/>
</g>
<g>
	<path class="st0" d="M65,68c-0.7,0-1.4-0.2-2-0.5c-1.9-1.1-2.6-3.6-1.5-5.5l28.9-50.1C91.6,10,94,9.4,96,10.5
		c1.9,1.1,2.6,3.6,1.5,5.5L68.5,66C67.8,67.3,66.4,68,65,68z"/>
</g>
</svg>
