<?xml version="1.0" encoding="utf-8"?>
<!-- Generator: Adobe Illustrator 21.1.0, SVG Export Plug-In . SVG Version: 6.00 Build 0)  -->
<svg version="1.1" id="Layer_1" xmlns="http://www.w3.org/2000/svg" xmlns:xlink="http://www.w3.org/1999/xlink" x="0px" y="0px"
	 viewBox="0 0 2499.1 846" style="enable-background:new 0 0 2499.1 846;" xml:space="preserve">
<style type="text/css">
	.st0{fill:#FFFFFF;}
	.st1{display:none;fill:#52585E;}
	.st2{stroke:#FFFFFF;stroke-width:2.2978;}
	.st3{fill:url(#path64_1_);}
	.st4{fill:url(#path78_1_);}
	.st5{fill:url(#path88_1_);}
	.st6{fill:url(#path104_1_);}
</style>
<path id="background" class="st0" d="M101.5,0h2296c56,0,101.5,45.5,101.5,101.5v643c0,56-45.5,101.5-101.5,101.5h-2296
	C45.5,846,0,800.5,0,744.5v-643C0,45.5,45.5,0,101.5,0z"/>
<title>google-play-btn</title>
<desc>Created with Sketch.</desc>
<path id="path14" class="st1" d="M2351.3,786.7H120.8c-49,0-89.2-40-89.2-88.7V165.5c0-48.8,40.2-88.7,89.2-88.7h2230.5
	c49,0,89.2,40,89.2,88.7V698C2440.5,746.8,2400.3,786.7,2351.3,786.7z"/>
<path id="path16" class="st1" d="M2351.3,91c41.3,0,74.9,33.4,74.9,74.5V698c0,41.1-33.6,74.5-74.9,74.5H120.8
	c-41.3,0-74.9-33.4-74.9-74.5V165.5c0-41.1,33.6-74.5,74.9-74.5H2351.3L2351.3,91z M2351.3,76.8H120.8c-49,0-89.2,40-89.2,88.7V698
	c0,48.8,40.2,88.7,89.2,88.7h2230.5c49,0,89.2-40,89.2-88.7V165.5C2440.5,116.7,2400.3,76.8,2351.3,76.8z"/>
<path id="path20" class="st2" d="M877.7,258.6c0,14.8-4.5,26.7-13.2,35.5c-10.1,10.5-23.3,15.8-39.4,15.8c-15.4,0-28.6-5.4-39.4-16
	c-10.8-10.7-16.2-23.9-16.2-39.7s5.4-29,16.2-39.6c10.8-10.7,24-16,39.4-16c7.7,0,15,1.6,22,4.5c7,3,12.6,6.9,16.7,11.9l-9.3,9.4
	c-7.2-8.4-16.9-12.6-29.4-12.6c-11.2,0-21,3.9-29.3,11.8c-8.2,7.9-12.3,18.1-12.3,30.7c0,12.6,4.1,22.9,12.3,30.8
	c8.3,7.8,18,11.8,29.3,11.8c11.9,0,22-4,29.9-11.9c5.2-5.2,8.2-12.4,9-21.6H825v-12.8h51.8C877.5,253.3,877.7,256,877.7,258.6
	L877.7,258.6z"/>
<polygon id="path24" class="st2" points="959.9,214.1 911.2,214.1 911.2,247.9 955.1,247.9 955.1,260.7 911.2,260.7 911.2,294.4 
	959.9,294.4 959.9,307.5 897.4,307.5 897.4,201.1 959.9,201.1 "/>
<polygon id="path28" class="st2" points="1018,307.5 1004.2,307.5 1004.2,214.1 974.3,214.1 974.3,201.1 1047.8,201.1 1047.8,214.1 
	1018,214.1 "/>
<polygon id="path32" class="st2" points="1101.1,307.5 1101.1,201.1 1114.8,201.1 1114.8,307.5 "/>
<polygon id="path36" class="st2" points="1175.8,307.5 1162.2,307.5 1162.2,214.1 1132.2,214.1 1132.2,201.1 1205.8,201.1 
	1205.8,214.1 1175.8,214.1 "/>
<path id="path40" class="st2" d="M1345,293.8c-10.6,10.8-23.6,16.1-39.2,16.1c-15.7,0-28.8-5.4-39.3-16.1
	c-10.5-10.7-15.8-23.9-15.8-39.5s5.2-28.8,15.8-39.5c10.6-10.8,23.6-16.1,39.3-16.1c15.5,0,28.6,5.4,39.1,16.2
	c10.6,10.8,15.9,23.9,15.9,39.4C1360.8,269.9,1355.6,283,1345,293.8z M1276.7,284.9c7.9,8,17.6,12,29.1,12c11.4,0,21.2-4,29-12
	c7.9-8,11.9-18.2,11.9-30.6s-4-22.6-11.9-30.6c-7.9-8-17.6-12-29-12c-11.5,0-21.2,4-29.1,12c-7.9,8-11.9,18.2-11.9,30.6
	S1268.8,276.9,1276.7,284.9L1276.7,284.9z"/>
<polygon id="path44" class="st2" points="1380.1,307.5 1380.1,201.1 1396.9,201.1 1448.9,283.8 1449.5,283.8 1448.9,263.4 
	1448.9,201.1 1462.6,201.1 1462.6,307.5 1448.3,307.5 1393.8,220.6 1393.2,220.6 1393.8,241.2 1393.8,307.5 "/>
<path id="path46" d="M1247.4,462.9c-41.9,0-76.1,31.7-76.1,75.5c0,43.4,34.2,75.5,76.1,75.5c42,0,76.2-32.1,76.2-75.5
	C1323.6,494.6,1289.4,462.9,1247.4,462.9z M1247.4,584.1c-23,0-42.8-18.9-42.8-45.7c0-27.2,19.8-45.8,42.8-45.8
	c23,0,42.9,18.5,42.9,45.8C1290.2,565.2,1270.4,584.1,1247.4,584.1L1247.4,584.1z M1081.2,462.9c-42,0-76.1,31.7-76.1,75.5
	c0,43.4,34.1,75.5,76.1,75.5c42,0,76.1-32.1,76.1-75.5C1157.4,494.6,1123.2,462.9,1081.2,462.9z M1081.2,584.1
	c-23,0-42.9-18.9-42.9-45.7c0-27.2,19.9-45.8,42.9-45.8c23,0,42.8,18.5,42.8,45.8C1124,565.2,1104.2,584.1,1081.2,584.1z M883.5,486
	v32.1h77c-2.3,17.9-8.3,31.1-17.5,40.3c-11.2,11.1-28.8,23.4-59.5,23.4c-47.4,0-84.5-38-84.5-85.2s37.1-85.2,84.5-85.2
	c25.6,0,44.3,10,58,22.9l22.7-22.6c-19.2-18.3-44.9-32.3-80.8-32.3c-65,0-119.6,52.6-119.6,117.3s54.6,117.3,119.6,117.3
	c35.1,0,61.5-11.4,82.3-32.9c21.3-21.1,27.9-50.9,27.9-74.9c0-7.5-0.6-14.3-1.7-20H883.5z M1692,510.9c-6.3-16.9-25.6-48-65-48
	c-39,0-71.5,30.6-71.5,75.5c0,42.3,32.2,75.5,75.3,75.5c34.9,0,55-21.1,63.3-33.5l-25.9-17.2c-8.6,12.6-20.4,20.9-37.4,20.9
	c-16.9,0-29-7.7-36.8-22.9l101.5-41.8L1692,510.9L1692,510.9z M1588.5,536c-0.9-29.1,22.7-44,39.6-44c13.2,0,24.5,6.6,28.2,16
	L1588.5,536L1588.5,536z M1506,609.2h33.4V387.4H1506V609.2z M1451.3,479.7h-1.1c-7.5-8.8-21.8-16.8-39.9-16.8
	c-38,0-72.8,33.2-72.8,75.7c0,42.3,34.8,75.2,72.8,75.2c18.1,0,32.4-8.1,39.9-17.2h1.1v10.8c0,28.9-15.5,44.4-40.5,44.4
	c-20.4,0-33-14.6-38.3-27l-29,12c8.4,20,30.5,44.6,67.3,44.6c39.1,0,72.1-22.9,72.1-78.6V467.5h-31.6V479.7L1451.3,479.7z
	 M1413.1,584.1c-23,0-42.2-19.1-42.2-45.5c0-26.6,19.2-46,42.2-46c22.7,0,40.5,19.4,40.5,46C1453.7,565,1435.8,584.1,1413.1,584.1
	L1413.1,584.1z M1848.2,387.4h-79.8v221.9h33.3v-84.1h46.5c37,0,73.2-26.6,73.2-68.9C1921.4,414,1885.1,387.4,1848.2,387.4
	L1848.2,387.4z M1849.1,494.3h-47.4v-76.1h47.4c24.8,0,39,20.5,39,38C1888.1,473.4,1873.9,494.3,1849.1,494.3z M2054.8,462.4
	c-24,0-49,10.6-59.3,34l29.5,12.3c6.4-12.3,18-16.3,30.4-16.3c17.3,0,34.8,10.3,35,28.5v2.3c-6-3.5-18.9-8.6-34.8-8.6
	c-31.8,0-64.2,17.4-64.2,49.9c0,29.7,26.1,48.9,55.3,48.9c22.4,0,34.8-10.1,42.5-21.7h1.1v17.2h32.1v-85.1
	C2122.6,484.4,2093,462.4,2054.8,462.4z M2050.8,584c-10.9,0-26.1-5.4-26.1-18.8c0-17.2,18.9-23.8,35.3-23.8
	c14.7,0,21.5,3.2,30.4,7.5C2087.8,569.5,2070,584,2050.8,584L2050.8,584z M2239.7,467.3l-38.3,96.2h-1.1l-39.5-96.2h-35.9
	l59.4,134.4l-33.9,74.8h34.8l91.6-209.2H2239.7L2239.7,467.3z M1939.7,609.2h33.4V387.4h-33.4V609.2z"/>
<linearGradient id="path64_1_" gradientUnits="userSpaceOnUse" x1="834.8542" y1="897.9042" x2="828.569" y2="894.6626" gradientTransform="matrix(47.6459 0 0 91.8899 -39356.8164 -81876.1875)">
	<stop  offset="0" style="stop-color:#00A0FF"/>
	<stop  offset="6.599999e-03" style="stop-color:#00A1FF"/>
	<stop  offset="0.2601" style="stop-color:#00BEFF"/>
	<stop  offset="0.5122" style="stop-color:#00D2FF"/>
	<stop  offset="0.7604" style="stop-color:#00DFFF"/>
	<stop  offset="1" style="stop-color:#00E3FF"/>
</linearGradient>
<path id="path64" class="st3" d="M217.8,210.6c-5.2,5.5-8.3,14-8.3,25v392.5c0,11,3,19.5,8.3,25l1.3,1.2l221.1-219.9v-5.2
	L219.1,209.3L217.8,210.6z"/>
<linearGradient id="path78_1_" gradientUnits="userSpaceOnUse" x1="836.6799" y1="902.1566" x2="825.1523" y2="902.1566" gradientTransform="matrix(37.455 0 0 31.3601 -30702.5156 -27859.9316)">
	<stop  offset="0" style="stop-color:#FFE000"/>
	<stop  offset="0.4087" style="stop-color:#FFBD00"/>
	<stop  offset="0.7754" style="stop-color:#FFA500"/>
	<stop  offset="1" style="stop-color:#FF9C00"/>
</linearGradient>
<path id="path78" class="st4" d="M513.8,507.7l-73.6-73.3v-5.2l73.7-73.3l1.7,1l87.3,49.4c24.9,14,24.9,37.1,0,51.2l-87.3,49.3
	L513.8,507.7L513.8,507.7z"/>
<linearGradient id="path88_1_" gradientUnits="userSpaceOnUse" x1="834.8499" y1="899.8627" x2="828.247" y2="891.2957" gradientTransform="matrix(61.5025 0 0 47.1503 -51057.5898 -41927.4414)">
	<stop  offset="0" style="stop-color:#FF3A44"/>
	<stop  offset="1" style="stop-color:#C31162"/>
</linearGradient>
<path id="path88" class="st5" d="M515.6,506.7l-75.4-75L217.8,653c8.3,8.7,21.8,9.7,37.1,1L515.6,506.7"/>
<linearGradient id="path104_1_" gradientUnits="userSpaceOnUse" x1="829.764" y1="904.5125" x2="832.7125" y2="900.6857" gradientTransform="matrix(61.5025 0 0 47.1348 -51057.5898 -41960.6719)">
	<stop  offset="0" style="stop-color:#32A071"/>
	<stop  offset="6.850000e-02" style="stop-color:#2DA771"/>
	<stop  offset="0.4762" style="stop-color:#15CF74"/>
	<stop  offset="0.8009" style="stop-color:#06E775"/>
	<stop  offset="1" style="stop-color:#00F076"/>
</linearGradient>
<path id="path104" class="st6" d="M515.6,356.8L254.9,209.4c-15.3-8.6-28.8-7.5-37.1,1.1l222.4,221.2L515.6,356.8z"/>
</svg>
