<?xml version="1.0" encoding="utf-8"?>
<!-- Generator: Adobe Illustrator 21.1.0, SVG Export Plug-In . SVG Version: 6.00 Build 0)  -->
<svg version="1.1" id="Layer_2" xmlns="http://www.w3.org/2000/svg" xmlns:xlink="http://www.w3.org/1999/xlink" x="0px" y="0px"
	 viewBox="0 0 128 128" style="enable-background:new 0 0 128 128;" xml:space="preserve">
<style type="text/css">
	.st0{fill:#FFFFFF;}
</style>
<g>
	<path class="st0" d="M65.2,125c-2.6,0-5.2-0.7-7.5-2c-7.3-4.1-9.9-13.4-5.8-20.8c2-3.5,5.3-6.1,9.2-7.2c3.9-1.1,8-0.6,11.6,1.4
		c1.9,1.1,2.6,3.5,1.5,5.4c-1.1,1.9-3.5,2.6-5.4,1.5c-3.5-2-7.9-0.7-9.9,2.7c-0.9,1.7-1.2,3.6-0.7,5.5c0.5,1.9,1.7,3.4,3.4,4.4
		c2.4,1.3,5.2,1.2,7.5-0.2c1.9-1.2,4.3-0.7,5.5,1.2c1.2,1.9,0.7,4.3-1.2,5.5C71,124.2,68.1,125,65.2,125z"/>
</g>
<g>
	<path class="st0" d="M29.9,48.4c-2.2,0-4-1.8-4-4v-4.7c0-3.3,0.4-6.6,1.3-9.8C30.3,18,38.9,8.3,50.4,3.8C52.4,3,54.7,4,55.6,6
		c0.8,2.1-0.2,4.4-2.3,5.2c-9.1,3.6-15.9,11.3-18.4,20.7c-0.7,2.5-1,5.1-1,7.8v4.7C33.9,46.6,32.1,48.4,29.9,48.4z"/>
</g>
<g>
	<path class="st0" d="M65.9,87.6c-1.1,0-2.1-0.4-2.9-1.3c-1.5-1.6-1.4-4.1,0.2-5.7l23.2-21.8c5.4-5.1,8.5-12,8.6-18.9
		c0-0.5,0-0.9,0-1.4C94.6,26.4,86.5,15.3,74.9,11c-2.1-0.8-3.1-3.1-2.4-5.1c0.8-2.1,3.1-3.1,5.1-2.4c14.6,5.4,24.8,19.4,25.3,34.8
		c0,0.6,0,1.1,0,1.7c-0.1,9.1-4.1,18.1-11.1,24.7L68.7,86.5C67.9,87.2,66.9,87.6,65.9,87.6z"/>
</g>
</svg>
