<?xml version="1.0" encoding="utf-8"?>
<!-- Generator: Adobe Illustrator 21.1.0, SVG Export Plug-In . SVG Version: 6.00 Build 0)  -->
<svg version="1.1" id="Layer_2" xmlns="http://www.w3.org/2000/svg" xmlns:xlink="http://www.w3.org/1999/xlink" x="0px" y="0px"
	 viewBox="0 0 128 128" style="enable-background:new 0 0 128 128;" xml:space="preserve">
<style type="text/css">
	.st0{fill:#FFFFFF;}
</style>
<g>
	<path class="st0" d="M117.7,123.3H8.7c-2.2,0-4-1.8-4-4s1.8-4,4-4h105V56.1L64,11.7L12.7,56.2v38.2c0,2.2-1.8,4-4,4s-4-1.8-4-4v-40
		c0-1.2,0.5-2.3,1.4-3l55.3-48c1.5-1.3,3.8-1.3,5.3,0l53.7,48c0.8,0.8,1.3,1.8,1.3,3v65C121.7,121.5,119.9,123.3,117.7,123.3z"/>
</g>
</svg>
