<?xml version="1.0" encoding="utf-8"?>
<!-- Generator: Adobe Illustrator 21.1.0, SVG Export Plug-In . SVG Version: 6.00 Build 0)  -->
<svg version="1.1" id="Layer_2" xmlns="http://www.w3.org/2000/svg" xmlns:xlink="http://www.w3.org/1999/xlink" x="0px" y="0px"
	 viewBox="0 0 128 128" style="enable-background:new 0 0 128 128;" xml:space="preserve">
<style type="text/css">
	.st0{fill:#FFFFFF;}
</style>
<g>
	<path class="st0" d="M64,87.1c-7.5,0-14.5-3.6-18.9-9.7c-1.3-1.8-0.9-4.3,0.9-5.6c1.8-1.3,4.3-0.9,5.6,0.9c2.8,4,7.5,6.4,12.3,6.4
		c8.3,0,15.1-6.8,15.1-15.1S72.3,48.9,64,48.9c-5.2,0-10,2.6-12.8,7c-1.2,1.9-3.7,2.4-5.5,1.2s-2.4-3.7-1.2-5.5
		c4.3-6.7,11.6-10.7,19.5-10.7c12.8,0,23.1,10.4,23.1,23.1S76.8,87.1,64,87.1z"/>
</g>
<g>
	<path class="st0" d="M122.8,68H99.4c-2.2,0-4-1.8-4-4s1.8-4,4-4h23.5c2.2,0,4,1.8,4,4S125,68,122.8,68z"/>
</g>
<g>
	<path class="st0" d="M28.6,68H5.2c-2.2,0-4-1.8-4-4s1.8-4,4-4h23.5c2.2,0,4,1.8,4,4S30.8,68,28.6,68z"/>
</g>
<g>
	<path class="st0" d="M105.6,109.6c-1,0-2-0.4-2.8-1.2L86.2,91.8c-1.6-1.6-1.6-4.1,0-5.7c1.6-1.6,4.1-1.6,5.7,0l16.6,16.6
		c1.6,1.6,1.6,4.1,0,5.7C107.6,109.2,106.6,109.6,105.6,109.6z"/>
</g>
<g>
	<path class="st0" d="M39,43c-1,0-2-0.4-2.8-1.2L19.6,25.2c-1.6-1.6-1.6-4.1,0-5.7c1.6-1.6,4.1-1.6,5.7,0l16.6,16.6
		c1.6,1.6,1.6,4.1,0,5.7C41,42.6,40,43,39,43z"/>
</g>
<g>
	<path class="st0" d="M64,126.8c-2.2,0-4-1.8-4-4V99.4c0-2.2,1.8-4,4-4s4,1.8,4,4v23.5C68,125,66.2,126.8,64,126.8z"/>
</g>
<g>
	<path class="st0" d="M64,32.6c-2.2,0-4-1.8-4-4V5.2c0-2.2,1.8-4,4-4s4,1.8,4,4v23.5C68,30.8,66.2,32.6,64,32.6z"/>
</g>
<g>
	<path class="st0" d="M22.4,109.6c-1,0-2-0.4-2.8-1.2c-1.6-1.6-1.6-4.1,0-5.7l16.6-16.6c1.6-1.6,4.1-1.6,5.7,0
		c1.6,1.6,1.6,4.1,0,5.7l-16.6,16.6C24.4,109.2,23.4,109.6,22.4,109.6z"/>
</g>
<g>
	<path class="st0" d="M89,43c-1,0-2-0.4-2.8-1.2c-1.6-1.6-1.6-4.1,0-5.7l16.6-16.6c1.6-1.6,4.1-1.6,5.7,0c1.6,1.6,1.6,4.1,0,5.7
		L91.8,41.8C91.1,42.6,90,43,89,43z"/>
</g>
</svg>
