<?xml version="1.0" encoding="utf-8"?>
<!-- Generator: Adobe Illustrator 21.0.2, SVG Export Plug-In . SVG Version: 6.00 Build 0)  -->
<svg version="1.1" xmlns="http://www.w3.org/2000/svg" xmlns:xlink="http://www.w3.org/1999/xlink" x="0px" y="0px"
	 viewBox="0 0 128 128" style="enable-background:new 0 0 128 128;" xml:space="preserve">
<style type="text/css">
	.st0{fill:#FFFFFF;}
</style>
<g id="Podlojki">
</g>
<g id="Layer_2">
	<g>
		<path class="st0" d="M35.7,38.3c-0.7,0-1.5-0.2-2.1-0.6c-1.9-1.2-2.4-3.6-1.3-5.5L50.4,3.2c1.2-1.9,3.6-2.4,5.5-1.3
			c1.9,1.2,2.4,3.6,1.3,5.5L39.1,36.5C38.3,37.7,37,38.3,35.7,38.3z"/>
	</g>
	<g>
		<path class="st0" d="M53.8,107.8c-2.2,0-4-1.8-4-4V5.3c0-2.2,1.8-4,4-4s4,1.8,4,4v98.6C57.8,106,56,107.8,53.8,107.8z"/>
	</g>
	<g>
		<path class="st0" d="M73.7,126.7c-2.2,0-4-1.8-4-4V34.3c0-2.2,1.8-4,4-4s4,1.8,4,4v88.4C77.7,124.9,75.9,126.7,73.7,126.7z"/>
	</g>
	<g>
		<path class="st0" d="M73.7,126.7c-0.7,0-1.5-0.2-2.2-0.6c-1.9-1.2-2.4-3.7-1.2-5.5L88.6,92c1.2-1.9,3.7-2.4,5.5-1.2
			c1.9,1.2,2.4,3.7,1.2,5.5L77,124.9C76.3,126.1,75,126.7,73.7,126.7z"/>
	</g>
</g>
</svg>
