<?xml version="1.0" encoding="utf-8"?>
<!-- Generator: Adobe Illustrator 21.1.0, SVG Export Plug-In . SVG Version: 6.00 Build 0)  -->
<svg version="1.1" id="Layer_2" xmlns="http://www.w3.org/2000/svg" xmlns:xlink="http://www.w3.org/1999/xlink" x="0px" y="0px"
	 viewBox="0 0 128 128" style="enable-background:new 0 0 128 128;" xml:space="preserve">
<style type="text/css">
	.st0{fill:#FFFFFF;}
</style>
<g>
	<path class="st0" d="M64,106c-2.2,0-4-1.8-4-4V57.7c0-2.2,1.8-4,4-4s4,1.8,4,4V102C68,104.2,66.2,106,64,106z"/>
</g>
<g>
	<path class="st0" d="M63.3,46.1c-3.6,0-7.1-1.7-9.3-4.7c-1.3-1.8-0.9-4.3,0.9-5.6c1.8-1.3,4.3-0.9,5.6,0.9c0.7,0.9,1.7,1.4,2.8,1.4
		c0.9,0,1.8-0.4,2.4-1c0.7-0.7,1-1.5,1-2.5c0-0.9-0.4-1.8-1-2.4c-0.7-0.7-1.5-1-2.5-1c-1,0-1.9,0.4-2.6,1.2c-1.5,1.6-4,1.8-5.6,0.3
		c-1.6-1.5-1.8-4-0.3-5.6c2.2-2.4,5.2-3.8,8.4-3.8c0,0,0.1,0,0.1,0c3,0,5.9,1.2,8,3.3c2.2,2.1,3.4,5,3.4,8.1c0,3.1-1.1,6-3.3,8.1
		S66.5,46.1,63.3,46.1C63.4,46.1,63.3,46.1,63.3,46.1z"/>
</g>
<g>
	<path class="st0" d="M52.5,124.9c-0.3,0-0.5,0-0.8-0.1C22.8,119.1,1.9,93.5,1.9,64c0-29.7,21.1-55.4,50.3-61c2.2-0.4,4.3,1,4.7,3.2
		s-1,4.3-3.2,4.7C28.3,15.8,9.9,38.1,9.9,64c0,25.7,18.2,48,43.4,53c2.2,0.4,3.6,2.5,3.1,4.7C56,123.6,54.3,124.9,52.5,124.9z"/>
</g>
<g>
	<path class="st0" d="M75.9,124.9c-1.9,0-3.5-1.3-3.9-3.2c-0.5-2.2,0.9-4.3,3.1-4.7c2-0.4,4.1-1,6-1.6c22.1-7.4,36.9-28,36.9-51.3
		c0-26.4-18.8-48.8-44.8-53.3c-2.2-0.4-3.6-2.4-3.3-4.6c0.4-2.2,2.5-3.6,4.6-3.3C104.5,8,126.1,33.7,126.1,64
		c0,26.8-17,50.4-42.4,58.9c-2.3,0.8-4.6,1.4-6.9,1.9C76.5,124.8,76.2,124.9,75.9,124.9z"/>
</g>
</svg>
