<?xml version="1.0" encoding="utf-8"?>
<!-- Generator: Adobe Illustrator 21.1.0, SVG Export Plug-In . SVG Version: 6.00 Build 0)  -->
<svg version="1.1" id="Layer_2" xmlns="http://www.w3.org/2000/svg" xmlns:xlink="http://www.w3.org/1999/xlink" x="0px" y="0px"
	 viewBox="0 0 128 128" style="enable-background:new 0 0 128 128;" xml:space="preserve">
<style type="text/css">
	.st0{fill:#FFFFFF;}
</style>
<g>
	<path class="st0" d="M64,126.1c-0.7,0-1.4-0.2-2-0.5c-1.9-1.1-2.6-3.6-1.4-5.5L94.5,62c3-5.3,4.6-11.3,4.6-17.5
		C99.1,25.2,83.4,9.5,64,9.5S28.9,25.2,28.9,44.6c0,6.2,1.6,12.2,4.7,17.5l19,32.6c1.1,1.9,0.5,4.4-1.4,5.5
		c-1.9,1.1-4.4,0.5-5.5-1.4l-19-32.6c-3.8-6.5-5.8-14-5.8-21.5C20.9,20.8,40.2,1.5,64,1.5s43.1,19.3,43.1,43.1c0,7.5-2,15-5.7,21.5
		l-33.9,58.1C66.7,125.4,65.4,126.1,64,126.1z"/>
</g>
</svg>
