<?xml version="1.0" encoding="utf-8"?>
<!-- Generator: Adobe Illustrator 21.1.0, SVG Export Plug-In . SVG Version: 6.00 Build 0)  -->
<svg version="1.1" id="Layer_1" xmlns="http://www.w3.org/2000/svg" xmlns:xlink="http://www.w3.org/1999/xlink" x="0px" y="0px"
	 viewBox="0 0 62.2 122.7" style="enable-background:new 0 0 62.2 122.7;" xml:space="preserve">
<style type="text/css">
	.st0{fill:#FF0000;}
</style>
<g id="Dots_1_">
	<path d="M32,1.7C15.3,1.7,1.8,15.2,1.8,31.9S32,122.7,32,122.7s30.2-74,30.2-90.8C62.2,15.3,48.7,1.7,32,1.7z M32,47.1
		c-8.4,0-15.1-6.8-15.1-15.1S23.6,16.8,32,16.8s15.1,6.8,15.1,15.1S40.3,47.1,32,47.1z"/>
</g>
<g id="Dots">
	<path class="st0" d="M30.2,0C13.5,0,0,13.5,0,30.2S30.2,121,30.2,121s30.2-74,30.2-90.8C60.5,13.5,46.9,0,30.2,0z M30.2,45.3
		c-8.4,0-15.1-6.8-15.1-15.1s6.8-15.1,15.1-15.1s15.1,6.8,15.1,15.1S38.6,45.3,30.2,45.3z"/>
</g>
</svg>
