<?xml version="1.0" encoding="utf-8"?>
<!-- Generator: Adobe Illustrator 21.1.0, SVG Export Plug-In . SVG Version: 6.00 Build 0)  -->
<svg version="1.1" xmlns="http://www.w3.org/2000/svg" xmlns:xlink="http://www.w3.org/1999/xlink" x="0px" y="0px"
	 viewBox="0 0 128 128" style="enable-background:new 0 0 128 128;" xml:space="preserve">
<style type="text/css">
	.st0{fill:#FFFFFF;}
</style>
<g id="Podlojki">
</g>
<g id="Layer_2">
	<g>
		<path class="st0" d="M63.8,126.3c-0.7,0-1.4-0.2-2-0.5c-1.9-1.1-2.6-3.6-1.4-5.5l33.9-58.1c3-5.3,4.6-11.3,4.6-17.5
			c0-19.4-15.7-35.1-35.1-35.1c-19.4,0-35.1,15.7-35.1,35.1c0,6.2,1.6,12.2,4.7,17.5l19,32.6c1.1,1.9,0.5,4.4-1.4,5.5
			c-1.9,1.1-4.4,0.5-5.5-1.4l-19-32.6c-3.8-6.5-5.8-14-5.8-21.5C20.7,20.9,40,1.6,63.8,1.6c23.8,0,43.1,19.3,43.1,43.1
			c0,7.5-2,15-5.7,21.5l-33.9,58.1C66.5,125.5,65.2,126.3,63.8,126.3z"/>
	</g>
</g>
</svg>
