<?xml version="1.0" encoding="utf-8"?>
<!-- Generator: Adobe Illustrator 21.1.0, SVG Export Plug-In . SVG Version: 6.00 Build 0)  -->
<svg version="1.1" id="Слой_2" xmlns="http://www.w3.org/2000/svg" xmlns:xlink="http://www.w3.org/1999/xlink" x="0px" y="0px"
	 viewBox="0 0 423 422" style="enable-background:new 0 0 423 422;" xml:space="preserve">
<style type="text/css">
	.st0{fill:#FF0000;}
	.st1{fill:url(#SVGID_1_);}
	.st2{fill:#FFFFFF;}
</style>
<g>
	<path class="st0" d="M212.1,0.7C96.1,0.7,1.7,95.1,1.7,211.1v210.3h210.3c116,0,210.3-94.4,210.3-210.3S328.1,0.7,212.1,0.7z"/>
	<linearGradient id="SVGID_1_" gradientUnits="userSpaceOnUse" x1="216.4521" y1="225.7928" x2="411.0027" y2="468.8018">
		<stop  offset="0" style="stop-color:#960000"/>
		<stop  offset="1" style="stop-color:#FF0000"/>
	</linearGradient>
	<path class="st1" d="M422.4,211.1c0-0.5,0-0.9,0-1.4L384.8,164l-87.5,0l-9.3,12.3l-23.2-20.7l-99.4,12l-0.8,16.8l-25-21.5
		l-18.1,5.7H33.3l53.5,48.8l-53.5,2l67.2,50.8H33.3l195.3,150.4C336.9,412.3,422.4,321.5,422.4,211.1z"/>
	<g>
		<g>
			<path class="st2" d="M147.8,193.2v-11.2c0-14.5-11.8-26.3-26.3-26.3H33.3v13h88.2c7.4,0,13.3,6,13.3,13.3v11.2
				c0,7.4-6,13.3-13.3,13.3H33.3v13h88.2c7.4,0,13.3,6,13.3,13.3v11.2c0,7.4-6,13.3-13.3,13.3H33.3v13h88.2
				c14.5,0,26.3-11.8,26.3-26.3v-11.2c0-7.9-3.5-15-9-19.8C144.3,208.2,147.8,201.1,147.8,193.2z"/>
		</g>
		<g>
			<g>
				<path class="st2" d="M244.2,270.4H182c-14.5,0-26.3-11.8-26.3-26.3v-62c0-14.5,11.8-26.3,26.3-26.3h82.8v13H182
					c-7.4,0-13.3,6-13.3,13.3v24.5h75.5c14.5,0,26.3,11.8,26.3,26.3v11.2C270.5,258.6,258.7,270.4,244.2,270.4z M168.7,219.6v24.5
					c0,7.4,6,13.3,13.3,13.3h62.1c7.4,0,13.3-6,13.3-13.3v-11.2c0-7.4-6-13.3-13.3-13.3H168.7z"/>
			</g>
		</g>
		<g>
			<g>
				<path class="st2" d="M365.5,270.4h-61.8c-14.6,0-26.4-11.9-26.4-26.4v-61.8c0-14.6,11.9-26.4,26.4-26.4h61.8
					c14.6,0,26.4,11.9,26.4,26.4V244C391.9,258.5,380.1,270.4,365.5,270.4z M303.7,168.7c-7.4,0-13.4,6-13.4,13.4V244
					c0,7.4,6,13.4,13.4,13.4h61.8c7.4,0,13.4-6,13.4-13.4v-61.8c0-7.4-6-13.4-13.4-13.4H303.7z"/>
			</g>
		</g>
	</g>
</g>
</svg>
