<?xml version="1.0" encoding="utf-8"?>
<!-- Generator: Adobe Illustrator 22.0.1, SVG Export Plug-In . SVG Version: 6.00 Build 0)  -->
<svg version="1.1" id="Layer_3" xmlns="http://www.w3.org/2000/svg" xmlns:xlink="http://www.w3.org/1999/xlink" x="0px" y="0px"
	 viewBox="0 0 1172.2 421.7" style="enable-background:new 0 0 1172.2 421.7;" xml:space="preserve">
<style type="text/css">
	.st0{fill:#FF0000;}
	.st1{fill:url(#SVGID_1_);}
	.st2{fill:#FFFFFF;}
	.st3{fill:#FF0600;}
</style>
<g>
	<g>
		<path class="st0" d="M959.3,2c-116,0-210.3,94.4-210.3,210.3v210.3h210.3c116,0,210.3-94.4,210.3-210.3S1075.3,2,959.3,2z"/>
		<linearGradient id="SVGID_1_" gradientUnits="userSpaceOnUse" x1="963.6555" y1="227.0746" x2="1158.2061" y2="470.0835">
			<stop  offset="0" style="stop-color:#960000"/>
			<stop  offset="1" style="stop-color:#FF0000"/>
		</linearGradient>
		<path class="st1" d="M1169.6,212.3c0-0.5,0-0.9,0-1.4l-37.6-45.6l-87.5,0l-9.3,12.3L1012,157l-99.4,12l-0.8,16.8l-25-21.5
			l-18.1,5.7h-88.2l53.5,48.8l-53.5,2l67.2,50.8h-67.2L975.8,422C1084.1,413.6,1169.6,322.8,1169.6,212.3z"/>
		<g>
			<g>
				<path class="st2" d="M895,194.5v-11.2c0-14.5-11.8-26.3-26.3-26.3h-88.2v13h88.2c7.4,0,13.3,6,13.3,13.3v11.2
					c0,7.4-6,13.3-13.3,13.3h-88.2v13h88.2c7.4,0,13.3,6,13.3,13.3v11.2c0,7.4-6,13.3-13.3,13.3h-88.2v13h88.2
					c14.5,0,26.3-11.8,26.3-26.3v-11.2c0-7.9-3.5-15-9-19.8C891.5,209.5,895,202.4,895,194.5z"/>
			</g>
			<g>
				<g>
					<path class="st2" d="M991.4,271.7h-62.1c-14.5,0-26.3-11.8-26.3-26.3v-62c0-14.5,11.8-26.3,26.3-26.3h82.8v13h-82.8
						c-7.4,0-13.3,6-13.3,13.3v24.5h75.5c14.5,0,26.3,11.8,26.3,26.3v11.2C1017.7,259.9,1005.9,271.7,991.4,271.7z M915.9,220.8
						v24.5c0,7.4,6,13.3,13.3,13.3h62.1c7.4,0,13.3-6,13.3-13.3v-11.2c0-7.4-6-13.3-13.3-13.3H915.9z"/>
				</g>
			</g>
			<g>
				<g>
					<path class="st2" d="M1112.7,271.7h-61.8c-14.6,0-26.4-11.9-26.4-26.4v-61.8c0-14.6,11.9-26.4,26.4-26.4h61.8
						c14.6,0,26.4,11.9,26.4,26.4v61.8C1139.1,259.8,1127.3,271.7,1112.7,271.7z M1050.9,170c-7.4,0-13.4,6-13.4,13.4v61.8
						c0,7.4,6,13.4,13.4,13.4h61.8c7.4,0,13.4-6,13.4-13.4v-61.8c0-7.4-6-13.4-13.4-13.4H1050.9z"/>
				</g>
			</g>
		</g>
	</g>
	<g>
		<path class="st2" d="M698.5,157.1h-68c-14.6,0-26.5,11.9-26.5,26.5v88h13v-50.8h95v50.8h13v-88C725,169,713.1,157.1,698.5,157.1z
			 M617,207.8v-24.2c0-7.4,6.1-13.5,13.5-13.5h68c7.4,0,13.5,6.1,13.5,13.5v24.2H617z"/>
		<g>
			<path class="st2" d="M-0.6,245.1v-61.5c0-14.6,11.9-26.5,26.5-26.5h88.1v13H25.9c-7.4,0-13.5,6.1-13.5,13.5v61.5
				c0,7.4,6.1,13.5,13.5,13.5l88.1,0v13l-88.1,0C11.3,271.6-0.6,259.7-0.6,245.1z"/>
		</g>
		<path class="st2" d="M259,194.5v-11.2c0-14.5-11.8-26.3-26.3-26.3H151h-6.5H138v114.6h13v-50.8h44.9l54.1,50.7l8.9-9.5l-44-41.2
			h17.7C247.2,220.8,259,209,259,194.5z M151,170h81.7c7.4,0,13.3,6,13.3,13.3v11.2c0,7.4-6,13.3-13.3,13.3H151V170z"/>
		<g>
			<rect x="282.9" y="185.9" class="st2" width="13" height="85.8"/>
		</g>
		<circle class="st3" cx="289.4" cy="165.2" r="9.8"/>
		<g>
			<path class="st2" d="M441.5,271.6h-13v-82.1l-42,78.4c-1.1,2.1-3.3,3.4-5.7,3.4c0,0,0,0,0,0c-2.4,0-4.6-1.3-5.7-3.4l-42-78.5
				v82.2h-13V163.5c0-3,2-5.6,4.9-6.3c2.9-0.7,5.9,0.6,7.3,3.2l48.5,90.6l48.5-90.6c1.4-2.6,4.4-4,7.3-3.2c2.9,0.7,4.9,3.3,4.9,6.3
				V271.6z"/>
		</g>
		<path class="st2" d="M491.9,170.1H580v-13h-88.1c-14.6,0-26.5,11.9-26.5,26.5v24.2h0v13h0v24.3c0,14.6,11.9,26.5,26.5,26.5l88.1,0
			v-13l-88.1,0c-7.4,0-13.5-6.1-13.5-13.5v-24.3h99.9v-13h-99.9v-24.2C478.4,176.2,484.5,170.1,491.9,170.1z"/>
	</g>
</g>
</svg>
