<?xml version="1.0" encoding="utf-8"?>
<!-- Generator: Adobe Illustrator 21.1.0, SVG Export Plug-In . SVG Version: 6.00 Build 0)  -->
<svg version="1.1" id="Layer_3" xmlns="http://www.w3.org/2000/svg" xmlns:xlink="http://www.w3.org/1999/xlink" x="0px" y="0px"
	 viewBox="0 0 837 420.7" style="enable-background:new 0 0 837 420.7;" xml:space="preserve">
<style type="text/css">
	.st0{fill:#FF0000;}
	.st1{fill:url(#SVGID_1_);}
	.st2{fill:#FFFFFF;}
</style>
<g>
	<path class="st0" d="M627.2,0c-116,0-210.3,94.4-210.3,210.3v210.3h210.3c116,0,210.3-94.4,210.3-210.3S743.2,0,627.2,0z"/>
	<linearGradient id="SVGID_1_" gradientUnits="userSpaceOnUse" x1="631.5684" y1="225.0746" x2="826.119" y2="468.0835">
		<stop  offset="0" style="stop-color:#960000"/>
		<stop  offset="1" style="stop-color:#FF0000"/>
	</linearGradient>
	<path class="st1" d="M837.5,210.3c0-0.5,0-0.9,0-1.4l-37.6-45.6l-87.5,0l-9.3,12.3L679.9,155l-99.4,12l-0.8,16.8l-25-21.5
		l-18.1,5.7h-88.2l53.5,48.8l-53.5,2l67.2,50.8h-67.2L643.7,420C752,411.6,837.5,320.8,837.5,210.3z"/>
	<g>
		<g>
			<path class="st2" d="M562.9,192.5v-11.2c0-14.5-11.8-26.3-26.3-26.3h-88.2v13h88.2c7.4,0,13.3,6,13.3,13.3v11.2
				c0,7.4-6,13.3-13.3,13.3h-88.2v13h88.2c7.4,0,13.3,6,13.3,13.3v11.2c0,7.4-6,13.3-13.3,13.3h-88.2v13h88.2
				c14.5,0,26.3-11.8,26.3-26.3v-11.2c0-7.9-3.5-15-9-19.8C559.4,207.5,562.9,200.4,562.9,192.5z"/>
		</g>
		<g>
			<g>
				<path class="st2" d="M659.3,269.7h-62.1c-14.5,0-26.3-11.8-26.3-26.3v-62c0-14.5,11.8-26.3,26.3-26.3h82.8v13h-82.8
					c-7.4,0-13.3,6-13.3,13.3v24.5h75.5c14.5,0,26.3,11.8,26.3,26.3v11.2C685.6,257.9,673.8,269.7,659.3,269.7z M583.8,218.8v24.5
					c0,7.4,6,13.3,13.3,13.3h62.1c7.4,0,13.3-6,13.3-13.3v-11.2c0-7.4-6-13.3-13.3-13.3H583.8z"/>
			</g>
		</g>
		<g>
			<g>
				<path class="st2" d="M780.6,269.7h-61.8c-14.6,0-26.4-11.9-26.4-26.4v-61.8c0-14.6,11.9-26.4,26.4-26.4h61.8
					c14.6,0,26.4,11.9,26.4,26.4v61.8C807.1,257.8,795.2,269.7,780.6,269.7z M718.8,168c-7.4,0-13.4,6-13.4,13.4v61.8
					c0,7.4,6,13.4,13.4,13.4h61.8c7.4,0,13.4-6,13.4-13.4v-61.8c0-7.4-6-13.4-13.4-13.4H718.8z"/>
			</g>
		</g>
	</g>
</g>
<g>
	<path class="st2" d="M230.8,269.7h-68c-14.6,0-26.5-11.9-26.5-26.5V155h13v88.2c0,7.4,6.1,13.5,13.5,13.5h68
		c7.4,0,13.5-6.1,13.5-13.5V155h13v88.2C257.3,257.8,245.4,269.7,230.8,269.7z"/>
</g>
<path class="st2" d="M393.7,192.5v-11.2c0-14.5-11.8-26.3-26.3-26.3h-81.7h-6.5h-6.5v114.6h6.5v0.1h88.2c14.5,0,26.3-11.8,26.3-26.3
	v-11.2c0-7.9-3.5-15-9-19.8C390.2,207.5,393.7,200.4,393.7,192.5z M380.7,232.2v11.2c0,7.4-6,13.3-13.3,13.3h-81.7v-37.8h81.7
	C374.7,218.8,380.7,224.8,380.7,232.2z M285.7,205.8V168h81.7c7.4,0,13.3,6,13.3,13.3v11.2c0,7.4-6,13.3-13.3,13.3H285.7z"/>
<polygon class="st2" points="108,155 108,205.8 13,205.8 13,155 0,155 0,269.6 13,269.6 13,218.8 108,218.8 108,269.6 121,269.6 
	121,155 "/>
</svg>
