<?xml version="1.0" encoding="utf-8"?>
<!-- Generator: Adobe Illustrator 21.1.0, SVG Export Plug-In . SVG Version: 6.00 Build 0)  -->
<svg version="1.1" id="Layer_1" xmlns="http://www.w3.org/2000/svg" xmlns:xlink="http://www.w3.org/1999/xlink" x="0px" y="0px"
	 viewBox="0 0 377 822" style="enable-background:new 0 0 377 822;" xml:space="preserve">
<style type="text/css">
	.st0{opacity:0.5;}
	.st1{fill:#98C459;stroke:#FFFFFF;stroke-width:2;stroke-linecap:round;stroke-linejoin:round;stroke-miterlimit:10;}
	.st2{fill:#FFFFFF;}
	.st3{fill:#E30613;}
</style>
<g class="st0">
	<path class="st1" d="M219.1,790.1c-1.1,0.1-2-0.4-2.7-1.2c-0.9-0.5-1.8-1-2.7-1.5c-0.7,0-1.3,0-2,0.1c-0.3,0.1-0.7,0.1-1,0.2
		c-4.9,1.8-9.6,2.4-14.1-1.2c-1.6-1.3-3.4-1.1-5.3-0.2c-3.8,1.7-6.4,4.7-8.6,8c-0.2,0.2-0.4,0.5-0.6,0.7c-0.3,2.5-1.5,4.2-3.7,5.4
		c-1.8,1-2.8,2.4-2.5,4.5c0,0.4,0.1,0.9,0.1,1.3c0,1.4,0.2,2.6,2,2.6c0.4-0.4,0.9-0.9,1.3-1.3c1.4-3.5,3.5-6.3,7.4-7.3
		c0.2-0.1,0.5-0.3,0.7-0.4c0.7,0,1.4-0.1,2.1-0.1c0.7,0,1.3,0,2,0c2.9-0.9,6.2-0.6,8.7-2.7c3.1,0.3,3.2,0.4,3.4,3.1
		c0.2,0.3,0.4,0.6,0.6,0.8c2.8,1.3,5.8,1.8,8.8,2.2c0.6,0,1.3,0,1.9,0c4.7-2.7,5.6-8.1,8.8-11.9c0.2-0.2,0-0.6,0-1
		C222.2,790.1,220.6,790.1,219.1,790.1z"/>
	<path class="st1" d="M367.2,260c-1.2-2.3-2-5.7-1.9-7.8c-1.5-1.5-1.3-3.5-1.4-5.3c-1.5-0.1-3-0.1-4.6-0.2c-1.1,1.6-0.8,4.1-2.7,5.3
		c-0.4,0.3-0.8,0.5-1.3,0.8c-3.1,1-3.1,1-4.9-2.6c-0.2-0.1-0.4-0.2-0.6-0.3c-0.2-0.2-0.5-0.4-0.7-0.6c-0.3,0.1-0.9,0.2-0.9,0.3
		c-0.1,2.7-1.7,5-1.6,7.6c0,0.3,0,0.7,0.2,1c1.3,1.8,2.1,3.9,3,5.9c0.4,0.8,0.9,1.8,2.1,1.9c0.5,0,1,0.1,1.4,0.4
		c2.8,0,4.4,1.9,5.6,4.1c0.6,1.1,1,2.2,1.8,3.1c1.6,1.8,2.4,3.6,1,6.2c-1.6,3.2-0.3,5.5,2.8,6.1c4-1.4,4-1.4,4.1-5.8
		c0-1.7,0.8-2.9,1.5-4.3c0.6-1.2,1.6-2.4,1-3.7C369.5,268.2,369.2,263.8,367.2,260z"/>
	<path class="st1" d="M323.8,146.2c1.5,0.2,2.3-0.4,2.6-1.9c0.2-1.4,0.7-2.8,1.3-4.1c1.1-2.5,0.9-2.6-0.9-4.6
		c-1.2-1.3-2.6-1.5-4.2-1.2c-1.6,1.9-1.8,4.3-1.3,6.5C321.7,142.8,322.5,144.7,323.8,146.2z"/>
	<path class="st1" d="M332.2,151.6c0.2-0.8,0.3-1.5-0.4-2.1c-0.4-0.5-0.8-0.5-1.3,0c-1.6,0.4-2.2,1.3-1.3,2.8
		C330.5,153.1,331.4,152.4,332.2,151.6z"/>
	<path class="st1" d="M64.7,502.7C64.7,502.7,64.7,502.7,64.7,502.7C64.7,502.7,64.7,502.7,64.7,502.7L64.7,502.7z"/>
	<path class="st1" d="M319.1,228c-0.2,0-0.5-0.1-0.7-0.1c-1.6,0-3.1,0-4.7,0.1c-2-1.3-4-4.9-3.9-7.5c0.2-4.6,0.4-9.3,0.6-13.9
		c0-0.4-0.1-0.9-0.1-1.3c0.1-1.6,1.4-1.7,2.6-2c4.1-1.1,4.6-1.7,5-6c0-1-0.7-2-0.1-3.2c0.8-1.6,0.4-2.3-1.4-2.7
		c-0.9-0.2-1.8-0.2-2.6-0.2c-4.5,0-6.3-1.9-6.1-6.5c0-0.2,0.1-0.5,0.1-0.7c0-0.5-0.1-0.9-0.1-1.4c0.5-0.1,1.3-0.2,1-0.8
		c-0.5-0.9-1.2-0.3-1.7,0.3c-1.1,0-2.2-0.1-3.3-0.1c-0.7,0.5-1.6,0.5-2,1.3c-0.9,0.1-1.3,0.5-1.2,1.4c0,0-0.1,0-0.1,0
		c-1.1,0-2.2-0.1-3.3-0.1c-1.8-0.8-1.1-2.5-1.3-3.8c-0.3-1.9-1.9-2.5-3.4-1.3c-1.7,1.4-2,2.7-0.8,5c1.1,2,0.8,3.6-0.3,5.3
		c-0.9,1.4-1.8,2.9-3.2,3.9c-2.4,2-4.5,4.3-5.9,7.1c-1.4,3-3.6,4.2-6.3,4.4c-1,0.1-2,0.1-3,0c-2.3-0.1-4.1,0.7-5.3,2.8
		c-0.9,1.6-2.1,3.1-3.3,4.6c-1.6,1.9-5.5,2.5-7.7,1.3c-2.2-1.3-2.5-2.4-1.5-5.5c0.2-0.6,0.4-1.1-0.2-1.5c-0.5-0.4-1.1-0.3-1.5,0.1
		c-2.3,2.1-4.7,4.1-7.3,5.8c-0.8,0.5-1.3,1.8-0.3,2.2c2,0.9,0.4,2.8,1.3,4c0.4,0.6-0.5,1.4-1.4,1.4c-1,0.1-0.9-0.7-1.1-1.3
		c-0.6-2.7-1.4-5.3-1.9-8c-4-0.3-7.3-2.1-10.7-3.9c-1.5-0.8-2.9-1.7-4.7-1.5c-0.7,0.1-1.3-0.2-1.3-1.1c-0.1-2.5-1.7-4.3-2.7-6.4
		c-0.7-1.4-1.6-2.2-3.1-0.8c-0.8-2.6-1.7-5.1-3.6-6.8c-1.3-1.2-2.3-2.4-2.8-4c-0.9-3-2.6-5.3-6.2-5.5c1.2-2.9,1.1-5.5,0.4-8.2
		c-0.6-2.4-1.1-4.8-1.9-7.1c-1.3-3.4-0.9-6.5,1.1-9.5c1.3-1.8,1-3.7-0.1-5.6c-1.4-2.3-3.3-3.8-5.7-5c-4-2.1-6.4-2-9.8,0.9
		c-2.4,2-5,3.9-6.9,6.3c-2.1,2.6-4.5,3.6-7.7,4c-2,0.3-4.2,1.3-4.3,3.9c0,1.2-0.7,1.4-1.7,1.5c-3.4,0.3-4.3-0.5-3.8-3.9
		c0.2-1.6-0.3-2.7-2.2-3.7c3-0.4,4-2.5,5.8-3.8c1-0.7,0.8-2-0.4-2.8c-1.4-1-1.7-2.5-0.4-3.4c3.3-2.4,0.9-5.6,1.1-8.4
		c-4.1-1.7-5.7-0.1-7.2,1.5c-1.7,1.8-3.5,3.6-5.8,5c-0.3-2.1,0.1-4.1-0.3-6.1c-0.4-1.9-1-3.9-0.9-5.9c0.1-4.3-1.4-9.1,2.6-12.6
		c0.2-0.2,0.3-0.6,0.4-0.9c1.6-3.5,1.6-7.2,1.3-10.8c-0.2-2.3-1.9-3.8-4.1-3.5c-3.3,0.4-5-1.1-6.3-3.8c-1-1.9-1.6-3.9-1.6-6.1
		c0.1-3.3-0.2-6.6,0.5-10c0.5-2.5,0.2-5.1-0.4-7.6c-0.2-0.8-0.4-1.6-1-2c-2.6-1.7-2.8-4.3-2.3-6.8c0.8-4.1-0.6-7.4-2.8-10.6
		c-1-1.5-1.8-2.3-3.8-1.3c-2.2,1.1-4.8,0.9-6.5-1.3c-1.4-1.8-3.5-2.9-5.8-3.5c-2.4-0.6-4.2-2.6-6.4-3.6c-2.2-1-4.1-2-5.5-4.1
		c-0.8-1.3-2.3-2.2-1.5-4.5c-2.9-0.4-4.5-2.4-6.2-4.2c-1.7-1.8-3.9-2.6-6.1-3.3c-1-0.3-1.9-0.2-2.2,0.8c-1.1,3.7-5,5.4-6.3,9
		c-2,0.4-3.5,1.2-4.5,2.8c-0.6-0.9-0.9-1.6-1-2.4c-0.2-1.9,0.2-2.6,2.1-2.5c3.4,0.2,4.8-1.8,5.6-4.6c0.4-1.4,1.2-2.8-0.9-3.6
		c-0.6-0.3-0.6-0.9-0.6-1.4c0-1.7-1.2-2.8-2.3-3.9c-1.7-1.6-3.5-3-5.2-4.6c-0.6,0.5-1.1,1.3-2,1.3c0-0.6-0.1-1.2-0.1-1.7
		c-0.9,0.4-1.7,0.7-2.6,1.1c-0.3,0.8-1,1.2-1.7,1.5C79,22.6,78.2,23,77.5,22c-0.8-1.3,0.3-1.7,1.1-2.2c-0.5-0.9-1-1.9,0.7-2.2
		c0.1-0.4,0.1-0.4,0.2-0.8c-0.8-0.5-1.4-1.1-1.2-2.2c0.2-1,1.1-1.7,2.1-1.9c0.6-0.1,1.3-0.1,1.9-0.1c0-0.8-0.6-1.2-1.1-1.6
		c-0.8-0.3-1.5-0.6-2.3-0.9l-5.8,0.3c-1.3,0.4-2.5,0-3.6-1.1c-0.4,0-1,0.1-1.3-0.1c-2.1-1.5-4.3-1.3-6.7-0.7c-1.3,0.3-2.7,0.4-4-0.2
		c-2.2-1-3.3,0.7-4.5,1.9c-1.3,1.3-1.9,2.7-0.9,4.5c0.9,1.7,1.5,3.5,2.3,5.2c1.9,4.3,3.1,8.8,3.8,13.4c0.6,0.6,0.6,1.4,0.8,2.2
		c2,10.1,5.3,19.9,7.5,30c0.2,1.1,0.4,2.2,0.5,3.3c2.2,7.7,4.1,15.4,5.3,23.3c1.3,8.8,2.2,17.6,4,26.2l1.4,6.5
		c0.1,1.4,0.2,2.9,0.3,4.3c0,0.8,0.4,1.4,1,1.9c0.8,3.1,1.5,6.2,1.8,9.4c0.1,0.7,0.1,1.3,0.2,2c0.9,2.8,1.1,5.7,1.2,8.5
		c0.3,7.1,0.2,14.2-1.7,21.1c-0.4,1.6-1,2.8-2.4,3.9c-1.3,1-2.4,2.3-3.4,3.6c-1.5,2-1.8,4.4-0.6,6.2c1.9,2.9,1.5,5.9,1.5,8.9
		c0,0.3,0,0.7-0.1,1c0.1,0.7-5.3,7.2-6.7,8c-1.7,1-3.2,2.3-4.6,3.7c-1.7,1.7-3.6,2.9-6.1,2.3c-0.3,0-0.5-0.2-0.6-0.5
		c-0.5-1.3-0.1-3.4-1.7-3.6c-1.6-0.2-3.4,0.8-4.8,1.7c-0.7,0.4-1,1.2-1.2,1.9c0,0.3-0.3,0.4-0.7,0.3c-0.7,0.2-1.2,0.4-1.9,0.6
		c-0.3,0.3-0.7,0.4-1.1,0.5c-1.7,1.2-3.2,2.7-5.6,2.8c-0.6,0.4-1.2,0.9-1.9,1.3c-0.6,2-2.1,1.7-3.5,1.8c-3.5,0-3.5,0.1-4.8,3.3
		c-0.1,0.2-0.2,0.4-0.3,0.6c-3,4.2-2.5,8.8-1.5,13.4c0.7,3.3,2.6,5.9,5,8.2c-0.1,0.5,0,1.1,0.3,1.7c2,4.1,3.3,8.5,4.1,13
		c0,1.6,0,3.1-0.1,4.6c0,0.3,0,0.5,0.1,0.7c-1.9,1-1.6,1.7,0.1,3.5c1.6,1.7,2.1,4,2.6,6.3c0.2,0.7-0.1,1.3-0.8,1.7
		c-0.8,0.5-1.3,1.1-1.6,1.8c-0.5,0.2-0.9,0.6-1.3,1.1c-0.9,1.5-2.3,3.4-2.9,5.4c-0.7,0.6-1.4,1.3-2.5,1.4c-0.8,0.1-2.5,0-2.5,0.8
		c0,1.1-1,2.1-1,3.2c0.1,2.6,1.6,0.9,3,1.1c1.9-0.1,2.7-0.6,3.1-0.8c0.4-0.2,0.8-0.4,1.2-0.5c0.9,0.8,2,0.9,3.1,0.6
		c1.5,1.5,1.4,3.3-0.3,4.9c-0.3,0.3-0.7,0.5-1.1,0.7c0.1,0.3,0.1,0.7,0.3,0.9c1.7,1.5,6.4,1.8,8,0.4c1.1-1,2.4-1.6,3.7-2
		c0.7-0.2,1.4-1.1,2.1-0.3c0.8,0.9,1.7,1.9,1.3,3.2c-0.3,1-1.3,1.9-0.3,3.1c0.7,0.8,1.7,1,2.7,1.3c3,0.9,4.5,2.9,5.3,6.1
		c2.5,10.1,4.9,20.4,4.8,30.8c-0.2,12.2-0.7,25-4.5,32.5c-1.3,2.5-2.9,4.7-4.8,6.8c-2.3,2.7-5.4,2.3-8.4,1.4
		c-1.5-0.4-2.9-1.2-4.5-0.5c-0.6,0.2-1.2,0.1-1.4-0.5c-0.6-2.3-2.4-2.1-4-1.6c-1.2,0.3-2,0.3-2.4-0.9c-0.7-2.3-3.1-2-4.6-2.8
		c-1-0.5-2.5,1.2-3,3c0,0,0,0,0,0.1c-1.3,0.9-2.1,2.5-1.9,4.2c0.2,1.2,0.8,2.3,1.8,3c0.6,0.5,1.3,0.7,1.9,0.8
		c0.4,1.3,1.3,2.4,2.8,2.9c0.6,0.2,1.2,0.3,1.8,0.2c0.5,0,1-0.3,1.5-0.5c1.3,2.5,2.4,5.2,3,8c0.6,2.9,0.6,5.7,0.6,8.6
		c-0.5,0.5-0.8,1.2-0.7,2.1c0.2,1.8,0.7,3.3,1.3,4.7c0.7,2.5,2.1,4.3,3.9,5.5c0,0,0,0,0,0c0.4,1.4,1.1,2.2,2.7,2.4
		c2.7,0.4,3.2,1,3.2,3.7c0.1,4.9-0.5,9.7-2.5,14.2c-1.2,3.9-3.3,4.5-6.2,1.7l-0.1,0.3c0,0,0-0.1,0-0.1c-1.2,0.9-2.6,0.6-3.9,0.7
		c-2.3,0.2-4.1,0.7-5.4,3.1c-1.4,2.5-4.4,3.2-6.9,4.2c-0.4,0.2-1,0.1-1.3-0.1c-1.7-1.7-4.4-0.9-6.2-2.8c-1.3-1.4-3-0.3-3.2,1.6
		c-0.1,1-0.1,2,0,3c0.1,1.8,0.1,3.4-1.7,4.7c-1.2,0.9-1.8,2.7-2.4,4.1c-1,2.4-1.8,4.8-2.5,7.3c-1,3.3-0.9,3.4,2.6,3.9
		c0.9,0,1.9-0.6,2.5,0.6c1.7,3.8-0.3,7.5-0.5,11.3c0.5,0.1,1,0.3,1.2,0.8c1.1,0.9,0.6,2.2,0.8,3.3c0.2,0.2,1.2-0.2,0.5,0.7l-1.2,2.9
		c2.5,0.3,4.3-0.4,6-1.7c2.3-1.8,3.5-1.6,5.2,0.7c1.8,2.5,3.1,2.5,5.1,0c0.7-0.8,1.3-1.2,2.3-1c2.6,0.3,5.4,0.4,6.8,3.3
		c0.3,0.7,0.8,1.5,1.7,1.5c3.4-0.3,4.6,2.5,5.7,4.6c1.6,2.9,4.3,4.1,6.8,5.6c0.9,0.6,1.9-0.1,2.9-0.2c4.1-0.6,7.8,1.5,9.3,5.2
		c0.1,0,0.3-0.1,0.3,0c1.2,1.2,2.6,2.1,4,3.1c3.3,12,1.6,24.2-4.8,34.9c-0.5,0.9-0.5,1.8-0.2,2.5c0,0.1-0.1,0.1-0.1,0.2
		c-0.9,1.6-2.2,2.8-3.8,3.6c-2.1,1.1-2.5,1-4.4-0.8c-0.4-0.4-0.9-0.7-1.5-0.5c-3.4,1.3-6,0-8.3-2.7c-1.2,1.1-2.6,2-3.7,3.2
		c-1,1.1-2.2,1.4-3.6,1.3c-0.1,0.4-0.1,0.8-0.2,1.1c-0.5-1.5-2.2-2.5-5.1-1.2c-0.9-0.2-1.8-1.2-2.7-2.3c0-0.2,0-0.5,0-0.7
		c-0.2-3.3-0.5-3.6-3.7-3.6c-0.7,0-1.3,0-2-0.1c-0.1-0.1-0.3-0.2-0.5-0.3c-0.4-0.7-1.1-1.2-1.8-1.4c-1.9-0.3-3.7-0.2-5.7,0
		c-2.2,0.2-3.4,2.6-2.7,4.2c-0.3,1.7-1.2,3.1-2.3,4.4c-0.8,1-1,1.9-0.1,2.5c2.7,1.7,4.1,4.1,4.3,7.3c0,0.3,0.6,0.6,0.9,0.9
		c2.2,0.2,4-1.1,6-1.8c1-0.3,1.9-0.8,2.8-1c0.8-0.2,1.4-0.2,1.9-0.1c0.6,0.5,1,1.2,1.1,2c0.4,2-1.4,3.3-0.3,5.7
		c1,2.3,2.2,3.7,2.3,6.6c0,1.2,0.1,2.3,0.2,3.3c-2.4,2.1-2.6,4.1,0.6,6.4c2.9,2.1,4.1,4.8,5.8,7.8c2.8-3.3,5.8-0.3,8.8-3.4
		c1.3,2.5,0.9,5,1,7.6c0,1-0.2,2,0.7,2.8c1.2-0.6,2.3-0.1,3.2,0.7c1.3,0.8,2.7,1.4,4.4,1.2c1.4-0.1,2.5,0.6,2.9,1.8
		c1,2.6,2.2,5.2,3.1,7.9c-0.3,0.7-0.3,1.5,0.1,2.4c0.5,1.1,0.1,2.7,0.2,3.9c0.2,1.5,0.8,2.5,1.5,3.8c1.9,3.4,1.9,7.9,2.4,11.7
		c0.1,0.4,0.2,0.7,0.3,1c0.5,4.1,1,8.3,1,12.4c1,3.8-2,4.7-4.5,6l0,0c-0.4,0.7-0.9,1.2-1.7,1.4c-2.1,3.4-2,6,0.3,8.6
		c2.8-2,4.9-0.8,7.1,0.4c2.4,2.3,3.6,5.4,4.6,8.6c0.9,2.9,0.1,2.7-1,5.1c-0.1,0.1-0.1,0.2-0.1,0.3c-0.1,0.1-0.2,0.1-0.3,0.2
		c-1.4,0.6-1.8,3-1.4,4.9c-0.2,1.5,0.1,3.2,0.9,5.2c2.8,6.8-1.3,13.3-3,20.1c-0.3,0.6-0.8,1.1-1,1.7c-1.4,3.7-4.4,4.8-8,4.9
		c-1.9,0.1-3.8-0.1-5.7,0c-2.2,0.1-2.6,0.6-2.1,2.9c0.4,1.7-0.7,3.1-0.5,4.8c1.4,1.8,3,2.3,4.6,2.5c0.1,0.3,0.3,0.7,0.5,1
		c0.1,0.2,0.3,0.4,0.5,0.6c0,0,0,0,0,0c0.7,0.9,1.4,1.8,2,2.7c0.1,0.3,0.2,0.5,0.4,0.7c-0.9,0.8-1.9,1.6-2.5,2.8
		c-0.9,2-1.6,3.9-0.1,5.9c0.9,1.3,0.6,2.8,0.6,4.2c0,0.2,0.1,0.4,0.1,0.6c0.2,0.2,0.4,0.5,0.5,0.7c2.9,0.4,5.7,0.2,8.4-0.7
		c0.2,0,0.3,0.1,0.5,0.1c2.9,0.2,6.2-0.1,8.7-1.4c1.3,0.1,2.6,0.1,3.8-0.5c0.8-0.3,1.5-0.5,2.3-0.4c0.5,0.8,1.3,1.4,2.4,1.5
		c2,0.2,2.9,1.7,2.6,4.3c-0.2,0.7-0.1,1.3,0.2,1.9c0,0.2,0,0.3,0,0.5c0,0.3,0,0.7,0,1c-0.5,0.5-1.2,0.9-2.7,1l2.6,2.6
		c0,2.2,0,4.5,0,6.7c-1.1,0.7-1.9,1.6-2.2,3c1.4,0.7,1.5,1.6,0.3,2.6c0.7,3-1.2,5-2.6,7.2c1,1,1.9,0.8,2.9,0c0.6-0.5,1.2-1,1.7-1.5
		c2.1-1.5,2.4-1.5,3.9-0.2c0.8,0.8,1.6,1.5,2.4,2.3c2.4,1.9,4.6,1.4,6.6-0.6c1.2-0.9,2.8-0.6,4.3-0.7c0.7-2.8,2.4-3.5,4.7-3.6
		c0.9-0.1,1.6-0.6,2.2-1.1c0.4-0.9,0.8-2,1.2-2.9c-0.1-1-0.1-2-0.2-3c-0.3-0.5-0.7-0.8-1.1-1.1c-3-2-2.9-5.2,0.2-7
		c1.4-0.8,2.5-1.4,4.2-2.2c0.3-0.2,0.6-0.4,0.9-0.6c1.4-1,2.6-1.8,4.1-2.7c3.3-1.9,6.5-3.5,10.2-4c0.9-0.1,1.7-0.2,2.5,0.3
		c3.5,2.1,4.6,1.9,7.1-1.4c0.3-0.4,0.7-0.9,1.1-1.3c1.8-0.9,2.7-0.6,3.6-2.2c1.3-2.5,2-2,2.6-3.8c-1.1-3.5-3.1-3.1-4.6-5.3
		c-1.3-1.5-2.7-2.8-4.5-3.8c-2.6-1.3-3.4-3.7-2.6-6.5c0.3-1,0.2-2.2,1.1-3.1c0.2-0.5,0.2-1.1,0.5-1.6c4.5-7.6,6.6-16,8.4-24.5
		c0.5-2.3,1.4-4.5,2.6-6.6c3.7-6.1,5.8-12.8,7.4-19.8c1.1-4.5,3.7-8.3,8.4-10.5c2.8-1.3,5.2-3.4,7.6-5.3c1.9-1.5,3.8-2.3,6.1-1.8
		c2.5,0.5,4.4-0.4,5.8-2.4c1.9-2.7,4.7-4.7,5.9-8c0.6-1.6,2.6-1.9,4.2-2.4c3.2-1,6.4-0.4,9.6,0.1c0.7,0.1,1.5,0.6,1.9,0.3
		c3.6-1.7,4.8,1.8,6.8,3.2c1,0.7,0.8,1.8,0.2,2.7c-0.4,0.8-1.1,1.5-0.4,2.4c2,2.7,2.1,5.9,2.9,9c0.9,3.5,1.4,7.1,3.4,10.3
		c0.3,0.5,0.4,1.3,0.6,1.9c2.6,2.3,3.5,5.6,5.1,8.5c0.5,1.6,0.5,1.6,1,3.5c0.4,1.8,1,1.7,0.8,3c0.3,2,0.4,3.9-0.6,5.7
		c0.4,3.1,3,6.5,5.7,7.3c1.3,0.4,2-0.7,3-1c0-0.9,0.3-0.8,0.7-1.7c0,0,0-1.9,0-1.9c-1.9-0.4-2.5-0.9-2.2-2.7
		c-0.3-0.3-0.9-0.5-0.9-0.9c0-1.5,1-1.8,2.1-3.1c1-1.1,1-1.1,1.8-2c0.3-0.3,1.5-0.1,1.8,0.2c0.9-0.2,1.1,0.4,1.8-0.1
		c3.2-1.9,5,1.4,7.4,4.1c0.5,0.6,1.2,1,1.8,1.4c1.7,1.1,0.9,3.3,2.5,4.3c0.3,1.1,1.1,1.6,2,1.9c0.5,0.1,0.9,0.2,1.4,0.2
		c0.5,0,1,0,1.5-0.1c0.3,0.1,0.5,0.3,0.8,0.4c2.1,1.2,4.1,2.6,5.4,4.7c0.9,0.9,1.3,2.1,1.2,3.4c0.3,4.5,1.5,5.1,5.9,3.1c0,0,0,0,0,0
		c0.4-1,1-1.7,1.9-2.2c0.5-0.7,0.8-1.3,1.3-2.1c-0.1-2.1-2.8-1.4-3-3.4c-0.6-0.1-1.3,0-1.9-0.3c-1.2-0.4-2-1.3-2.1-2.7
		c-0.2-1.4,0.5-2.5,1.7-3.2c0.5-0.2,1-0.4,1.5-0.5c0.1-1-0.4-1.8-1.5-2.1c-0.5-0.1-0.9-0.4-1.2-0.8c-1.6-2.4-2.7-2.6-4.7-1
		c-2.2,1.9-2.2,1.9-4.2-0.4c-0.3-0.3-0.6,1.1-0.9,0.8c0,0-0.6-1.2-0.6-1.2l-0.6-1.2c0.1-0.8,0.8-0.7,0.3-1.4
		c-0.9-1.2-0.9-2.5-0.6-3.8c0-0.4,0-0.8,0-1.2l-0.1,0c0.2,0,0.4,0,0.6-0.1l0.3,0l0.3,0c0.2-0.2,0.5-0.3,0.7-0.5
		c1.5-0.1,2.5-1.1,3.3-2.2c0.5-0.9,1.5-1.5,1.5-2.6c-0.1-0.6-0.1-1.3-0.2-1.9c-1.3-2.4-1.1-5.2-2.3-7.6c-0.2-0.1-0.5-0.3-0.7-0.5
		c-1.2-0.1-2.5-0.2-3.8-0.3c-0.5,0.2-0.9,0.3-1.4,0.5c-0.4,0.3-0.7-0.1-1.1-0.3c0,0,0,0,0,0c0-0.2,0.1-0.4,0.2-0.5
		c0.1-2.1,1.3-3.6,3-4.7c1.2-0.6,2.4-1,3.3-2c0-0.5,0.1-1,0.6-1.3c0.1-0.3,0.2-0.5,0.4-0.8c-0.1-0.5-0.2-0.7-0.3-1.3
		c-0.8-0.3-1.6-0.7-2.5-0.6c-1.7,0.3-2.4-0.8-3-2l0,0l0.1-3.5c0.1-0.2,0.1-0.4,0.2-0.7c0.6-1.1,1.6-1.1,2.7-1.1
		c2.4-0.1,4.9,0.4,7.2-0.5c0.5-0.5,0.8-1.1,1.4-1.4c3.2-1.5,3.2-1.7,1.9-5.1c-2.8-1.8-5.8-0.5-8.8-1c-0.1,0-0.2,0-0.3,0
		c-1.4,0-2,2.2-3.4,1.7c-1.2-0.4-1.7-1.9-3.3-2c-1.3-0.1-2.7-0.5-4-0.1c-1.3,0.5-1.7,0.1-2.3-1.3c-2-4.8-2.3-9.9-3.7-14.8
		c-0.5-1.9-1.3-3.1-3.4-3.5c-1.8-0.4-2.2-2.1-1-3.4c0.1-0.2,0.3-0.3,0.5-0.4c3.7-2.8,3.7-3,1.8-7.1c1.6-0.5,2.9-1.4,3.3-3.2
		c0.2-0.9,0.9-1.7,1.9-1.7c2.3-0.1,4-1.8,6.2-2.1c1.6-0.2,2.4-1.6,2.8-3c0.4-1.4-1-2.1-2-2.8c-1-0.8-2.4-1.1-3.2-2.2
		c1.6-2.5,0.6-4.5-0.6-6.5c-0.3-0.5-0.3-1-0.5-1.9c3.1-0.2,5.1-2,7.1-3.8c1.4-1.3,2.9-2.4,4.7-3.1c1.1-0.5,2.2-1.1,3.1-1.9
		c2.6-2.4,5.4-3,8.7-1.3c1.5,0.8,2.9,1.6,2.5,3.8c-0.2,1.2-0.1,2.4-0.1,3.7c0,0.7-0.3,1.8,0.7,2c1.1,0.2,1.6-0.8,1.9-1.5
		c0.7-1.7,1.5-3.5,1.8-5.3c0.1,0.1,0.1,0.1,0.2,0.2c0.4,0.3,0.9,0.5,1.3,0.5c-0.1,0.7-0.4,1.4-0.6,2.2c-0.4,1.6-0.6,3.3-0.5,4.9
		c0,0.7,0.1,1.4,0.9,1.6c0.6,0.1,0.9-0.5,1.2-1c0.3-0.5,0.7-0.9,0.9-1.4c2.4-4.3,6.6-5.6,11.1-6.3c1.6-0.2,2.4,1,3.1,2.1
		c0.8,1.1,1.4,2.3,2.9,2.5c0.4,0,0.6,0.2,0.6,0.6c0,0.4,0,0.8,0.1,1.2c0.4,0.3,0.4,0.6,0,0.9c0.7,1.6,2.1,1.1,3.3,1.3
		c1-0.1,1.6,0.6,2.1,1.3c1.2,0.2,1.9,0.8,2,2.1c0,1.1,0,2.1,0,3.2c0.5,0.2,1.1,0.7,1.5,0.6c1.7-0.4,3.2-0.3,4.8,0.6
		c0.9,0.6,2.2,0.6,3.1-0.3c0.9-1,1-2.3,0.1-3.3c-1-1.1-0.8-2.4-0.8-3.8l-2.6-0.5c-0.2,0-0.4,0-0.6,0c-1.2,0.2-2.3,0.3-3.4-0.1
		c-1-0.2-1.6-0.8-2-1.8c-0.6-0.7-0.9-1.6-0.9-2.5l0,0c-1.3-0.1-1.7-1-1.8-2.1l0,0c-0.9-0.1-1.9,0-2-1.3c-1-2.5,0.1-4.6,1.5-6.6
		c1.1-1.5,1.3-1.5,2.5,0l0,0c0.2,0.2,0.5,0.4,0.7,0.6l2.8,0.7c2-2.9,3.8-6,7.3-7.4c1.2-1,2.2-0.9,2.8,0.6c0.4,1,0.9,2,1.4,3
		c0.2,0.1,0.3,0.3,0.5,0.4l2.5,0.3c1-0.6,1.7-1.4,2.3-2.3c0-0.6-0.2-1.3,0.1-1.6c2.6-2.9,1.2-6.4,1.7-9.7c-1.1,0-2.2-1.4-3.3-0.1
		c-1.2,1.6-1.2,1.6-2.6,0.1c-2.2-2.6-3.9-5.3-2.9-9.1c-2.2-2-2.5-4.3-2.1-7c0.7-4.7,3-8.7,4.6-13.1c0.6-1.6,1.2-3,1.2-4.8
		c-0.1-3.6,0.1-7.1,0.8-10.6c0.5-2.5-0.6-3.5-3.1-2.7c-2.4,0.8-4.7,2-6.8,3.5c-2.1,1.5-4.3,2.3-6.8,2.3c-1.1,1.6-1.9,3.2-1.2,5.3
		c0.3,0.9-0.1,1.7-0.5,2.5c-0.7,1.3-1.1,2.7-1.1,4.1c0,1.8-0.9,3-2.3,3.8c-1.5,0.7-1.8,1.8-1.7,3.3c0,1.3,0,2.5,0,3.8
		c-0.1,2.4-0.1,2.4-2.8,2.4c-0.2,0-0.4,0-0.6,0c-0.9,1.6-1.8,3.2-1.7,5.2c0.1,1.2-1,0.9-1.7,1c-0.4-0.2-0.5-0.5-0.3-0.9
		c0.3-1.1-0.1-2.1-0.6-3c-0.5-1.3-1.2-2.5-1.6-3.9c0-0.9,0-1.8-0.5-2.5c-1.1-1.9-1.4-3.7,0.3-5.4c0.4-0.5,0.6-1.4,0.1-1.8
		c-2-1.6-2.3-4.5-4.4-6c-0.7-0.5-1.3-1.2-2.3-1.2c-0.5-0.1-0.9-0.2-1.2-0.6l0,0c-1.2-0.2-2.7,0.4-3.5-1.3c-0.4-0.9-1.3-0.7-2.1-0.7
		c-1.6,0-3.1,0-4.7,0c-1.4-0.1-2.3-0.6-2.8-1.4c0-0.7-0.1-1.5-0.1-2.2c0.1-0.3,0.2-0.6,0.4-1c0.5-0.9,1.2-1.7,2.1-2.1
		c2.5-1.2,3-3.3,2.8-5.9c-0.7-0.1-1.5,0-2.2-0.1c-1.2-0.2-1.3-0.8-0.7-1.7l0.2-0.2c0.3-0.4,0.8-0.5,1.3-0.6l0.1,0
		c0.3-0.4,0.8-0.5,1.2-0.6l0.1-0.1c0.2-0.2,0.4-0.4,0.7-0.6c1.1-0.5,1.4-1.4,1.3-2.5c-0.1-2.6,0.9-5.4-1.7-7.4
		c-0.3-0.3-0.4-1-0.3-1.6c0.2-2.3-0.8-4.1-2.2-5.8c-1.6-1.8-2.3-4.3-4.6-5.6c-0.2-0.2-0.4-0.4-0.5-0.6l-0.1-0.1
		c-1.3-0.2-1.2-1.2-1.3-2.1c0.1-0.8-0.3-1.4-0.8-1.9c-2.3-0.1-4.6-0.2-6.9-0.1c-0.8,0-1.2-0.4-1.6-0.9c-0.4-0.6-0.7-1.4-1.6-1.7
		c-1,0.5,0,2-1.1,2.4c-1-0.4-1.1-3.8-0.2-7.1c1.2,0,0.5,1.3,1.2,1.7c1.3-0.1,1.4-1.6,2.3-2.2c-0.8-1.5-2.2-2.3-3.6-2.8
		c-2.4-0.9-3.5-2.7-3.6-5.1c-0.2-3.1-1.2-5.8-3.5-8c-0.6-0.6-1.1-1.4-1.5-2.2c-0.4-0.7-0.5-1.3,0.5-1.8c2.6-1.3,3.3-3.8,1.9-6.2
		c-0.5-0.8-1.3-1.3-1.4-2.2c-0.2-1.8-1.1-2-2.5-1c-0.5,0.4-1.2,0.8-1.8,0.3c-0.9-0.7-0.1-1.4,0.3-2c0.4-0.6,0.7-1.3,0.4-1.9
		c-1.3-2,0.4-3.9,0.3-5.8c0-0.3,0.2-0.6,0.4-0.9c1.8-2.3,1.8-2.3,0.5-5.1c2.5,0,3.5-2.5,6-3.5c-2.6-1.3-3.7-3.6-6.1-4.3
		c-1-0.3-1.6-0.8-1.5-1.9c0.2-1.5-0.7-2.6-1.6-4c0.7,0.1,1,0.1,1.3,0.2c1.2,0.2,2.6,0.5,3.3-0.7c0.9-1.4-0.5-2.3-1.3-3.1
		c-1.2-1.1-1.1-2.9-2.5-3.9c-0.4-0.3-0.1-0.8,0.2-1.1c0.4-0.4,0.8-0.8,1.2-1.2c2.7-2.5,2.6-3.3-0.5-5.6c1.4-0.4,2.6,0.4,3.9,0.4
		c1.4,0,2.6-0.1,3.7-1.2c2.3-2.2,2.4-2.3-0.4-4.6c4.1,0.2,7.1-1.9,9.9-4.1c3.9-3.1,8.4-4.7,13.3-4.7c4.2,0,7.6,2.4,11.1,4.4
		c0.6,0.3,0.9,1.2,1.3,1.9c0.7,1.4,1.3,2.8,2,4.2c1.1,2,1.4,2.1,3.3,0.8c0.8-0.6,1.6-1.2,2.7-1.2c0.8,0,1.9,1,2.4-0.2
		c0.7-1.6,1.9-3.1,1.9-4.9c0-1.3-1.1-1.3-2-0.9c-1.3,0.6-2.4,1.6-4,0.9c-1.8-0.8-3-2.3-4.1-3.9c-0.7-1.1-1.3-2.3-2-3.5
		c-0.9-1.5-1.5-3.2-3.7-3.4c-1.2-0.1-1.9-1.4-2.5-2.6c-1-1.9-1.8-3.8-2.3-5.9c-2.3-0.5-2.3-0.5-3.9-2.6c0,0-0.1,0.1-0.1,0.1
		c-0.1-1.8-0.6-3.5-1.8-4.7c0.1-0.5,0.2-1,0.3-1.5c0-2.8,0.4-5.4,1.6-8c1.4-3,1.9-6-1.2-8.4c-1-0.8-1.4-1.7-0.3-2.8
		c0.5-0.5,0.6-1.3,0.4-1.9c-1-2.8-0.2-5.7-0.7-8.5c-0.5-2.9,0.7-5.7,0.7-8.8c1,0.8,2.1,1.9,2.7-0.2c0.5-1.6,1.5-3,1.3-4.8
		c-0.1-0.5-0.1-1.2,0.3-1.6c3-2.3,2.9-5.4,2.6-8.6c4.2-1.5,4.2-1.5,4.4-6c0-0.3,0-0.7,0-1c0.3-2.6,1.1-2.4,4.6-0.8
		c1.4-2.8,0.5-4.4-0.5-6.1c-1.1-2-3.2-3.5-3.6-5.9c-0.2-1.1,0.1-1.4,0.1-1.4c1.1,0,1.3,1.2,1.9,1.8c1,1.1,2.2,1.6,3.8,1.8
		c2.1,0.2,4.2,0.5,4.2,4.7c0,0.1,0.1,0.2,0.2,0.2c4.3-0.4,6.4,0.9,7.3,3.7c0.9,2.6,2.7,3.6,5.4,3.3c1.9-2.4,1.9-2.4-0.3-3.9
		c-1.8-1.2-2.2-2.7-1.2-5.1c0.5-1.4,1.7-2.5,1.4-4.2c-2.1-1-2.4-2.7-0.1-5.6c-2.7-3.3-3.9-6.7-2.2-10.6c2.6-6,5.5-11.8,9.4-17.1
		c2.7-0.6,4,0.9,5.3,2.2c0.8,0.8,1.5,0.8,2.2,0c0.9-1.2,2.2-1.4,3.6-1.2c1-0.1,2.4,0.4,2.7-1.3c0.9-0.8,0.4-1.1-0.5-1.4
		c-0.6-2-1.7-4.1,2.3-5.6C322.1,227.5,322.7,227.4,319.1,228z M177.7,169.9c1.4,1.5,1,2.6,0,4.2
		C177.7,172.6,177.7,171.5,177.7,169.9z M176.9,167.6c0.2,0.5,0.4,1.1-0.3,1.3c-0.7,0.2-1.4,0.2-1.6-0.6c-0.5-1.7-1-3.5-1.7-5.9
		C175.4,164.2,176.1,165.9,176.9,167.6z M84.1,21.4c-0.1,0.8-0.4,1.3-1.3,1.3C83.1,22.1,83.6,21.7,84.1,21.4z M82.8,22.7
		c0.1,1.4-1,1.8-2,2.2c-1.2,0.4-2.5,0.7-4.6,1.2C78.6,24.2,80.9,23.9,82.8,22.7z"/>
	<path class="st1" d="M230,726.7c-0.1-0.5-0.1-1,0.3-1.4c-0.3-1.4,1.4-2.7,0.1-4c-0.2,0-0.4,0-0.7-0.1c-0.5,0-0.9,0-1.4,0
		c-0.2-0.2-0.5-0.3-0.7-0.5c-1.2-1.1-1.4-2.8-1.9-4.2c-0.4-1.2-1-2-2.4-1.8c-1.7,0.2-2.4-0.6-2.6-2.2c-0.2-1.6-1.6-3-0.8-4.8
		c0.2-0.4-0.1-0.9-0.6-1.1c-2.8-0.9-5.4-3-8.4-0.6c-0.2,0.2-0.5,0.4-0.7,0.5c-1.4,0.2-2.8,0.2-4.1-0.2c-0.2-0.1-0.4-0.2-0.5-0.3
		c-1.6-0.1-3-1-4.4-1.6c-5.8-2.6-11.2-0.8-15.8,3.7c-0.2,0.2-0.4,0.4-0.6,0.6c-0.8,1.4-2.2,2.2-3.8,2.6c-3.3,0.7-5.9,2.5-8.4,4.6
		c-1.5,1.3-1.6,1.7-0.4,3.3c0.6,0.8,1.4,1.6,2.4,1.8c2.9,0.5,4.3,2.6,5.3,5c1.2,3.1,3.3,4.3,6.8,4.2c6.8-0.2,13.6-0.5,20,2.5
		c0.7,0.3,1.5,0.5,2.3,0.4c3.2-0.3,6.5-0.3,9.6-1.3c1.7-0.5,3.2-1.3,3.8-3.4c0.5-1.8,1.7-2.1,3.3-1.3c1,0.5,2,1.1,2.6,2.1
		c0.5,0.8,1.1,1.4,2.1,1.5c0.2-0.1,0.4-0.1,0.6-0.2c0-0.6,0-1.2,0-1.8C230.3,728.3,229.8,727.7,230,726.7z"/>
	<path class="st1" d="M251.9,754.6c-2,1.2-3.9,2.3-5.9,3.5c-0.5,0.8-1.2,1.2-2.1,1.3c-0.3,0.5-0.8,0.6-1.4,0.6
		c-0.2,0.1-0.4,0.3-0.6,0.4c-1.1,0.3-2.7,0-3.1,1.4c-0.9,2.7-3,5-2.2,8.1c0.7,0.1,1.3,0.2,2,0.2c0.4-0.1,0.9-0.2,1.3-0.2
		c0.3-0.6,0.7-1,1.4-1.1c0.6-0.4,1.1-0.8,1.9-0.8c0.2-3,0.2-3,2.8-3.8c3.3-1.4,5-4.4,7.1-7c0.2-0.6,0.4-1.3,0.5-1.9
		C253.3,754.5,252.8,754.1,251.9,754.6z"/>
	<path class="st1" d="M137,760.4c-0.6-0.2-1,0.2-1.3,0.7c-0.4,0.7-0.8,1.3-1.1,2c-0.4,0.9-0.9,1.9-1.9,2.2c-3.3,1.1-4.3,3.6-4.3,6.7
		c0,1.1,0,2.2,0,3.3c2.3,3,2.3,3,5.4,1.2c0.9-1.2,2.3-2.1,2.1-3.9c-0.3-2.8,0.4-5.5,1.5-8.1c0.4-0.9,0.5-1.9,0.4-2.9
		C137.8,761.2,137.5,760.7,137,760.4z"/>
	<path class="st1" d="M331.5,255.1c0.6,0.5,1.7,0.4,2.4-0.4c-0.1-0.8-0.5-1.4-1-2c-1.1-1.3-1.3-2.5,0.2-3.7c0.8-0.6,1.3-1.5,1.7-2.4
		c0.4-0.9,0.5-1.7-0.1-2.5c-0.6-0.8-1.5-0.9-2.4-0.7c-0.6,0.2-1.2,0.4-1.9,0.6c-1.7,1.3-3.6,2-5.6,2.9c-1.8,0.8-2.2,1.9-1.8,4.4
		c0.4,2.1,1,2.7,3,2.7C328,254,329.8,253.7,331.5,255.1z"/>
	<path class="st1" d="M353.9,296c-0.2,0-0.4,0-0.6-0.1c-0.5,0-0.9,0.1-1.4,0.1c-0.2,0.1-0.4,0.2-0.6,0.3c0,0.2-0.1,0.3-0.1,0.5
		c0,0.2,0,0.4-0.1,0.6c0,0.9,0,1.8,0,2.7c0,0.4,0.1,0.9,0.1,1.3c0.6,0.6,0.7,1.3,0.6,2.1c0,0.2-0.1,0.5-0.1,0.7
		c-0.2,0.2-0.4,0.4-0.5,0.5c-0.7,0.5-1.3,1.1-1.3,2.1c1.5,1.2,1.8,2.9,2,4.7c0.2,0.1,0.4,0.2,0.5,0.4c0.5,0.7,1.1,1.5,2.1,1.1
		c0.8-0.4,0.7-1.3,0.6-2c-0.1-1.7,0.2-3.2,0.8-4.8c0.6-1.5,0.7-3,0.4-4.6C355.2,299.9,355.6,297.5,353.9,296z"/>
	<path class="st1" d="M81.3,784.3c-0.8-0.9-2-1-3.1-0.5c-1,0.4-0.9,1.6-0.7,2.3c0.7,2.3,0.5,4.6,0.5,6.9c0,1,0.4,1.7,1.4,2
		c0.2-0.1,0.4-0.1,0.7,0c3-0.8,2.6-4.2,4.4-5.9c0.1-0.1,0-0.7-0.2-0.9C83.4,786.8,82.4,785.5,81.3,784.3z"/>
	<path class="st1" d="M287.5,635.1c-0.9,1.4-0.6,3.1-0.6,4.6c0.2,0.2,0.3,0.5,0.5,0.7c0,0.7,0.1,1.3,0.1,2c-0.1,1.6,0.8,2.1,2.2,2
		c0.7-0.1,1.2-0.4,1.8-0.8c0.1-1.1,0.1-2.1,0.2-3.2c0.5-2.1-1-3.5-1.5-5.3C288.8,633.4,288.8,633.4,287.5,635.1z"/>
	<path class="st1" d="M73.9,803.7c-1.6-0.1-2.8,0.6-3.7,1.8c-0.4,0.6-0.8,1.3-0.8,2.1c-0.1,0.9-0.1,1.8-0.2,2.6
		c0.1,0.2,0.1,0.4,0.1,0.6c2,0.5,3.6-0.5,5.1-1.4c1.5-1,1.1-2.7,1-4.3C75.3,804.3,74.7,803.7,73.9,803.7z"/>
	<path class="st1" d="M289.6,155.7c0.3-1.4,1.5-2.8-0.1-4.1c-1.6,1.8-3.4,3.5-1.8,6.2C289.1,157.7,289.3,156.7,289.6,155.7z"/>
	<path class="st1" d="M250.2,174.1c2.1-1.5,5-1.1,7.3-2.5c0.7-0.4,1.1-1.1,1-2c-0.1-1.1-0.6-2.1-1.8-1.9c-2.2,0.4-4.5,0.6-6.5,1.6
		c-1.4,0.8-2,2.3-1.5,3.7C248.9,173.7,249.3,174.1,250.2,174.1z"/>
	<path class="st1" d="M318.3,460.6c0-1.1-0.1-2.3-0.6-3.4c-1.7-2.7-4.4-5-2.8-8.8c0.2-0.5-0.3-1.3-0.4-1.9c-0.4-0.2-0.8-0.4-1.1-0.7
		c-1.2-1.2-2.2-1.3-3.1,0.4c-0.5,1-1.5,1.6-2.7,1.9c-1,0.3-1.7,0.8-2.3,1.8c-1.9,2.9-4.8,4.4-8.2,4.8c-2.6,0.3-4.8-0.4-7-1.8
		c-2.3-1.5-4.8-2.9-7.6-3.4c-3.2-0.6-4.9,0.9-4.6,4.2c0.1,1.2,0,2.2-0.9,3c-0.6,0.6-1,1.2-0.9,2.1c1,1.8-0.2,3.5-0.1,5.3
		c0,0.8,0.1,1.6,0,2.3c-0.2,1.7,1.6,1.8,2,2.6c0.4,0.9-1.1,2.1-0.3,3.6c2.1,4.2,4.3,4.7,7.9,1.6c2.2-1.9,3.9-2.1,6.3-0.5
		c1.3,0.9,2.4,1.1,4,0.5c2.1-0.8,4.6,0.3,5.8,2.1c0.8,1.1,0.7,3.1,2.4,3.3c1.5,0.3,2.4-1.5,3.8-1.8c1.3-1.4,2.6-2.9,4.2-4
		c1.1-1.5,2.2-3.1,3.3-4.6c-0.1-1.9,0.3-3.7,1.6-5.2C318,463,318.3,461.8,318.3,460.6z"/>
	<path class="st1" d="M339.5,430.1c-1.7,1.1-3.3,1.7-4.6-0.2c-1.3-1.8,0.1-3,1.3-4.3c1.3-1.4,0.2-5.6-1.5-6.3
		c-0.9-0.3-1.8-0.2-2.4,0.5c-0.5,0.6-0.8,1.6-1.5,1.7c-2.8,0.4-2.3,2.8-2.9,4.5c-0.9,2.3,0,4,1.5,5.6c1,1.1,2.1,2,3.5,2.5
		c0.7,0.3,1.3,0.5,1.9,1.2c2.7,3,4.7,2.8,7.1-0.3c0.5-1,1-2.1,1.7-3.1c0.5-0.8,0.2-1.4-0.3-2C341.9,429.7,340.6,429.4,339.5,430.1z"
		/>
	<path class="st1" d="M339.2,415.9c0.4,0.5,0.9,0.5,1.3,0c1-0.9,0.6-2.3,1.2-3.3c0.3-0.6,0-1.3-0.9-1.4c-1.3-0.2-2.8,1-3.3,2.6
		C336.9,415.4,338.1,415.6,339.2,415.9z"/>
	<path class="st1" d="M277.4,644.1c-3.4-1.1-5.2-0.5-6.7,2.3c-1.1,1.1-2.2,0.7-3.3,0c-0.9,0-1.7,0.1-2.6,0.1
		c-0.3,2.2,1.7,2.9,2.7,4.3c2.9,0.8,5.9,1,8.4,2.9c0.6,0.5,1.2,0.6,1.8,0c1-1,2.1-2,2.9-3.1c1.3-1.8,1.1-3.8-0.5-5.6
		C279.1,645.1,278.3,644.4,277.4,644.1z"/>
	<path class="st1" d="M52.2,663c0.8-0.1,1.6-0.6,2.5-0.5c0.1-0.4,0.3-0.8,0.4-1.2c0.9-1.9,0.9-1.9-1.2-3c-2.1,0.3-3.7,1.1-4.2,3.4
		C50.2,663,51.1,663.2,52.2,663z"/>
	<path class="st1" d="M54.8,662.6C54.7,662.5,54.7,662.5,54.8,662.6L54.8,662.6L54.8,662.6z"/>
	<path class="st1" d="M49.2,299.4c-0.2-1.6-1.6-1.7-2.7-1.8c-1.4-0.2-2.5,1-2.5,2.4c0,1.3,1,1.5,2.1,1.5
		C47.9,301.5,49.3,300.6,49.2,299.4z"/>
</g>
<g>
	<path d="M102.1,379.7v0.5l1.6,0.4c-0.2,0.5-0.4,1.2-0.5,1.9l-2.1,6.5l-2.5-8.5l1.6-0.4v-0.5h-4.6v0.5l1.4,0.4l3.2,11.3h0.9l3-9
		l2.8,9h0.9l3.7-11.3l1.1-0.4v-0.5h-3.9v0.5l1.8,0.4l-2.7,8.5l-2.7-8.5l1.8-0.4v-0.5H102.1z M149.8,369.4
		c-4.9,0.9-11.5,6.2-12.4,12.5l-17.3,3.9l0,0l17.3,3.9c0.9,6.4,7.4,11.7,12.4,12.4l3.9,17.3h0.2l3.9-17.3c4.9-0.9,11.5-6,12.4-12.4
		l17.3-3.9v-0.2l-17.3-3.9c-0.9-6.4-7.4-11.7-12.4-12.4l-3.9-17.3h-0.2L149.8,369.4z M137.5,388.7l-13.1-2.8l0,0h13.1V388.7z
		 M138.9,385.9c0-8.3,5.3-14.8,14.8-14.8c9.5,0,14.8,6.5,14.8,14.8s-5.3,14.8-14.8,14.8C144.2,400.7,138.9,394.2,138.9,385.9z
		 M156.7,428.1c-0.9,0-1.8-0.4-2.5-0.4c-2.3,0-3.9,1.4-3.9,3.4c0,4.4,5.8,3.5,5.8,6.4c0,1.6-0.9,2.3-2.5,2.3c-0.7,0-2.1-0.4-2.5-1.1
		c-0.2-0.5-0.5-1.2-0.5-2.1l-0.5,0.2l0.2,2.8c0.9,0.5,2.3,0.9,3.5,0.9c2.5,0,4.1-1.6,4.1-3.7c0-3.5-5.8-2.8-5.8-6
		c0-1.2,0.7-1.9,1.9-1.9c1.6,0,2.1,0.9,2.3,2.1h0.5L156.7,428.1z M150.9,369.4l2.8-13.1h0.2v13.1H150.9z M156.7,402.1l-2.8,13.3
		h-0.2v-13.1L156.7,402.1L156.7,402.1z M170,383l13.3,2.8l0,0H170V383z M202.3,386l0.4,1.4h0.5c-0.2-0.9-0.2-2.5,0-3.5h-0.5
		l-0.4,1.2h-3v-4.2h3.7l0.4,1.4h0.5l-0.2-2.7h-8v0.5l1.6,0.4v10.2l-1.6,0.4v0.5h8.7l0.7-2.8h-0.7l-0.7,1.8h-4.6v-4.8L202.3,386z"/>
	<path class="st2" d="M101.1,378.8v0.5l1.6,0.4c-0.2,0.5-0.4,1.2-0.5,1.9l-2.1,6.5l-2.5-8.5l1.6-0.4v-0.5h-4.6v0.5l1.4,0.4l3.2,11.3
		h0.9l3-9l2.8,9h0.9l3.7-11.3l1.1-0.4v-0.5h-3.9v0.5l1.8,0.4l-2.7,8.5l-2.7-8.5l1.8-0.4v-0.5H101.1z M148.8,368.6
		c-4.9,0.9-11.5,6.2-12.4,12.5l-17.3,3.9l0,0l17.3,3.9c0.9,6.4,7.4,11.7,12.4,12.4l3.9,17.3h0.2l3.9-17.3c4.9-0.9,11.5-6,12.4-12.4
		l17.3-3.9v-0.2l-17.3-3.9c-0.9-6.4-7.4-11.7-12.4-12.4l-3.9-17.3h-0.2L148.8,368.6z M136.5,387.8l-13.1-2.8l0,0h13.1V387.8z
		 M137.9,385c0-8.3,5.3-14.8,14.8-14.8c9.5,0,14.8,6.5,14.8,14.8s-5.3,14.8-14.8,14.8C143.2,399.9,137.9,393.3,137.9,385z
		 M155.7,427.3c-0.9,0-1.8-0.4-2.5-0.4c-2.3,0-3.9,1.4-3.9,3.4c0,4.4,5.8,3.5,5.8,6.4c0,1.6-0.9,2.3-2.5,2.3c-0.7,0-2.1-0.4-2.5-1.1
		c-0.2-0.5-0.5-1.2-0.5-2.1l-0.5,0.2l0.2,2.8c0.9,0.5,2.3,0.9,3.5,0.9c2.5,0,4.1-1.6,4.1-3.7c0-3.5-5.8-2.8-5.8-6
		c0-1.2,0.7-1.9,1.9-1.9c1.6,0,2.1,0.9,2.3,2.1h0.5L155.7,427.3z M149.9,368.6l2.8-13.1h0.2v13.1H149.9z M155.7,401.3l-2.8,13.3
		h-0.2v-13.1L155.7,401.3L155.7,401.3z M169,382.2l13.3,2.8l0,0H169V382.2z M201.3,385.2l0.4,1.4h0.5c-0.2-0.9-0.2-2.5,0-3.5h-0.5
		l-0.4,1.2h-3v-4.2h3.7l0.4,1.4h0.5l-0.2-2.7h-8v0.5l1.6,0.4V390l-1.6,0.4v0.5h8.7l0.7-2.8h-0.7l-0.7,1.8h-4.6V385L201.3,385.2z"/>
	<g>
		<path d="M143.6,326.5h4.8l11,13.3v-10.1c0-1.1-0.2-1.8-0.4-2.1c-0.4-0.4-0.9-0.5-1.6-0.5h-0.5v-0.5h6.2v0.5h-0.7
			c-0.7,0-1.2,0.2-1.6,0.7c-0.2,0.4-0.4,0.9-0.4,1.9v15h-0.5l-11.7-14.3v11c0,1.1,0.2,1.8,0.4,2.1c0.4,0.4,0.9,0.5,1.6,0.5h0.7v0.5
			h-6.2V344h0.5c0.7,0,1.2-0.2,1.6-0.7c0.2-0.4,0.4-0.9,0.4-1.9V329c-0.5-0.5-0.9-1.1-1.2-1.2s-0.7-0.4-1.2-0.5
			c-0.2,0-0.7-0.2-1.2-0.2L143.6,326.5L143.6,326.5z"/>
	</g>
	<g>
		<path class="st3" d="M142.6,325.6h4.8l11,13.3v-10.1c0-1.1-0.2-1.8-0.4-2.1c-0.4-0.4-0.9-0.5-1.6-0.5h-0.5v-0.5h6.2v0.5h-0.7
			c-0.7,0-1.2,0.2-1.6,0.7c-0.2,0.4-0.4,0.9-0.4,1.9v15h-0.5l-11.7-14.3v11c0,1.1,0.2,1.8,0.4,2.1c0.4,0.4,0.9,0.5,1.6,0.5h0.7v0.5
			h-6.2v-0.5h0.5c0.7,0,1.2-0.2,1.6-0.7c0.2-0.4,0.4-0.9,0.4-1.9v-12.4c-0.5-0.5-0.9-1.1-1.2-1.2c-0.4-0.2-0.7-0.4-1.2-0.5
			c-0.2,0-0.7-0.2-1.2-0.2L142.6,325.6L142.6,325.6z"/>
	</g>
	<circle cx="153.3" cy="386" r="6.2"/>
	<circle class="st2" cx="152.5" cy="385.2" r="6.2"/>
</g>
</svg>
