<?xml version="1.0" encoding="utf-8"?>
<!-- Generator: Adobe Illustrator 19.0.0, SVG Export Plug-In . SVG Version: 6.00 Build 0)  -->
<svg version="1.1" xmlns="http://www.w3.org/2000/svg" xmlns:xlink="http://www.w3.org/1999/xlink" x="0px" y="0px"
	 viewBox="0 0 1465 1465" style="enable-background:new 0 0 1465 1465;" xml:space="preserve">
<style type="text/css">
	.st0{display:none;}
	.st1{display:inline;opacity:0;fill:#B3B3B3;}
	.st2{fill-rule:evenodd;clip-rule:evenodd;fill:#BB1919;}
	.st3{opacity:0.6;fill-rule:evenodd;clip-rule:evenodd;fill:url(#SVGID_1_);}
	.st4{fill:#FFFFFF;}
</style>
<g id="Podlojki" class="st0">
	<rect x="220.5" y="220.5" class="st1" width="1024" height="1024"/>
</g>
<g id="Layer_6">
	
		<rect x="-64.6" y="394.3" transform="matrix(0.7071 -0.7071 0.7071 0.7071 -232.0162 560.1365)" class="st2" width="1249.6" height="331.6"/>
	<linearGradient id="SVGID_1_" gradientUnits="userSpaceOnUse" x1="439.8716" y1="439.8716" x2="688.2485" y2="688.2485">
		<stop  offset="0" style="stop-color:#FF9600;stop-opacity:0.45"/>
		<stop  offset="0.1333" style="stop-color:#FF8A00;stop-opacity:0.39"/>
		<stop  offset="0.7118" style="stop-color:#FF5A00;stop-opacity:0.1297"/>
		<stop  offset="1" style="stop-color:#FF4800;stop-opacity:0"/>
	</linearGradient>
	<polygon class="st3" points="1119.2,235.6 235.6,1119.2 1.1,884.7 884.7,1.1 	"/>
</g>
<g id="Layer_3">
	<g>
		
			<image style="overflow:visible;opacity:0.1;" width="554" height="590" xlink:href="C948FD1A.png"  transform="matrix(1 0 0 1 276.5043 264.5043)">
		</image>
		<g>
			<g>
				<path class="st4" d="M535.5,729.6l-33.6,33.6l-150.3-43.3l96.8,96.8l-31.9,31.9L277.7,709.7l42.8-42.8l123.8,35.2l-79.5-79.5
					l31.9-31.9L535.5,729.6z"/>
				<path class="st4" d="M563.6,701.4L424.8,562.6l93.9-93.9l26.5,26.5L486,554.4l24.3,24.3l54.5-54.5l26.5,26.5l-54.5,54.5
					l35.1,35.1l59.2-59.2l26.5,26.5L563.6,701.4z"/>
				<path class="st4" d="M721.4,266.1L825,440l-38.2,38.2l-108.1-63.6l64.2,107.5l-38.2,38.2l-174-103.7l36.2-36.2l112.2,74
					l-69.8-116.4l34.6-34.6l115.2,71l-73-113.3L721.4,266.1z"/>
			</g>
		</g>
	</g>
</g>
</svg>
