<?xml version="1.0" encoding="utf-8"?>
<!-- Generator: Adobe Illustrator 21.1.0, SVG Export Plug-In . SVG Version: 6.00 Build 0)  -->
<svg version="1.1" id="Layer_2" xmlns="http://www.w3.org/2000/svg" xmlns:xlink="http://www.w3.org/1999/xlink" x="0px" y="0px"
	 viewBox="0 0 128 128" style="enable-background:new 0 0 128 128;" xml:space="preserve">
<style type="text/css">
	.st0{display:none;fill:none;stroke:#000000;stroke-width:8;stroke-linecap:round;stroke-linejoin:round;}
	.st1{fill:#FFFFFF;}
</style>
<polyline class="st0" points="23.5,91 23.5,63.7 23.5,8.3 71.5,36 119.5,63.7 71.5,91.5 23.5,119.2 "/>
<g>
	<path class="st1" d="M33.5,118.2c-2.2,0-4-1.8-4-4V14c0-2.2,1.8-4,4-4s4,1.8,4,4v100.2C37.5,116.4,35.7,118.2,33.5,118.2z"/>
</g>
<g>
	<path class="st1" d="M93.3,118.2c-2.2,0-4-1.8-4-4V14c0-2.2,1.8-4,4-4s4,1.8,4,4v100.2C97.3,116.4,95.5,118.2,93.3,118.2z"/>
</g>
</svg>
