<?xml version="1.0" encoding="utf-8"?>
<!-- Generator: Adobe Illustrator 21.1.0, SVG Export Plug-In . SVG Version: 6.00 Build 0)  -->
<svg version="1.1" id="Layer_2" xmlns="http://www.w3.org/2000/svg" xmlns:xlink="http://www.w3.org/1999/xlink" x="0px" y="0px"
	 viewBox="0 0 128 128" style="enable-background:new 0 0 128 128;" xml:space="preserve">
<style type="text/css">
	.st0{fill-rule:evenodd;clip-rule:evenodd;fill:#A1905D;}
	.st1{fill:#FFFFFF;}
</style>
<g>
	<path class="st0" d="M71.1,126.1c-3.3,0-5.5-1.7-6.8-3.6c-1.2,1.9-3.4,3.3-7,3.3c-5.4,0-7.9-4-7.9-8c0-1.6,0-40,0-44.5
		c-1,0.6-2.2,0.9-3.7,0.9c-1.5,0-2.7-0.5-3.7-1.5c-2.3-2.3-2.2-6.6-2.1-10.4c0-0.6,0-1.2,0-1.7V43l0-2.3c0-7.2,0-8.3,3.1-11.9
		c0-0.1,0.1-0.1,0.2-0.2c2.3-2.1,4.5-2.3,6.9-2.3c0,0,4.5,0,5.9,0c-3.5-2.4-6-6.5-6-10.7c0-7,6.7-13.8,13.4-13.8
		c6.7,0,13.3,6.8,13.3,13.6c0,4.3-2.6,8.4-6.3,10.9h8.2c2.5,0,7,0.9,9.1,7.1c0,0.1,0.1,0.3,0.1,0.4c0.2,2.2,0.2,3,0.1,4.4
		c0,0.9-0.1,2.2-0.1,4.5v17.3l0,0.9c0,3.7,0.1,8.7-2.4,11.2c-0.9,0.9-2.2,1.4-3.5,1.4c-1.4,0-2.5-0.4-3.3-1c0,16.8,0,38.7,0,45.8
		C78.6,121.4,75.2,126.1,71.1,126.1z"/>
	<path class="st1" d="M63.6,3.9c5.7,0,11.3,5.9,11.3,11.6c0,5.8-5.8,11.2-11.6,11.2c-5.7,0-11.2-5.3-11.2-11.1
		C52.2,9.9,57.9,3.9,63.6,3.9 M50.2,28.4c0.4,0,0.9,0,1.3,0c5.7,0,8.5,0,14.3,0c4.7,0,6.8,0,12.9,0c2.9,0,5.7,1.4,7.2,5.8
		c0.4,3.5,0,3,0,8.7c0,5.7,0,11.7,0,17.3c0,4.1,0.4,11.5-3.9,11.5c-2.9,0-4-2-4-9.6c0-4.6,0-7.9,0-11.1c0-2.8,0-3.5-0.7-3.5
		c-0.7,0-0.6,2.5-0.6,4.5c0,3.6-0.1,55-0.1,66.5c0,1.9-2.6,5.6-5.5,5.6c-4.3,0-6.2-3.9-6.2-5.7c0-5.3,0-27.7,0-30.3
		c0-2.9,0.1-4.3-0.6-4.3c-0.7,0-0.8,1.4-0.8,4.3c0,2.5,0,25.1,0,30.3c0,2.9-1.8,5.4-6.1,5.4c-4.3,0-5.9-3.1-5.9-6
		c0-3.4,0-61.6,0-65.7c0-4.5,0-4.5-0.8-4.5c-0.8,0-0.6,0.7-0.6,4.9c0,3.8,0,5.5,0,12c0,4.6,0,7.7-4.3,7.7c-4.5,0-3.8-7.1-3.8-11.6
		c0-5.1,0-13.1,0-17.6c0-9.2-0.3-9.5,2.6-12.8C46.5,28.6,48.1,28.4,50.2,28.4 M63.6-0.1c-7.9,0-15.4,7.7-15.4,15.8
		c0,3.2,1.2,6.2,3.1,8.7l-0.4,0l-0.7,0c-2.6,0-5.4,0.2-8.2,2.8c-0.1,0.1-0.2,0.2-0.3,0.3c-3.6,4.1-3.6,5.9-3.6,13.2
		c0,0.7,0,1.5,0,2.3v17.6c0,0.5,0,1.1,0,1.7c-0.1,4.2-0.2,9,2.7,11.9c1.3,1.4,3.1,2.1,5.1,2.1c0.6,0,1.2,0,1.7-0.1
		c0,3.8,0,7.7,0,11.5c0,14.7,0,28.6,0,30.2c0,5.9,4.1,10,9.9,10c3,0,5.3-0.9,7-2.3c1.7,1.5,4,2.6,6.8,2.6c5.4,0,9.5-5.8,9.5-9.6
		c0-6.7,0-26.5,0-42.9c0.4,0.1,0.9,0.1,1.4,0.1c1.9,0,3.6-0.7,5-2c3-3.1,3-8.6,3-12.6c0-0.3,0-0.6,0-0.9V42.9c0-2.3,0.1-3.5,0.1-4.4
		c0.1-1.5,0.1-2.4-0.1-4.7c0-0.3-0.1-0.6-0.2-0.8c-1.8-5.4-5.8-8.5-11-8.5h-3.2c2-2.6,3.3-5.7,3.3-8.9C78.9,7.5,71.5-0.1,63.6-0.1
		L63.6-0.1z"/>
</g>
</svg>
