<?xml version="1.0" encoding="utf-8"?>
<!-- Generator: Adobe Illustrator 21.1.0, SVG Export Plug-In . SVG Version: 6.00 Build 0)  -->
<svg version="1.1" id="Layer_2" xmlns="http://www.w3.org/2000/svg" xmlns:xlink="http://www.w3.org/1999/xlink" x="0px" y="0px"
	 viewBox="0 0 128 128" style="enable-background:new 0 0 128 128;" xml:space="preserve">
<style type="text/css">
	.st0{fill:#FFFFFF;}
</style>
<g>
	<path class="st0" d="M71.1,126.1c-3.3,0-5.5-1.7-6.8-3.6c-1.2,1.9-3.4,3.3-7,3.3c-5.4,0-7.9-4-7.9-8c0-1.6,0-15.5,0-30.2
		c0-4.8,0-9.8,0-14.4c-1,0.6-2.2,0.9-3.7,0.9c-1.5,0-2.7-0.5-3.7-1.5c-2.3-2.3-2.2-6.6-2.1-10.4c0-0.6,0-1.2,0-1.7l0-19.9
		c0-7.2,0-8.3,3.1-11.9l0.2-0.2c2.5-2.3,5-2.3,7.5-2.3l0.7,0c1.7,0,3.2,0,4.6,0c-3.5-2.4-6-6.5-6-10.7c0-7,6.7-13.8,13.4-13.8
		c6.7,0,13.3,6.8,13.3,13.6c0,4.3-2.6,8.4-6.3,10.9h8.2c2.5,0,7,0.9,9.1,7.1L88,34c0.2,2.2,0.2,3,0.1,4.4c0,0.9-0.1,2.2-0.1,4.5
		l0,18.2c0,3.7,0.1,8.7-2.4,11.2c-0.9,0.9-2.2,1.4-3.5,1.4c-1.4,0-2.5-0.4-3.3-1c0,16.8,0,38.7,0,45.8
		C78.6,121.4,75.2,126.1,71.1,126.1z M64.3,81.9c0.7,0,1.3,0.3,1.7,0.7c0.9,0.9,0.9,2.2,0.9,4.7l0,0.9v30.3c0,0.8,1.1,3.7,4.2,3.7
		c1.7,0,3.5-2.7,3.5-3.6c0-7.4,0-31.1,0-48.2c0-9.6,0-17,0-18.3c0-0.3,0-0.6,0-0.9c0-2.2,0-3.9,0.9-4.8c0.4-0.4,1-0.7,1.6-0.7
		c1.1,0,2.3,0.6,2.6,2.3c0.1,0.7,0.1,1.5,0.1,3.1v11.2c0,7.6,1.2,7.6,2,7.6c0.4,0,0.5-0.1,0.7-0.3c1.3-1.3,1.3-5.9,1.2-8.4l0-0.9
		V42.9c0-2.4,0.1-3.7,0.1-4.7c0.1-1.2,0.1-1.8-0.1-3.5c-1-2.8-2.7-4.2-5.2-4.2H65.9c-2.9,0-5,0-7.2,0c-2.1,0-4.3,0-7.1,0l-0.7,0
		c-2.3,0-3.4,0-4.7,1.2c-2.1,2.4-2.1,2.4-2,9.1l0,19.9c0,0.6,0,1.2,0,1.8c0,2.6-0.1,6.4,1,7.6c0.1,0.1,0.3,0.3,0.8,0.3
		c1.5,0,1.7-0.5,1.9-0.8c0.4-1,0.4-2.7,0.4-4.7v-0.1c0-3.7,0-5.8,0-7.7l0-4.4c0-0.9,0-1.6,0-2.2c0-2.1,0-3.1,0.8-4
		c0.3-0.3,0.9-0.7,1.8-0.7c2,0,2.5,1.4,2.7,2.2c0.1,0.7,0.1,1.8,0.1,4.2v0.1c0,2.2,0,19.3,0,35.5c0,14.7,0,28.6,0,30.2
		c0,1.8,0.7,4,3.9,4c2.7,0,4.1-1.2,4.1-3.4V88.2C61.5,85.1,61.5,81.9,64.3,81.9z M63.6,5.9c-4.6,0-9.4,5-9.4,9.8
		c0,4.7,4.5,9.1,9.2,9.1c4.7,0,9.6-4.7,9.6-9.2C72.9,10.8,68.2,5.9,63.6,5.9z"/>
</g>
<g>
	<path class="st0" d="M97.7,4.8v9.4h9.1v2.4h-9.1v9.5h-2.6v-9.5h-9.1v-2.4h9.1V4.8H97.7z"/>
</g>
</svg>
