<?xml version="1.0" encoding="utf-8"?>
<!-- Generator: Adobe Illustrator 21.1.0, SVG Export Plug-In . SVG Version: 6.00 Build 0)  -->
<svg version="1.1" id="Layer_2" xmlns="http://www.w3.org/2000/svg" xmlns:xlink="http://www.w3.org/1999/xlink" x="0px" y="0px"
	 viewBox="0 0 128 128" style="enable-background:new 0 0 128 128;" xml:space="preserve">
<style type="text/css">
	.st0{fill:#FFFFFF;}
</style>
<g>
	<path class="st0" d="M27.1,125.5c-0.5,0-1-0.1-1.5-0.3c-15-5.8-24.6-20-24.6-36c0-5.9,1.3-11.6,3.9-16.9c0,0,0-0.1,0-0.1l0.8-1.6
		c0.1-0.1,0.2-0.3,0.2-0.4c17.4-25.5,39.2-47,66.6-65.7c0.2-0.2,0.5-0.4,0.8-0.5C78.3,1.8,83.6,0.7,89,0.7
		c15.6,0,29.5,9.3,35.6,23.6c0.9,2-0.1,4.4-2.1,5.2c-2,0.9-4.4-0.1-5.2-2.1C112.4,16,101.3,8.7,89,8.7c-4.2,0-8.2,0.8-12,2.4
		C50.6,29.2,29.5,50,12.8,74.5l-0.7,1.3C10,80,9,84.5,9,89.2c0,12.7,7.7,24,19.5,28.6c2.1,0.8,3.1,3.1,2.3,5.2
		C30.2,124.5,28.7,125.5,27.1,125.5z"/>
</g>
<g>
	<path class="st0" d="M94,59.4c-1,0-2-0.4-2.8-1.1L79.7,47.4c-1.6-1.5-1.7-4.1-0.1-5.7c1.5-1.6,4.1-1.7,5.7-0.1l8.7,8.2l13.7-14
		c1.5-1.6,4.1-1.6,5.7-0.1c1.6,1.5,1.6,4.1,0.1,5.7L96.8,58.2C96.1,59,95,59.4,94,59.4z"/>
</g>
<g>
	<path class="st0" d="M40.2,113.3c-1,0-2-0.4-2.8-1.1c-1.6-1.5-1.6-4.1-0.1-5.7l13.8-14.1l-9-8.4c-1.6-1.5-1.7-4-0.2-5.7
		c1.5-1.6,4-1.7,5.7-0.2l12,11.2c0.8,0.7,1.2,1.8,1.3,2.8c0,1.1-0.4,2.1-1.1,2.9l-16.7,17C42.3,112.9,41.2,113.3,40.2,113.3z"/>
</g>
</svg>
