<?xml version="1.0" encoding="utf-8"?>
<!-- Generator: Adobe Illustrator 21.0.2, SVG Export Plug-In . SVG Version: 6.00 Build 0)  -->
<svg version="1.1" xmlns="http://www.w3.org/2000/svg" xmlns:xlink="http://www.w3.org/1999/xlink" x="0px" y="0px"
	 viewBox="0 0 128 128" style="enable-background:new 0 0 128 128;" xml:space="preserve">
<style type="text/css">
	.st0{fill:#FFFFFF;}
</style>
<g id="Podlojki">
</g>
<g id="Layer_2">
	<g>
		<path class="st0" d="M23.5,123.2c-1.4,0-2.7-0.7-3.5-2c-1.1-1.9-0.4-4.4,1.5-5.5l90-52l-84-48.5V91c0,2.2-1.8,4-4,4s-4-1.8-4-4
			V8.3c0-1.4,0.8-2.7,2-3.5c1.2-0.7,2.8-0.7,4,0l96,55.4c1.2,0.7,2,2,2,3.5s-0.8,2.7-2,3.5l-96,55.4C24.8,123,24.2,123.2,23.5,123.2
			z"/>
	</g>
</g>
</svg>
