<?xml version="1.0" encoding="utf-8"?>
<!-- Generator: Adobe Illustrator 21.1.0, SVG Export Plug-In . SVG Version: 6.00 Build 0)  -->
<svg version="1.1" id="Layer_2" xmlns="http://www.w3.org/2000/svg" xmlns:xlink="http://www.w3.org/1999/xlink" x="0px" y="0px"
	 viewBox="0 0 128 128" style="enable-background:new 0 0 128 128;" xml:space="preserve">
<style type="text/css">
	.st0{display:none;}
	.st1{display:inline;fill:none;stroke:#000000;stroke-width:8;stroke-linecap:round;stroke-linejoin:round;}
	.st2{display:inline;fill:none;stroke:#000000;stroke-width:8;stroke-linecap:round;stroke-linejoin:round;stroke-miterlimit:10;}
	.st3{fill:#FFFFFF;}
</style>
<g class="st0">
	<line class="st1" x1="7.7" y1="43.1" x2="7.7" y2="83.7"/>
	<line class="st1" x1="28.1" y1="83.7" x2="7.7" y2="83.7"/>
	<line class="st1" x1="28.1" y1="43.1" x2="7.7" y2="43.1"/>
	<line class="st1" x1="28.1" y1="83.7" x2="68.5" y2="114.2"/>
	<line class="st1" x1="68.3" y1="13" x2="28.1" y2="43.1"/>
	<line class="st1" x1="68.5" y1="114.2" x2="68.5" y2="13"/>
</g>
<g class="st0">
	<path class="st1" d="M79.4,83.5c11.2-11.2,11.2-29.3,0-40.5"/>
	<path class="st1" d="M91.2,97.3c18.8-18.8,18.8-49.2,0-68"/>
	<path class="st1" d="M104.1,107.2c24.3-24.3,24.3-63.6,0-87.9"/>
</g>
<g class="st0">
	<line class="st2" x1="15.2" y1="12" x2="117.3" y2="114.2"/>
	<line class="st2" x1="17.6" y1="114.2" x2="119.7" y2="12"/>
</g>
<path class="st3" d="M125.7,98.4c0-0.1,0-0.2,0-0.3V5.3c0-0.1,0-0.2,0-0.3c0-0.1,0-0.2,0-0.3c0,0,0-0.1,0-0.1c0-0.1-0.1-0.3-0.1-0.4
	c0-0.1-0.1-0.2-0.1-0.3c-0.1-0.1-0.1-0.2-0.2-0.4c-0.1-0.1-0.1-0.2-0.2-0.3C125,3,125,2.9,124.9,2.8c-0.1-0.1-0.2-0.2-0.2-0.3
	c-0.1-0.1-0.2-0.2-0.3-0.3c-0.1-0.1-0.2-0.2-0.3-0.2c-0.1-0.1-0.2-0.1-0.4-0.2c-0.1-0.1-0.2-0.1-0.3-0.2c-0.1-0.1-0.2-0.1-0.4-0.1
	c-0.1,0-0.2-0.1-0.4-0.1c-0.1,0-0.2,0-0.4-0.1c-0.1,0-0.3,0-0.4,0c0,0-0.1,0-0.1,0c-0.1,0-0.2,0-0.3,0c-0.1,0-0.2,0-0.3,0L42.7,13.8
	c0,0-0.1,0-0.1,0c-0.1,0-0.3,0.1-0.4,0.1c-0.1,0-0.2,0.1-0.3,0.1c-0.1,0-0.2,0.1-0.4,0.2c-0.1,0.1-0.2,0.1-0.3,0.2
	c-0.1,0.1-0.2,0.1-0.3,0.2c-0.1,0.1-0.2,0.2-0.3,0.3c-0.1,0.1-0.2,0.2-0.2,0.3c-0.1,0.1-0.2,0.2-0.2,0.3c-0.1,0.1-0.1,0.2-0.2,0.3
	c-0.1,0.1-0.1,0.2-0.2,0.3c-0.1,0.1-0.1,0.2-0.1,0.4c0,0.1-0.1,0.3-0.1,0.4c0,0.1,0,0.2-0.1,0.4c0,0.1,0,0.3,0,0.4c0,0,0,0.1,0,0.1
	v92c-1.9,4.4-6.5,7.7-12.1,8.9c-4.2,0.9-8.4,0.3-11.8-1.5c-3.2-1.7-5.2-4.3-5.9-7.3c-0.6-3,0.3-6.2,2.5-9c2.4-3,6.1-5.1,10.3-6
	c2.2-0.4,3.6-2.6,3.1-4.7s-2.6-3.6-4.7-3.1c-6,1.2-11.3,4.3-14.9,8.8c-3.8,4.7-5.2,10.2-4.1,15.6s4.6,10,9.9,12.8
	c3.5,1.9,7.5,2.8,11.7,2.8c1.8,0,3.7-0.2,5.5-0.6c8.4-1.7,15.4-7.2,18.1-14.3c0,0,0,0,0-0.1c0,0,0-0.1,0-0.1c0-0.1,0-0.2,0.1-0.3
	c0-0.1,0.1-0.3,0.1-0.4c0-0.1,0-0.3,0-0.4c0-0.1,0-0.2,0-0.3V41.8l70.5-11.2v66.7c-1.9,4.4-6.5,7.7-12.1,8.9
	c-8.4,1.7-16.3-2.2-17.7-8.8s4.4-13.3,12.8-15c2.2-0.4,3.6-2.6,3.1-4.7c-0.4-2.2-2.6-3.6-4.7-3.1C86.5,77.1,78,88,80.2,98.9
	c1.9,9.3,11.1,15.6,21.7,15.6c1.8,0,3.6-0.2,5.4-0.6c8.4-1.7,15.4-7.2,18.1-14.3c0,0,0,0,0-0.1c0,0,0-0.1,0-0.1c0-0.1,0-0.2,0.1-0.3
	c0-0.1,0.1-0.3,0.1-0.4C125.7,98.6,125.7,98.5,125.7,98.4z M47.3,33.7V21.2L117.8,10v12.5L47.3,33.7z"/>
</svg>
