<?xml version="1.0" encoding="utf-8"?>
<!-- Generator: Adobe Illustrator 21.1.0, SVG Export Plug-In . SVG Version: 6.00 Build 0)  -->
<svg version="1.1" id="Layer_2" xmlns="http://www.w3.org/2000/svg" xmlns:xlink="http://www.w3.org/1999/xlink" x="0px" y="0px"
	 viewBox="0 0 128 128" style="enable-background:new 0 0 128 128;" xml:space="preserve">
<style type="text/css">
	.st0{fill:#FFFFFF;}
</style>
<path class="st0" d="M67,56.5c-11.8-5.7-16-9.2-16-17.3C51,32.8,55.3,26,64.8,26c6.5,0,11.4,2.3,14.3,4.3c0.5,0.3,1,0.4,1.6,0.3
	c0.5-0.1,1-0.5,1.3-1l2.9-5.2c0.5-0.9,0.2-2-0.6-2.6c-2.5-1.7-7.7-4.6-15.3-5.2V4.3c0-1.1-0.9-2-2-2h-5.8c-1.1,0-2,0.9-2,2v12.9
	C48.1,19.6,40.5,29,40.5,40.4c0,13.5,10.7,20.3,22.3,25.7c10.2,5,14.6,10.5,14.6,18.5c0,9.1-6.5,15.4-15.8,15.4
	c-5.5,0-11.8-2.1-16-5.5c-0.5-0.4-1.1-0.5-1.6-0.4c-0.6,0.1-1.1,0.5-1.4,1l-2.9,5.2c-0.5,0.9-0.3,1.9,0.5,2.5
	c4.6,3.7,11.5,6.2,18.4,6.6v12.7c0,1.1,0.9,2,2,2h5.8c1.1,0,2-0.9,2-2v-13.3c11.8-2.7,19.6-12.5,19.6-25
	C87.8,71.9,81.4,63.4,67,56.5z"/>
</svg>
