<?xml version="1.0" encoding="utf-8"?>
<!-- Generator: Adobe Illustrator 22.0.1, SVG Export Plug-In . SVG Version: 6.00 Build 0)  -->
<svg version="1.1" xmlns="http://www.w3.org/2000/svg" xmlns:xlink="http://www.w3.org/1999/xlink" x="0px" y="0px"
	 viewBox="0 0 128 128" style="enable-background:new 0 0 128 128;" xml:space="preserve">
<style type="text/css">
	.st0{fill:#FFFFFF;}
	.st1{display:none;}
	.st2{display:inline;fill:none;stroke:#000000;stroke-width:8;stroke-linecap:round;stroke-linejoin:round;}
</style>
<g id="Podlojki">
	<g>
		<path class="st0" d="M123.8,127.8H4.2c-2.2,0-4-1.8-4-4V4.2c0-2.2,1.8-4,4-4h119.7c2.2,0,4,1.8,4,4v119.7
			C127.8,126,126,127.8,123.8,127.8z M8.2,119.8h111.7V8.2H8.2V119.8z"/>
	</g>
	<g>
		<path class="st0" d="M104,38H23.7c-2.2,0-4-1.8-4-4s1.8-4,4-4H104c2.2,0,4,1.8,4,4S106.2,38,104,38z"/>
	</g>
	<g>
		<path class="st0" d="M104,68H23.7c-2.2,0-4-1.8-4-4s1.8-4,4-4H104c2.2,0,4,1.8,4,4S106.2,68,104,68z"/>
	</g>
	<g>
		<path class="st0" d="M104,98H23.7c-2.2,0-4-1.8-4-4s1.8-4,4-4H104c2.2,0,4,1.8,4,4S106.2,98,104,98z"/>
	</g>
</g>
<g id="Layer_2" class="st1">
	<path class="st2" d="M61.2,92.1C42,97.5,21.1,89.5,10.6,71.7c-11.7-20-6.2-45.6,12.7-59c18.9-13.4,44.9-10,59.9,7.7
		s13.8,43.9-2.6,60.3c14.3,14.3,28.5,28.5,42.8,42.8"/>
</g>
</svg>
