<?xml version="1.0" encoding="utf-8"?>
<!-- Generator: Adobe Illustrator 21.1.0, SVG Export Plug-In . SVG Version: 6.00 Build 0)  -->
<svg version="1.1" id="Layer_2" xmlns="http://www.w3.org/2000/svg" xmlns:xlink="http://www.w3.org/1999/xlink" x="0px" y="0px"
	 viewBox="0 0 128 128" style="enable-background:new 0 0 128 128;" xml:space="preserve">
<style type="text/css">
	.st0{fill:#FF0000;}
	.st1{display:none;}
	.st2{display:inline;fill:none;stroke:#000000;stroke-width:8;stroke-linecap:round;stroke-linejoin:round;}
	.st3{display:inline;fill:none;stroke:#000000;stroke-width:8;stroke-linecap:round;stroke-linejoin:round;stroke-miterlimit:10;}
	.st4{fill:#FFFFFF;}
</style>
<polygon class="st0" points="107.8,115.2 2.5,115.2 2.5,88.4 11.7,77.6 11.7,37.9 98,37.9 98,76.2 107.8,89.2 "/>
<g class="st1">
	<polyline class="st2" points="72,6.5 121.5,6.5 121.5,121.5 6.5,121.5 6.5,6.5 55.3,6.5 	"/>
	<polyline class="st3" points="97.7,83.8 70.8,109.2 70.8,70.5 106.5,70.5 	"/>
	<line class="st2" x1="55.3" y1="6.5" x2="55.3" y2="33.3"/>
	<line class="st2" x1="55.3" y1="33.3" x2="25.7" y2="33.3"/>
	<line class="st2" x1="72" y1="6.5" x2="72" y2="33.3"/>
	<line class="st2" x1="72" y1="33.3" x2="103.5" y2="33.3"/>
</g>
<g>
	<path d="M111.3,91.2c0,11.8,0,23.6,0,35.4c-1,1.3-1.8,1.7-3,1.3c-1.1-0.4-1.6-1.2-1.6-2.8c0-1.9,0-3.8,0-5.7
		c-33.6,0-67.1,0-100.6,0c0,0.5,0,0.9,0,1.3c0,1.7,0,3.4,0,5c0,1.1-0.5,1.8-1.6,2.2c-0.9,0.3-1.7,0.1-2.4-0.6
		c-0.3-0.3-0.5-0.8-0.7-1.2c0-10.9,0-21.9,0-32.8c0.1-0.7,0.2-1.5,0.3-2.2c0.9-5,3.9-8.7,7.8-11.7c0.8-0.6,1.1-1.2,1.1-2.2
		c0-12.4,0-24.7,0-37.1c0-2.5,0.7-3.2,3.2-3.2c28.1,0,56.2,0,84.3,0c3.6,0,4,0.4,4,4c0,12.2,0,24.4,0,36.5c0,0.9,0.3,1.3,1,1.8
		c3,2.2,5.4,4.9,6.9,8.3C110.6,88.7,110.9,90,111.3,91.2z M6.2,96.5c0,6.1,0,12.1,0,18.1c33.5,0,67,0,100.5,0c0-6.1,0-12.1,0-18.1
		C73.2,96.5,39.7,96.5,6.2,96.5z M97.6,41.5c-0.4,0-0.7,0-1,0c-26.8,0-53.5,0-80.3,0c-0.9,0-1.1,0.3-1.1,1.1c0,10.8,0,21.5,0,32.3
		c0,0.3,0,0.7,0,1.1c1.6-0.5,3-1,4.5-1.4c1.5-0.4,3.1-0.6,4.7-1c0-0.3,0-0.7,0-1c0-3.4,0-6.8,0-10.2c-0.1-3.6,3.7-7.6,8.1-6.3
		c3.7,1.1,7.4,1.1,11.1,0.1c4.2-1,8.2,2.2,8.2,6.5c0,3.2,0,6.4,0,9.5c0,0.4,0,0.8,0,1.2c1.6,0,3.1,0,4.6,0c1.5,0,3,0,4.5,0
		c0-0.6,0-0.9,0-1.3c0-3.3,0-6.6,0-9.9c-0.1-3.8,3.9-7.6,8.1-6.3c3.6,1.1,7.4,1.1,11.1,0.1c0.4-0.1,0.9-0.2,1.4-0.2
		c3.6-0.1,6.8,3.1,6.9,6.8c0,3.3,0,6.6,0,10c0,0.7,0.2,0.9,0.9,1.1c2.4,0.5,4.8,1.2,7.2,1.8c0.3,0.1,0.6,0.2,0.9,0.3
		C97.6,64.4,97.6,53,97.6,41.5z M6.2,91.8c33.6,0,67,0,100.6,0c-0.5-1.4-0.9-2.7-1.5-3.9c-1.8-3.6-5-5.8-8.5-7.5
		c-3.3-1.6-6.9-2.3-10.6-2.3c-19,0-38,0-57,0c-5.4,0-10.5,0.7-15.3,3.6c-2.8,1.7-5,3.7-6.5,6.6C6.9,89.3,6.6,90.5,6.2,91.8z
		 M47.3,73.5c0-0.9,0-1.7,0-2.5c0-2.9,0-5.7,0-8.6c0-1.6-0.7-2.3-2.1-1.9c-4.9,1.3-9.7,1.1-14.5-0.2c-1.1-0.3-1.5,0-1.7,1.1
		c-0.1,0.3-0.1,0.6-0.1,1c0,3.4,0,6.9,0,10.3c0,0.3,0.1,0.5,0.1,0.8C35.2,73.5,41.2,73.5,47.3,73.5z M65.6,73.5c6.1,0,12.1,0,18.2,0
		c0-3.9,0-7.8,0-11.6c0-1.1-0.8-1.6-2.1-1.3c-4.8,1.3-9.5,1.1-14.3-0.1c-1.3-0.3-1.8,0-1.8,1.3C65.6,65.6,65.6,69.5,65.6,73.5z"/>
</g>
<g>
	<path class="st4" d="M109.8,89.2c0,11.8,0,23.6,0,35.4c-1,1.3-1.8,1.7-3,1.3c-1.1-0.4-1.6-1.2-1.6-2.8c0-1.9,0-3.8,0-5.7
		c-33.6,0-67.1,0-100.6,0c0,0.5,0,0.9,0,1.3c0,1.7,0,3.4,0,5c0,1.1-0.5,1.8-1.6,2.2c-0.9,0.3-1.7,0.1-2.4-0.6
		c-0.3-0.3-0.5-0.8-0.7-1.2c0-10.9,0-21.9,0-32.8c0.1-0.7,0.2-1.5,0.3-2.2c0.9-5,3.9-8.7,7.8-11.7c0.8-0.6,1.1-1.2,1.1-2.2
		c0-12.4,0-24.7,0-37.1c0-2.5,0.7-3.2,3.2-3.2c28.1,0,56.2,0,84.3,0c3.6,0,4,0.4,4,4c0,12.2,0,24.4,0,36.5c0,0.9,0.3,1.3,1,1.8
		c3,2.2,5.4,4.9,6.9,8.3C109.1,86.7,109.4,88,109.8,89.2z M4.7,94.5c0,6.1,0,12.1,0,18.1c33.5,0,67,0,100.5,0c0-6.1,0-12.1,0-18.1
		C71.7,94.5,38.2,94.5,4.7,94.5z M96.1,39.5c-0.4,0-0.7,0-1,0c-26.8,0-53.5,0-80.3,0c-0.9,0-1.1,0.3-1.1,1.1c0,10.8,0,21.5,0,32.3
		c0,0.3,0,0.7,0,1.1c1.6-0.5,3-1,4.5-1.4c1.5-0.4,3.1-0.6,4.7-1c0-0.3,0-0.7,0-1c0-3.4,0-6.8,0-10.2c-0.1-3.6,3.7-7.6,8.1-6.3
		c3.7,1.1,7.4,1.1,11.1,0.1c4.2-1,8.2,2.2,8.2,6.5c0,3.2,0,6.4,0,9.5c0,0.4,0,0.8,0,1.2c1.6,0,3.1,0,4.6,0c1.5,0,3,0,4.5,0
		c0-0.6,0-0.9,0-1.3c0-3.3,0-6.6,0-9.9c-0.1-3.8,3.9-7.6,8.1-6.3c3.6,1.1,7.4,1.1,11.1,0.1c0.4-0.1,0.9-0.2,1.4-0.2
		c3.6-0.1,6.8,3.1,6.9,6.8c0,3.3,0,6.6,0,10c0,0.7,0.2,0.9,0.9,1.1c2.4,0.5,4.8,1.2,7.2,1.8c0.3,0.1,0.6,0.2,0.9,0.3
		C96.1,62.4,96.1,51,96.1,39.5z M4.7,89.8c33.6,0,67,0,100.6,0c-0.5-1.4-0.9-2.7-1.5-3.9c-1.8-3.6-5-5.8-8.5-7.5
		c-3.3-1.6-6.9-2.3-10.6-2.3c-19,0-38,0-57,0c-5.4,0-10.5,0.7-15.3,3.6c-2.8,1.7-5,3.7-6.5,6.6C5.4,87.3,5.1,88.5,4.7,89.8z
		 M45.8,71.5c0-0.9,0-1.7,0-2.5c0-2.9,0-5.7,0-8.6c0-1.6-0.7-2.3-2.1-1.9c-4.9,1.3-9.7,1.1-14.5-0.2c-1.1-0.3-1.5,0-1.7,1.1
		c-0.1,0.3-0.1,0.6-0.1,1c0,3.4,0,6.9,0,10.3c0,0.3,0.1,0.5,0.1,0.8C33.7,71.5,39.7,71.5,45.8,71.5z M64.1,71.5c6.1,0,12.1,0,18.2,0
		c0-3.9,0-7.8,0-11.6c0-1.1-0.8-1.6-2.1-1.3c-4.8,1.3-9.5,1.1-14.3-0.1c-1.3-0.3-1.8,0-1.8,1.3C64.1,63.6,64.1,67.5,64.1,71.5z"/>
</g>
</svg>
