<?xml version="1.0" encoding="utf-8"?>
<!-- Generator: Adobe Illustrator 21.1.0, SVG Export Plug-In . SVG Version: 6.00 Build 0)  -->
<svg version="1.1" id="Layer_1" xmlns="http://www.w3.org/2000/svg" xmlns:xlink="http://www.w3.org/1999/xlink" x="0px" y="0px"
	 viewBox="0 0 1024 1024" style="enable-background:new 0 0 1024 1024;" xml:space="preserve">
<style type="text/css">
	.st0{display:none;}
	.st1{display:inline;}
	.st2{fill:#611313;}
	.st3{fill:#FF0000;}
	.st4{display:none;opacity:0.6;fill:url(#SVGID_1_);enable-background:new    ;}
	.st5{fill:#FFFFFF;}
	.st6{fill:#131360;}
	.st7{fill:#0000FF;}
	.st8{display:none;opacity:0.6;fill:url(#SVGID_2_);enable-background:new    ;}
	.st9{display:none;fill:#611313;}
	.st10{display:none;opacity:0.6;fill:url(#SVGID_3_);enable-background:new    ;}
	.st11{display:none;opacity:0.6;fill:url(#SVGID_4_);enable-background:new    ;}
</style>
<g class="st0">
	<g id="Layer_6" class="st1">
		<g>
			<path class="st2" d="M12,438.3h47.4V912H12V438.3z"/>
			<path class="st2" d="M438.3,12H912v47.4H438.3V12z"/>
			<path class="st3" d="M12,901.7L901.7,12H432.8L12,432.8V901.7z"/>
			
				<linearGradient id="SVGID_1_" gradientUnits="userSpaceOnUse" x1="220.7104" y1="981.1796" x2="461.7023" y2="740.1877" gradientTransform="matrix(1 0 0 -1 0 1201.89)">
				<stop  offset="0" style="stop-color:#FF9600;stop-opacity:0.45"/>
				<stop  offset="0.1333" style="stop-color:#FF8A00;stop-opacity:0.39"/>
				<stop  offset="0.7118" style="stop-color:#FF5A00;stop-opacity:0.1297"/>
				<stop  offset="1" style="stop-color:#FF4800;stop-opacity:0"/>
			</linearGradient>
			<path class="st4" d="M12,901.7L901.7,12H432.8L12,432.8V901.7z"/>
		</g>
	</g>
	<g class="st1">
		<path class="st5" d="M135.8,612.3c12.8-4.4,31.2-13.3,45.9-28c12-12,14.3-21.9,7.8-28.4c-5.5-5.5-15-3.2-35,8
			c-28,15.8-57.3,22.7-79.6,0.4c-23.2-23.2-19.4-61.3,13.9-94.6c17.5-17.5,32.4-26.3,46.5-32l20,36.4c-8.6,3.6-23.6,10.3-38.3,24.9
			c-10.7,10.7-13.3,20.2-7.8,25.7c6.9,6.9,17.3,1,39.4-10.5c32.9-16.9,56.7-16.8,76.2,2.7c21.5,21.5,24.4,58.3-16.6,99.2
			C191.3,633,170.1,645,157.7,649L135.8,612.3z"/>
		<path class="st5" d="M290.1,467.2l23,39.4l-37.9,37.9l-87.8-168.9l49.1-49.1l171.6,85.1l-40,40l-40.7-21.7L290.1,467.2z
			 M295.6,409.1l-29.5-15.8c-9.5-5-21.5-11.6-31.2-16.8l-0.4,0.4c5.3,9.5,12.8,20.8,18.1,30.3l16.4,28.6L295.6,409.1z"/>
		<path class="st5" d="M297.3,265.8l36-36l98.3,98.3l55.4-55.4l30.1,30.1l-91.4,91.4L297.3,265.8z"/>
		<path class="st5" d="M571.9,146.2l-52.2,52.2l21.9,21.9l58.3-58.3l28.9,28.9l-94.3,94.3L406.2,156.8l91.4-91.4l28.9,28.9
			l-55.4,55.4l19.6,19.6l52.2-52.2L571.9,146.2z"/>
	</g>
</g>
<g class="st0">
	<g id="Layer_6_1_" class="st1">
		<g>
			<path class="st6" d="M12,438.5h47.4v473.7H12V438.5z"/>
			<path class="st6" d="M438.3,12.2H912v47.4H438.3V12.2z"/>
			<path class="st7" d="M12,901.9L901.7,12.2H432.8L12,433V901.9z"/>
			
				<linearGradient id="SVGID_2_" gradientUnits="userSpaceOnUse" x1="220.7104" y1="981.0096" x2="461.7023" y2="740.0177" gradientTransform="matrix(1 0 0 -1 0 1201.89)">
				<stop  offset="0" style="stop-color:#FF9600;stop-opacity:0.45"/>
				<stop  offset="0.1333" style="stop-color:#FF8A00;stop-opacity:0.39"/>
				<stop  offset="0.7118" style="stop-color:#FF5A00;stop-opacity:0.1297"/>
				<stop  offset="1" style="stop-color:#FF4800;stop-opacity:0"/>
			</linearGradient>
			<path class="st8" d="M12,901.9L901.7,12.2H432.8L12,433V901.9z"/>
		</g>
	</g>
	<g class="st1">
		<path class="st5" d="M51.9,520c8.2-11,22-27.4,40.5-45.9c20.5-20.5,37-31.2,53.1-33.9c13.4-2.2,27.2,1.8,39.5,14.2
			c16.3,16.3,13.4,39.9,7.6,51.1l0.8,0.8c11.6-4.8,24.1-1.2,37.7,5.4c16.7,8.4,38.8,22.1,45.9,24.5L242.3,571
			c-5.6-1.6-17.4-6.9-37.4-18.5c-18.5-10.9-26.3-8.9-37.7,2.6l-6.2,6.2l45.5,45.5l-33.9,33.9L51.9,520z M136.7,537.1l10.2-10.2
			c13.4-13.4,16-26.8,6.7-36.1c-9.2-9.2-20.8-7-32.5,4.6c-7.6,7.6-10.9,11.6-12.4,13.8L136.7,537.1z"/>
		<path class="st5" d="M327.2,389l-49.7,49.7l20.8,20.8l55.5-55.5l27.6,27.6l-89.8,89.8L169.3,399.2l87.1-87.1l27.6,27.6l-52.8,52.8
			l18.7,18.7l49.7-49.7L327.2,389z"/>
		<path class="st5" d="M400.3,412.8L278.1,290.6l43-43l55.5,15.2c21.4,5.8,45.7,14.8,67.9,24.7l0.6-0.6
			c-20.3-16-35.4-30.7-52.1-47.3L361,207.7l31.7-31.7L515,298.2l-37.5,37.5l-62.5-18.3c-22-6.4-47.1-14.2-70.9-23.8l-0.8,0.8
			c19.4,17.6,37.4,35.2,55.9,53.7l33,33L400.3,412.8z"/>
		<path class="st5" d="M471.2,153.2l-34.5,34.5l-27.9-27.9l104-103.9l27.9,27.9L505.5,119l94.3,94.3l-34.3,34.3L471.2,153.2z"/>
	</g>
</g>
<g id="Layer_6_3_">
	<g>
		<path class="st9" d="M12,438.5h47.4v473.7H12V438.5z"/>
		<path class="st9" d="M438.3,12.2H912v47.4H438.3V12.2z"/>
		<path class="st6" d="M533.3,12.3H1007v47.4H533.3V12.3z"/>
		<path class="st6" d="M12,534.6h47.4v473.7H12V534.6z"/>
		<path class="st7" d="M12,985L977,12.4l-306-0.2L12,665.9V985z"/>
		<path class="st3" d="M12,665.9L671,12.2H346l-334,328V665.9z"/>
		
			<linearGradient id="SVGID_3_" gradientUnits="userSpaceOnUse" x1="171.6345" y1="1026.0376" x2="503.0847" y2="694.5873" gradientTransform="matrix(1 0 0 -1 0 1201.89)">
			<stop  offset="0" style="stop-color:#FF9600;stop-opacity:0.45"/>
			<stop  offset="0.1333" style="stop-color:#FF8A00;stop-opacity:0.39"/>
			<stop  offset="0.7118" style="stop-color:#FF5A00;stop-opacity:0.1297"/>
			<stop  offset="1" style="stop-color:#FF4800;stop-opacity:0"/>
		</linearGradient>
		<path class="st10" d="M12,985L977,12.4l-631-0.2l-334,328V985z"/>
	</g>
</g>
<g id="Layer_6_2_" class="st0">
	<g class="st1">
		
			<linearGradient id="SVGID_4_" gradientUnits="userSpaceOnUse" x1="442.2479" y1="1202.3771" x2="683.2398" y2="961.3852" gradientTransform="matrix(1 0 0 -1 0 1201.89)">
			<stop  offset="0" style="stop-color:#FF9600;stop-opacity:0.45"/>
			<stop  offset="0.1333" style="stop-color:#FF8A00;stop-opacity:0.39"/>
			<stop  offset="0.7118" style="stop-color:#FF5A00;stop-opacity:0.1297"/>
			<stop  offset="1" style="stop-color:#FF4800;stop-opacity:0"/>
		</linearGradient>
		<path class="st11" d="M455.1,459L901.7,12.3H432.8L222.6,222.5L455.1,459z"/>
	</g>
</g>
<g>
	<path class="st5" d="M102.9,464.1c9.8-3.4,24-10.2,35.3-21.5c9.2-9.2,11-16.8,6-21.8c-4.2-4.2-11.5-2.5-26.9,6.2
		c-21.5,12.1-44.1,17.5-61.2,0.3c-17.8-17.8-14.9-47.1,10.7-72.7c13.5-13.5,24.9-20.2,35.7-24.6l15.4,28
		c-6.6,2.8-18.1,7.9-29.4,19.1c-8.2,8.2-10.2,15.5-6,19.8c5.3,5.3,13.3,0.8,30.3-8.1c25.3-13,43.6-12.9,58.6,2.1
		c16.5,16.5,18.8,44.8-12.8,76.3c-13,13-29.3,22.2-38.8,25.3L102.9,464.1z"/>
	<path class="st5" d="M221.6,352.5l17.7,30.3l-29.1,29.1l-67.5-129.9l37.7-37.7l131.9,65.4l-30.8,30.8l-31.3-16.7L221.6,352.5z
		 M225.8,307.8l-22.7-12.1c-7.3-3.8-16.5-8.9-24-12.9l-0.3,0.3c4.1,7.3,9.8,16,13.9,23.3l12.6,22L225.8,307.8z"/>
	<path class="st5" d="M227.1,197.7l27.7-27.7l75.6,75.6l42.6-42.6l23.1,23.1l-70.3,70.3L227.1,197.7z"/>
	<path class="st5" d="M438.2,105.7l-40.1,40.1l16.8,16.8l44.8-44.8l22.2,22.2l-72.5,72.5l-98.6-98.7l70.3-70.3l22.2,22.2l-42.6,42.6
		l15.1,15.1l40.1-40.1L438.2,105.7z"/>
</g>
<g>
	<path class="st5" d="M184.2,557.8c6.5-8.8,17.4-21.7,32.1-36.4c16.3-16.3,29.4-24.7,42.2-26.9c10.6-1.7,21.6,1.4,31.4,11.2
		c13,13,10.6,31.7,6,40.6l0.6,0.6c9.2-3.8,19.2-1,30,4.3c13.3,6.6,30.8,17.6,36.4,19.5l-27.6,27.6c-4.5-1.3-13.8-5.5-29.7-14.7
		c-14.7-8.7-20.9-7.1-30,2l-4.9,4.9l36.1,36.1L280,653.5L184.2,557.8z M251.6,571.4l8.1-8.1c10.6-10.6,12.7-21.3,5.4-28.7
		c-7.3-7.3-16.5-5.6-25.8,3.6c-6,6-8.7,9.2-9.8,10.9L251.6,571.4z"/>
	<path class="st5" d="M402.8,453.8l-39.5,39.5l16.5,16.5l44.1-44.1l21.9,21.9l-71.3,71.3l-97-97l69.1-69.1l21.9,21.9l-41.9,41.9
		l14.9,14.9l39.5-39.5L402.8,453.8z"/>
	<path class="st5" d="M460.8,472.7l-97-97l34.1-34.1l44.1,12.1c17,4.6,36.3,11.8,53.9,19.6l0.5-0.5c-16.1-12.7-28.1-24.4-41.3-37.6
		l-25.4-25.4l25.2-25.2l97,97L522,411.5l-49.6-14.6c-17.4-5.1-37.4-11.2-56.3-18.9l-0.6,0.6c15.4,14,29.7,27.9,44.4,42.6l26.2,26.2
		L460.8,472.7z"/>
	<path class="st5" d="M517.1,266.6L489.7,294l-22.2-22.2l82.5-82.5l22.2,22.2l-27.9,27.9l74.9,74.9L592,341.5L517.1,266.6z"/>
</g>
</svg>
