<?xml version="1.0" encoding="utf-8"?>
<!-- Generator: Adobe Illustrator 21.0.2, SVG Export Plug-In . SVG Version: 6.00 Build 0)  -->
<svg version="1.1" id="Слой_1" xmlns="http://www.w3.org/2000/svg" xmlns:xlink="http://www.w3.org/1999/xlink" x="0px" y="0px"
	 viewBox="0 0 841.9 450" style="enable-background:new 0 0 841.9 450;" xml:space="preserve">
<style type="text/css">
	.st0{opacity:0.1;}
	.st1{fill:#201600;}
</style>
<g class="st0">
	<circle class="st1" cx="621.1" cy="225.2" r="213.9"/>
</g>
<g>
	<rect y="165" class="st1" width="13.6" height="120.3"/>
</g>
<g>
	<rect x="113.3" y="165" class="st1" width="13.6" height="120.3"/>
</g>
<g>
	<path class="st1" d="M232.8,285.2h-71.4c-15.3,0-27.8-12.5-27.8-27.8V165h13.6v92.4c0,7.8,6.4,14.2,14.2,14.2h71.4
		c7.8,0,14.2-6.4,14.2-14.2V165h13.6v92.4C260.6,272.7,248.2,285.2,232.8,285.2z"/>
</g>
<g>
	<rect x="267.3" y="165" class="st1" width="13.6" height="120.3"/>
</g>
<g>
	<path class="st1" d="M366.6,285.2h-92.5v-13.6h92.5c7.7,0,14-6.3,14-14v-11.7c0-7.7-6.3-14-14-14h-92.5v-13.6h92.5
		c15.2,0,27.6,12.4,27.6,27.6v11.7C394.3,272.8,381.9,285.2,366.6,285.2z"/>
</g>
<g>
	<path class="st1" d="M366.6,231.8h-92.5v-13.6h92.5c7.7,0,14-6.3,14-14v-11.7c0-7.7-6.3-14-14-14h-92.5v-13.6h92.5
		c15.2,0,27.6,12.4,27.6,27.6v11.7C394.3,219.4,381.9,231.8,366.6,231.8z"/>
</g>
<g>
	<path class="st1" d="M528.1,285.2h-92.5v-13.6h92.5c7.7,0,14-6.3,14-14v-11.7c0-7.7-6.3-14-14-14h-92.5v-13.6h92.5
		c15.2,0,27.6,12.4,27.6,27.6v11.7C555.8,272.8,543.4,285.2,528.1,285.2z"/>
</g>
<g>
	<path class="st1" d="M528.1,231.8h-92.5v-13.6h92.5c7.7,0,14-6.3,14-14v-11.7c0-7.7-6.3-14-14-14h-92.5v-13.6h92.5
		c15.2,0,27.6,12.4,27.6,27.6v11.7C555.8,219.4,543.4,231.8,528.1,231.8z"/>
</g>
<g>
	<path class="st1" d="M656.9,285.2h-65.2c-15.2,0-27.6-12.4-27.6-27.6v-65.1c0-15.2,12.4-27.6,27.6-27.6h86.8v13.6h-86.8
		c-7.7,0-14,6.3-14,14v25.7h79.2c15.2,0,27.6,12.4,27.6,27.6v11.7C684.5,272.8,672.2,285.2,656.9,285.2z M577.7,231.8v25.7
		c0,7.7,6.3,14,14,14h65.2c7.7,0,14-6.3,14-14v-11.7c0-7.7-6.3-14-14-14H577.7z"/>
</g>
<g>
	<path class="st1" d="M784.3,285.2h-64.9c-15.3,0-27.7-12.4-27.7-27.7v-64.9c0-15.3,12.4-27.7,27.7-27.7h64.9
		c15.3,0,27.7,12.4,27.7,27.7v64.9C812,272.7,799.6,285.2,784.3,285.2z M719.4,178.5c-7.8,0-14.1,6.3-14.1,14.1v64.9
		c0,7.8,6.3,14.1,14.1,14.1h64.9c7.8,0,14.1-6.3,14.1-14.1v-64.9c0-7.8-6.3-14.1-14.1-14.1H719.4z"/>
</g>
<g>
	<path class="st1" d="M621.1,438.9H407.2V225c0,0-2.7,87,61.9,150.5S621.1,438.9,621.1,438.9z"/>
	<path class="st1" d="M621.1,445.7H400.4V228.6c0-2.3,0-3.6,0-3.8L414,225v3c0.1,6.7,1,24.7,6.6,47.3c6.6,26.1,21.1,63.9,53.2,95.4
		c61.9,60.8,146.4,61.5,147.3,61.5L621.1,445.7L621.1,445.7z M414,432.1h135.6c-26-9-57.7-24.6-85.3-51.8
		c-26.1-25.7-41.4-55.1-50.3-80V432.1z"/>
</g>
<g>
	<path class="st1" d="M621.1,445.7c-121.7,0-220.7-99-220.7-220.7S499.4,4.3,621.1,4.3s220.7,99,220.7,220.7
		S742.9,445.7,621.1,445.7z M621.1,17.9C506.9,17.9,414,110.8,414,225s92.9,207.1,207.1,207.1S828.2,339.2,828.2,225
		C828.2,110.8,735.3,17.9,621.1,17.9z"/>
</g>
<g>
	<rect x="6.8" y="218.2" class="st1" width="113.3" height="13.6"/>
</g>
</svg>
