<?xml version="1.0" encoding="utf-8"?>
<!-- Generator: Adobe Illustrator 21.1.0, SVG Export Plug-In . SVG Version: 6.00 Build 0)  -->
<svg version="1.1" xmlns="http://www.w3.org/2000/svg" xmlns:xlink="http://www.w3.org/1999/xlink" x="0px" y="0px"
	 viewBox="0 0 128 128" style="enable-background:new 0 0 128 128;" xml:space="preserve">
<style type="text/css">
	.st0{fill:#646464;}
</style>
<g id="Podlojki">
</g>
<g id="Layer_2">
	<g>
		<path class="st0" d="M123.5,127.5c-1,0-2-0.4-2.8-1.2L77.9,83.5c-0.8-0.8-1.2-1.8-1.2-2.8c0-1.1,0.4-2.1,1.2-2.8
			c15-15,16-38.6,2.3-54.9C66.5,6.7,43,3.7,25.7,16C8.3,28.2,3.3,51.3,14.1,69.7c9.3,15.9,28.3,23.6,46,18.6
			c2.1-0.6,4.3,0.6,4.9,2.8c0.6,2.1-0.6,4.3-2.8,4.9c-21.3,6-43.9-3.1-55.1-22.2C1,63.2-1,50.8,1.6,38.9
			c2.6-11.9,9.5-22.4,19.5-29.5C31,2.4,43.2-0.7,55.3,0.9c12.1,1.6,23.1,7.6,31,16.9S98.2,39,97.7,51.2
			c-0.5,10.9-4.5,21.2-11.5,29.4l40.1,40.1c1.6,1.6,1.6,4.1,0,5.7C125.5,127.1,124.5,127.5,123.5,127.5z"/>
	</g>
</g>
</svg>
