<?xml version="1.0" encoding="utf-8"?>
<!-- Generator: Adobe Illustrator 21.1.0, SVG Export Plug-In . SVG Version: 6.00 Build 0)  -->
<svg version="1.1" id="Layer_2" xmlns="http://www.w3.org/2000/svg" xmlns:xlink="http://www.w3.org/1999/xlink" x="0px" y="0px"
	 viewBox="0 0 128 128" style="enable-background:new 0 0 128 128;" xml:space="preserve">
<style type="text/css">
	.st0{fill:#FFFFFF;}
</style>
<g>
	<path class="st0" d="M64,94.4c-3.2,0-6.3-0.5-9.3-1.4c-8.2-2.6-14.9-8.6-18.5-16.5c-0.9-2,0-4.4,2-5.3c2-0.9,4.4,0,5.3,2
		c2.6,5.8,7.6,10.2,13.6,12.1c4.1,1.3,8.6,1.4,12.7,0.3c7.4-2,13.3-7.8,15.6-15.1c0.6-2.1,1-4.3,1-6.6c0-2.3-0.4-4.6-1.1-6.8
		c-2.3-7.3-8.4-13-15.8-14.9c-3.8-1-8-0.9-11.8,0.2c-6.3,1.8-11.5,6.3-14.2,12.3c-0.9,2-3.3,2.9-5.3,2c-2-0.9-2.9-3.3-2-5.3
		C40,43.3,47,37.3,55.5,34.8c5.2-1.5,10.8-1.6,16-0.3C81.6,37.1,89.8,44.8,93,54.7c1,3,1.4,6.1,1.4,9.3c0,3-0.4,6-1.3,8.9
		C90.1,82.8,82,90.7,72,93.4C69.4,94.1,66.7,94.4,64,94.4z"/>
</g>
<g>
	<path class="st0" d="M11.4,95.8c-1.4,0-2.8-0.8-3.5-2.1C3,84.6,0.5,74.3,0.5,64c0-10.2,2.5-20.3,7.1-29.3c1-2,3.4-2.7,5.4-1.7
		c2,1,2.7,3.4,1.7,5.4C10.6,46.4,8.5,55,8.5,64c0,9,2.2,18,6.4,25.9c1,2,0.3,4.4-1.7,5.4C12.7,95.7,12,95.8,11.4,95.8z"/>
</g>
<g>
	<path class="st0" d="M64,127.5c-10.8,0-21.5-2.8-30.9-8c-1.9-1.1-2.6-3.5-1.5-5.4c1.1-1.9,3.5-2.6,5.4-1.5c8.2,4.6,17.6,7,27,7
		c9.4,0,18.7-2.4,26.9-7c1.9-1.1,4.4-0.4,5.4,1.6c1.1,1.9,0.4,4.4-1.6,5.4C85.4,124.7,74.8,127.5,64,127.5z"/>
</g>
<g>
	<path class="st0" d="M116.4,96.1c-0.6,0-1.3-0.2-1.9-0.5c-1.9-1-2.7-3.5-1.6-5.4c4.3-8,6.6-17.1,6.6-26.2c0-9.6-2.5-19-7.2-27.3
		c-1.1-1.9-0.4-4.4,1.5-5.5c1.9-1.1,4.4-0.4,5.5,1.5c5.4,9.5,8.2,20.3,8.2,31.2c0,10.5-2.6,20.9-7.5,30
		C119.2,95.4,117.9,96.1,116.4,96.1z"/>
</g>
<g>
	<path class="st0" d="M93.5,16.3c-0.7,0-1.4-0.2-2-0.5C83.2,11,73.7,8.5,64,8.5c-9.4,0-18.6,2.4-26.8,6.9c-1.9,1.1-4.4,0.4-5.4-1.6
		c-1.1-1.9-0.4-4.4,1.6-5.4C42.7,3.2,53.3,0.5,64,0.5c11.1,0,22,2.9,31.5,8.4c1.9,1.1,2.6,3.5,1.5,5.5
		C96.2,15.6,94.9,16.3,93.5,16.3z"/>
</g>
</svg>
