<?xml version="1.0" encoding="utf-8"?>
<!-- Generator: Adobe Illustrator 21.1.0, SVG Export Plug-In . SVG Version: 6.00 Build 0)  -->
<svg version="1.1" id="Layer_1" xmlns="http://www.w3.org/2000/svg" xmlns:xlink="http://www.w3.org/1999/xlink" x="0px" y="0px"
	 viewBox="0 0 452.8 241.2" style="enable-background:new 0 0 452.8 241.2;" xml:space="preserve">
<style type="text/css">
	.st0{fill:#FFFFFF;}
</style>
<g>
	<path class="st0" d="M435.7,28.1c1.2,10.4,2.3,20.8,3.6,31.1c1.6,12.3,3.6,24.6,5,36.9c0.9,8.6,0.7,17.2,1.6,25.8
		c2,18.1,4.6,36.2,6.6,54.3c0.5,4.9,0.1,10-0.2,14.9c-0.2,3.1-1.9,4.7-5.2,4.8c-2.8,0.1-5.5,0.9-8.3,1.4c-5.2,1-10.4,2.2-15.6-0.4
		c-1.5-0.7-3.6-0.7-5.4-0.5c-10.2,1.3-20.4,2.7-30.5,4.1c-1.3,0.2-2.9,0.5-3.6,1.4c-3.7,4.3-9,3.4-13.5,5c-12.5,4.4-25.5,0.1-38,3.2
		c-0.6,0.2-1.4,0.1-2-0.1c-10.7-3.3-21,0.9-31.6,1.1c-2.2,0.1-4.3,0.6-6.4,0.5c-12-0.4-23.7,2-35.5,3.8c-4.5,0.7-9.3-0.1-13.9,0.3
		c-4.8,0.5-9.4,1.8-14.2,2.6c-5.9,1-11.8,1.9-17.7,2.6c-12.1,1.5-24.3,2.9-36.4,4.3c-1.5,0.2-3.2,0.3-4.4-0.3
		c-1.4-0.7-3.4-2.1-3.5-3.4c-0.1-1.4,1.2-3.7,2.4-4.3c2.3-1.1,5.1-1.5,7.7-1.9c8.5-1.2,17.1-2.2,25.6-3.2c0.7-0.1,1.4-0.5,2-0.3
		c11.5,3.3,22.5-2.9,34-1.7c6.2,0.6,12.7-2.2,19.2-2.8c6.4-0.6,13-0.5,19.4-0.7c0.7,0,1.4,0.2,2,0c10.5-5.1,22.4-1.9,33.2-5.4
		c1.8-0.6,4,0.1,5.9-0.1c5.9-0.6,11.8-1.4,17.7-2.1c2.6-0.3,5.2-0.9,7.8-1.1c6.9-0.6,13.9-0.6,20.8-1.5c10.1-1.4,20.1-3.9,30.2-5.2
		c7.2-0.9,14.5-0.4,21.8-0.9c7.1-0.4,14.2-0.9,21.2-2.1c1.6-0.3,3.8-3.4,3.9-5.3c0.3-7.1,0.2-14.3-0.5-21.4
		c-1.4-13.4-3.1-26.7-5.1-40c-2.4-15.8-6-31.4-7.7-47.2c-1.3-11.9-0.1-24.1-0.6-36.2c-0.3-7.6-1.5-15.2-2.8-22.7
		c-0.2-1.4-3.1-3.4-4.6-3.3c-9.9,0.6-19.8,1.6-29.7,2.5c-3.3,0.3-6.6,0.6-9.9,0.8c-4.9,0.2-9.9-0.1-14.8,0.5
		c-9.5,1.3-18.9,3.6-28.5,4.4c-10.1,0.9-20.2,0.3-30.3,0.7c-3.2,0.1-6.3,1.7-9.4,2.4c-2.9,0.6-5.8,0.9-8.7,1.5
		c-9.7,2-19.4,4.3-29.2,6.1c-8.9,1.7-17.9,3.6-27,4.4c-7,0.6-14.2-0.7-21.3-0.7c-5.6,0-11.1,1-16.7,1.1c-5.9,0.1-11.9-0.7-17.8-0.2
		c-7.2,0.6-14.3,2.3-21.4,3.2c-4.1,0.5-8.2,0.4-12.4,0.6c-2.4,0.2-5,0.2-7.3,0.9c-7.6,2.2-15,3-23.1,2.2c-6.1-0.6-12.4,1.7-18.6,2.4
		c-6.9,0.8-13.8,1-20.7,1.9c-10.3,1.3-20.6,3.3-30.9,4.6c-6.7,0.8-13.5,0.9-20.3,1.3c-3,0.2-6-0.1-8.8,0.7c-3.9,1-6,3.7-5.5,8.2
		c0.3,2.9,1.5,7-2.9,7.6c-1,0.1-2.9-4.3-3.8-6.9c-0.8-2.1-0.9-4.6-1.1-6.9c-1-9.6,4-14.6,13.7-14.9c6.6-0.2,13.2-2,19.8-2.2
		c6.2-0.2,12.5,1,18.8,1.3c3.4,0.2,6.8-0.2,10.1-0.5c0.8-0.1,1.6-0.6,2.4-0.7c11.9-0.9,23.8-1.6,35.7-2.8
		c11.1-1.1,22.2-2.7,33.4-4.1c2.6-0.3,5.3-0.8,7.9-1c10.1-0.8,20.1-1.4,30.2-2.2c1.4-0.1,2.8-1.1,4.3-1.3c3.7-0.4,7.4-0.5,11.1-0.7
		c1.1-0.1,2.3,0.4,3.5,0.2c11.5-1.6,22.9-3.5,34.4-4.8c9.2-1.1,18.4-1.3,27.6-2.2c6.4-0.6,12.7-1.9,19.1-2.6
		c5.4-0.6,10.9-0.9,16.3-1.3c8.4-0.6,16.8-1.1,25.2-1.7c0.6,0,1.4-0.3,1.8-0.8c7.1-7,16.6-7,25.5-8.4c6.1-1,12-2.5,18.1-3.1
		c8.6-0.8,17.2-1,25.9-1.3c9.5-0.3,18.9-0.7,28.4-0.6c5.6,0,11.2,0.4,16.7,1.3c1.5,0.2,3.3,2.8,3.7,4.6c1.6,7.3,2.7,14.6,3.9,22
		C437,27.9,436.4,28,435.7,28.1z"/>
	<path class="st0" d="M392.8,139.2c-0.6,5.1-0.9,10.3-2,15.3c-2.7,12-11,18.7-22.6,20.2c-14.3,1.9-28.8,2.6-43.3,3.9
		c-3.5,0.3-4.2-1.7-4.5-4.5c-2.3-23.7-4.5-47.3-7-70.9c-1.8-16.7-4.1-33.3-5.8-50c-0.9-8,0.1-8.7,8.2-9.3
		c11.6-0.9,23.2-1.7,34.8-3.2c20-2.6,30.4,8.4,33.2,26.7c3,20.1,5.3,40.2,7.8,60.3c0.5,3.8,0.5,7.6,0.7,11.5
		C392.5,139.2,392.6,139.2,392.8,139.2z M361.9,140.9c-0.7-5.7-1.3-10.3-1.9-14.9c-2.4-18-4.8-36-7.1-53.9c-0.5-4.1-2.1-7.5-6.2-8.9
		c-1.6-0.5-3.8-0.7-5.1,0c-0.8,0.5-0.9,3-0.7,4.5c0.6,6.5,1.6,12.9,2.2,19.3c2,20.7,3.9,41.4,6.2,62c0.2,2,2.9,5.6,3.6,5.4
		c2.6-0.8,5.7-2.2,7-4.4C361.4,147.1,361.4,143.4,361.9,140.9z"/>
	<path class="st0" d="M151.4,93.3c-0.3-8.7,0.9-16.7,7-23.4c5.8-6.5,13.5-10,21.5-11.9c7-1.6,14.5-2.3,21.7-1.9
		c16.3,0.7,25.4,9.3,28.8,28.5c3.5,19.9,4.6,40.3,6.5,60.5c0.6,6.4,1.1,12.9,0.8,19.4c-0.5,11.1-11.1,23.5-22.1,25.2
		c-9.3,1.4-18.8,2.2-28.3,2.1c-13.3-0.1-25-9.4-27.4-22.7c-2.4-13-3-26.4-4.5-39.6C154.2,117.4,152.8,105.4,151.4,93.3z M184,97.3
		c0,3.5-0.3,7,0.1,10.5c1.6,14.5,3.3,29.1,5.3,43.5c0.7,5.1,2.2,10.1,3.7,15c1,3.1,3,5.8,6.9,5.4c4.2-0.5,5.5-3.8,5.5-7.2
		c0-8.3-0.2-16.6-0.8-24.9c-0.5-7.5-1.3-14.9-2.3-22.3c-1.5-11-3.2-22-5.2-32.9c-0.6-3.4-2.7-6.3-6.9-5.9c-4.3,0.5-5.8,3.7-6.2,7.4
		C183.8,89.6,184,93.4,184,97.3z"/>
	<path class="st0" d="M117.9,103.1c-7.2,0.3-7.2,0.3-8.2-6.8c-0.8-5.9-3.4-9.3-6.9-9C99.3,87.7,96.9,92,98,98
		c1.8,9.4,7.2,16.5,15,22.1c8,5.7,16.3,11.1,23.2,17.9c15,14.8,15.7,30.5,7.3,48c-5.1,10.6-16.1,13.9-27.1,15.7
		c-14.2,2.3-25.9-3.3-35.5-13.2c-5.4-5.6-5.1-13.5-5.8-20.7c-0.1-0.8,2.2-2.5,3.5-2.7c7.6-0.9,15.2-1.7,22.9-2.1
		c1-0.1,2.7,2,3.2,3.3c1,2.6,0.7,5.8,2.1,8.1c1.2,1.9,4.1,4.2,6,4c1.8-0.2,4.7-3.4,4.7-5.2c0-3.7-0.6-8.5-2.9-11
		c-6.9-7.4-14.3-14.4-22.3-20.5c-9.8-7.6-18.3-16-24-27c-6.1-11.6-0.1-33.9,10.7-41c16.7-11,33.6-9.8,50.4-0.5
		c6.2,3.4,12.1,17.4,10.5,24.2c-0.3,1.2-2.3,2.7-3.8,3C130.1,101.5,124,102.2,117.9,103.1z"/>
	<path class="st0" d="M297.5,161.9c0.2,0,0.3,0,0.5,0c3.4,0.1,8.9-0.9,9.8,0.7c2.2,3.8,2.4,8.8,3.1,13.4c0.5,3.1-1.2,4.5-4.2,4.8
		c-11.1,1.2-22.1,2.6-33.2,3.8c-4.3,0.5-8.6,0.6-12.9,1.3c-3.5,0.5-5.5-0.6-5.8-4.2c-0.6-7.3-0.9-14.6-1.6-21.9
		c-3.4-32.5-7-65-10.5-97.6c-0.2-2-0.7-4.2-0.1-5.9c0.6-1.7,2.2-4,3.6-4.3c7.5-1.4,15.1-2.2,22.7-3.1c4-0.5,4.7,2.3,4.9,5.3
		c0.9,11.1,1.5,22.2,2.8,33.3c1.7,15.7,3.9,31.3,5.8,47c0.9,7.4,1.8,14.8,2.3,22.2c0.2,4.2,1.7,5.7,5.8,5.1
		C292.8,161.7,295.2,161.9,297.5,161.9L297.5,161.9z"/>
	<path class="st0" d="M14.3,201c1.4-6.5,0.8-13.5-2.7-20.1c-0.9-1.7-0.3-4.2-0.2-6.4c0.3-6.6-0.7-12.6-3.7-18.8
		c-5.8-12-8-24.6-3-37.7c0.9-2.5,0.8-5.6,0.5-8.3c-0.5-5-1.6-9.8-2.2-14.8c-0.3-2.7-1.1-6.3,2.7-7.1c4.1-0.9,4.4,3,4.8,5.6
		c1.4,9.5,2.7,19.1,3.7,28.7c1,8.8,2.2,17.5,2.1,26.3c0,10.6,2.2,20.7,3.4,31.1c1,8.5,0.6,17,2.9,25.5c1.3,4.8-0.2,10.3,0.5,15.3
		c1.5,9.9,11,13.9,20.2,9.8c5.2-2.3,11.1-3.1,16.7-4.2c1.4-0.2,4.4,1.6,4.4,2.2c-0.4,3,1.1,7.5-3.6,8.3c-5.7,0.9-11.5,0.9-17.2,1.6
		c-3.9,0.4-7.9,0.9-11.6,2c-8.7,2.8-12.8,0.9-14.2-8.2C16.3,221.9,15.5,211.8,14.3,201z"/>
	<path class="st0" d="M144,230.2c-4.3-0.9-7.7-1.7-7.7-6.1c0-5.1,4.6-3.9,7.4-4.3c4.3-0.6,5.5,3.2,5.4,6.1
		C149.1,227.4,145.8,228.7,144,230.2z"/>
	<path class="st0" d="M404.9,33.3c-1.6-1.9-2.6-3.1-3.6-4.3c1.7-1.1,3.2-2.8,5-3.1c0.9-0.2,2.4,1.8,3.6,2.9
		C408.5,30,407.1,31.3,404.9,33.3z"/>
	<path class="st0" d="M109.4,52.7c-2.1,1.5-3.3,2.8-4.6,3c-0.8,0.1-1.8-1.6-2.7-2.5c1-1,1.9-2.6,3.1-2.9
		C106.1,50.1,107.4,51.5,109.4,52.7z"/>
	<path class="st0" d="M34.6,143.6c0-2.8,0-5.7,0-8.5c3,2.7,4.4,5.4,1.8,8.5C35.8,143.5,35.2,143.5,34.6,143.6z"/>
</g>
</svg>
