<?xml version="1.0" encoding="utf-8"?>
<!-- Generator: Adobe Illustrator 21.1.0, SVG Export Plug-In . SVG Version: 6.00 Build 0)  -->
<svg version="1.1" id="Layer_1" xmlns="http://www.w3.org/2000/svg" xmlns:xlink="http://www.w3.org/1999/xlink" x="0px" y="0px"
	 viewBox="0 0 42.2 35" style="enable-background:new 0 0 42.2 35;" xml:space="preserve">
<style type="text/css">
	.st0{opacity:0.3;enable-background:new    ;}
	.st1{fill:#FF0000;}
</style>
<path class="st0" d="M35,7.2c-5.7-5.7-14.8-5.7-20.5,0L4.2,17.5l10.3,10.3c5.7,5.7,14.8,5.7,20.5,0S40.7,12.9,35,7.2z"/>
<path class="st1" d="M37.1,5.1c-6.8-6.8-18-6.8-24.7,0L0,17.5l12.4,12.4c6.8,6.8,18,6.8,24.7,0S43.9,11.9,37.1,5.1z M15.9,26.3
	l-8.8-8.8l8.8-8.8c4.9-4.9,12.8-4.9,17.7,0s4.9,12.8,0,17.7S20.8,31.2,15.9,26.3z"/>
<path class="st1" d="M29.3,12.9c2.5,2.5,2.5,6.6,0,9.2s-6.6,2.5-9.2,0s-2.5-6.6,0-9.2S26.8,10.4,29.3,12.9z"/>
</svg>
