<?xml version="1.0" encoding="utf-8"?>
<!-- Generator: Adobe Illustrator 21.1.0, SVG Export Plug-In . SVG Version: 6.00 Build 0)  -->
<svg version="1.1" id="Layer_1" xmlns="http://www.w3.org/2000/svg" xmlns:xlink="http://www.w3.org/1999/xlink" x="0px" y="0px"
	 viewBox="0 0 42.2 34.9" style="enable-background:new 0 0 42.2 34.9;" xml:space="preserve">
<style type="text/css">
	.st0{opacity:0.3;enable-background:new    ;}
	.st1{fill:#FF0000;}
</style>
<path class="st0" d="M7.2,27.7c5.7,5.7,14.8,5.7,20.5,0L38,17.5L27.7,7.2c-5.7-5.7-14.8-5.7-20.5,0S1.6,22.1,7.2,27.7z"/>
<path class="st1" d="M5.1,29.8c6.8,6.8,18,6.8,24.7,0l12.4-12.4L29.8,5.1c-6.8-6.8-18-6.8-24.7,0S-1.7,23.1,5.1,29.8z M26.3,8.6
	l8.8,8.8l-8.8,8.8c-4.9,4.9-12.8,4.9-17.7,0s-4.9-12.8,0-17.7S21.4,3.7,26.3,8.6z"/>
<path class="st1" d="M12.9,22.1c-2.5-2.5-2.5-6.6,0-9.2s6.6-2.5,9.2,0s2.5,6.6,0,9.2S15.4,24.6,12.9,22.1z"/>
</svg>
