<?xml version="1.0" encoding="utf-8"?>
<!-- Generator: Adobe Illustrator 21.1.0, SVG Export Plug-In . SVG Version: 6.00 Build 0)  -->
<svg version="1.1" id="Layer_2" xmlns="http://www.w3.org/2000/svg" xmlns:xlink="http://www.w3.org/1999/xlink" x="0px" y="0px"
	 viewBox="0 0 128 128" style="enable-background:new 0 0 128 128;" xml:space="preserve">
<style type="text/css">
	.st0{display:none;}
	.st1{display:inline;fill:none;stroke:#000000;stroke-width:8;stroke-linecap:round;stroke-linejoin:round;}
	.st2{fill:#FFFFFF;}
</style>
<g class="st0">
	<path class="st1" d="M79.4,83.5c11.2-11.2,11.2-29.3,0-40.5"/>
	<path class="st1" d="M91.2,97.3c18.8-18.8,18.8-49.2,0-68"/>
	<path class="st1" d="M104.1,107.2c24.3-24.3,24.3-63.6,0-87.9"/>
</g>
<path class="st2" d="M72.5,13c0-2.2-1.8-4-4-4c-0.1,0-0.1,0-0.1,0c-0.8,0-1.7,0.2-2.4,0.8L26.8,39.1H7.7c-2.2,0-4,1.8-4,4v40.5
	c0,2.2,1.8,4,4,4h19.1l39.3,29.7c0,0,0.1,0,0.1,0.1c0.1,0.1,0.2,0.1,0.2,0.2c0.1,0.1,0.3,0.2,0.4,0.2c0.1,0,0.2,0.1,0.3,0.1
	c0.2,0.1,0.3,0.1,0.5,0.1c0.1,0,0.2,0,0.2,0.1c0.2,0,0.5,0.1,0.7,0.1c0,0,0,0,0,0c0,0,0,0,0,0c0.3,0,0.6,0,0.9-0.1
	c0.1,0,0.1,0,0.2-0.1c0.2-0.1,0.4-0.1,0.6-0.2c0.1,0,0.2-0.1,0.3-0.1c0.2-0.1,0.3-0.2,0.5-0.3c0.1-0.1,0.2-0.1,0.2-0.2
	c0.1-0.1,0.3-0.3,0.4-0.4c0-0.1,0.1-0.1,0.1-0.1c0,0,0-0.1,0.1-0.1c0.1-0.1,0.2-0.2,0.2-0.4c0.1-0.1,0.1-0.2,0.2-0.3
	c0.1-0.1,0.1-0.2,0.1-0.4c0-0.1,0.1-0.2,0.1-0.4c0-0.1,0-0.2,0.1-0.3c0-0.1,0-0.3,0-0.4c0,0,0-0.1,0-0.1V13z M30.5,80.5
	C30.5,80.5,30.5,80.5,30.5,80.5c-0.2-0.1-0.3-0.2-0.5-0.3c-0.1-0.1-0.2-0.1-0.3-0.2c-0.1-0.1-0.2-0.1-0.4-0.1
	c-0.1,0-0.2-0.1-0.4-0.1c-0.1,0-0.2,0-0.3-0.1c-0.1,0-0.3,0-0.4,0c0,0-0.1,0-0.1,0H11.7V47.1h16.4c0,0,0,0,0,0c0,0,0,0,0,0
	c0.2,0,0.5,0,0.7-0.1c0.1,0,0.2,0,0.2-0.1c0.2,0,0.3-0.1,0.5-0.1c0.1,0,0.2-0.1,0.2-0.1c0.1-0.1,0.3-0.1,0.4-0.2
	c0.1,0,0.2-0.1,0.2-0.1c0,0,0.1,0,0.1-0.1l34-25.5v85.3L30.5,80.5z"/>
<g>
	<g>
		<path class="st2" d="M117.3,118.2c-1,0-2-0.4-2.8-1.2L12.3,14.8c-1.6-1.6-1.6-4.1,0-5.7c1.6-1.6,4.1-1.6,5.7,0l102.2,102.2
			c1.6,1.6,1.6,4.1,0,5.7C119.4,117.8,118.4,118.2,117.3,118.2z"/>
	</g>
	<g>
		<path class="st2" d="M17.6,118.2c-1,0-2-0.4-2.8-1.2c-1.6-1.6-1.6-4.1,0-5.7L116.9,9.2c1.6-1.6,4.1-1.6,5.7,0
			c1.6,1.6,1.6,4.1,0,5.7L20.4,117C19.6,117.8,18.6,118.2,17.6,118.2z"/>
	</g>
</g>
</svg>
