<?xml version="1.0" encoding="utf-8"?>
<!-- Generator: Adobe Illustrator 21.1.0, SVG Export Plug-In . SVG Version: 6.00 Build 0)  -->
<svg version="1.1" id="Layer_2" xmlns="http://www.w3.org/2000/svg" xmlns:xlink="http://www.w3.org/1999/xlink" x="0px" y="0px"
	 viewBox="0 0 128 128" style="enable-background:new 0 0 128 128;" xml:space="preserve">
<style type="text/css">
	.st0{fill:#FFFFFF;}
</style>
<g>
	<path class="st0" d="M68.5,9c-0.1,0-0.1,0-0.1,0c-0.8,0-1.7,0.2-2.4,0.8L26.8,39.1H7.7c-2.2,0-4,1.8-4,4v40.5c0,2.2,1.8,4,4,4h19.1
		l39.3,29.7c0,0,0.1,0,0.1,0.1c0.1,0.1,0.2,0.1,0.2,0.2c0.1,0.1,0.3,0.2,0.4,0.2c0.1,0,0.2,0.1,0.3,0.1c0.2,0.1,0.3,0.1,0.5,0.1
		c0.1,0,0.2,0,0.2,0.1c0.2,0,0.5,0.1,0.7,0.1c0,0,0,0,0,0c0,0,0,0,0,0c0.3,0,0.6,0,0.9-0.1c0.1,0,0.1,0,0.2-0.1
		c0.2-0.1,0.4-0.1,0.6-0.2c0.1,0,0.2-0.1,0.3-0.1c0.2-0.1,0.3-0.2,0.5-0.3c0.1-0.1,0.2-0.1,0.2-0.2c0.1-0.1,0.3-0.3,0.4-0.4
		c0-0.1,0.1-0.1,0.1-0.1c0,0,0-0.1,0.1-0.1c0.1-0.1,0.2-0.2,0.2-0.4c0.1-0.1,0.1-0.2,0.2-0.3c0.1-0.1,0.1-0.2,0.1-0.4
		c0-0.1,0.1-0.2,0.1-0.4c0-0.1,0-0.2,0.1-0.3c0-0.1,0-0.3,0-0.4c0,0,0-0.1,0-0.1V13C72.5,10.8,70.7,9,68.5,9z M30.5,80.5
		C30.5,80.5,30.5,80.5,30.5,80.5c-0.2-0.1-0.3-0.2-0.5-0.3c-0.1-0.1-0.2-0.1-0.3-0.2c-0.1-0.1-0.2-0.1-0.4-0.1
		c-0.1,0-0.2-0.1-0.4-0.1c-0.1,0-0.2,0-0.3-0.1c-0.1,0-0.3,0-0.4,0c0,0-0.1,0-0.1,0H11.7V47.1h16.4c0,0,0,0,0,0c0,0,0,0,0,0
		c0.2,0,0.5,0,0.7-0.1c0.1,0,0.2,0,0.2-0.1c0.2,0,0.3-0.1,0.5-0.1c0.1,0,0.2-0.1,0.2-0.1c0.1-0.1,0.3-0.1,0.4-0.2
		c0.1,0,0.2-0.1,0.2-0.1c0,0,0.1,0,0.1-0.1l34-25.5v85.3L30.5,80.5z"/>
	<path class="st0" d="M82.2,40.2c-1.6-1.6-4.1-1.6-5.7,0c-1.6,1.6-1.6,4.1,0,5.7c9.6,9.6,9.6,25.2,0,34.8c-1.6,1.6-1.6,4.1,0,5.7
		c0.8,0.8,1.8,1.2,2.8,1.2s2-0.4,2.8-1.2C94.9,73.6,94.9,52.9,82.2,40.2z"/>
	<path class="st0" d="M94.1,26.4c-1.6-1.6-4.1-1.6-5.7,0c-1.6,1.6-1.6,4.1,0,5.7c8.3,8.3,12.9,19.4,12.9,31.2
		c0,11.8-4.6,22.8-12.9,31.2c-1.6,1.6-1.6,4.1,0,5.7c0.8,0.8,1.8,1.2,2.8,1.2c1,0,2-0.4,2.8-1.2c9.8-9.8,15.3-22.9,15.3-36.8
		S103.9,36.3,94.1,26.4z"/>
	<path class="st0" d="M106.9,16.5c-1.6-1.6-4.1-1.6-5.7,0c-1.6,1.6-1.6,4.1,0,5.7c22.7,22.7,22.7,59.6,0,82.2
		c-1.6,1.6-1.6,4.1,0,5.7c0.8,0.8,1.8,1.2,2.8,1.2s2-0.4,2.8-1.2C132.7,84.2,132.7,42.3,106.9,16.5z"/>
</g>
</svg>
