<?xml version="1.0" encoding="utf-8"?>
<!-- Generator: Adobe Illustrator 21.1.0, SVG Export Plug-In . SVG Version: 6.00 Build 0)  -->
<svg version="1.1" id="Layer_2" xmlns="http://www.w3.org/2000/svg" xmlns:xlink="http://www.w3.org/1999/xlink" x="0px" y="0px"
	 viewBox="0 0 128 128" style="enable-background:new 0 0 128 128;" xml:space="preserve">
<style type="text/css">
	.st0{fill:#FFFFFF;}
</style>
<g>
	<path class="st0" d="M35.3,103.8c-1.6,0-3-0.9-3.7-2.4L1.3,30.3c-0.9-2,0.1-4.4,2.1-5.2c2-0.9,4.4,0.1,5.2,2.1L39,98.3
		c0.9,2-0.1,4.4-2.1,5.2C36.4,103.7,35.9,103.8,35.3,103.8z"/>
</g>
<g>
	<path class="st0" d="M107.9,103.8c-1.2,0-2.3-0.5-3.1-1.5L85.2,77.7c-1.4-1.7-1.1-4.2,0.6-5.6c1.7-1.4,4.2-1.1,5.6,0.6L111,97.3
		c1.4,1.7,1.1,4.2-0.6,5.6C109.6,103.5,108.7,103.8,107.9,103.8z"/>
</g>
<g>
	<path class="st0" d="M44.2,84.9c-0.5,0-1.1-0.1-1.6-0.3c-2-0.9-3-3.2-2.1-5.2l22.3-52.2c0.6-1.5,2.1-2.4,3.7-2.4h33.1
		c15,0,27.3,12.2,27.3,27.3c0,12.2-8.2,23-20,26.3c-2.1,0.6-4.3-0.7-4.9-2.8s0.7-4.3,2.8-4.9c8.3-2.3,14.1-9.9,14.1-18.6
		c0-10.6-8.6-19.3-19.3-19.3H69.1L47.9,82.5C47.2,84,45.7,84.9,44.2,84.9z"/>
</g>
</svg>
