<?xml version="1.0" encoding="utf-8"?>
<!-- Generator: Adobe Illustrator 21.1.0, SVG Export Plug-In . SVG Version: 6.00 Build 0)  -->
<svg version="1.1" id="Layer_1" xmlns="http://www.w3.org/2000/svg" xmlns:xlink="http://www.w3.org/1999/xlink" x="0px" y="0px"
	 viewBox="0 0 76.5 76.5" style="enable-background:new 0 0 76.5 76.5;" xml:space="preserve">
<style type="text/css">
	.st0{fill:#FFFFFF;}
	.st1{fill:#E30613;}
</style>
<g>
	<path class="st0" d="M9.7,35.5v0.3l0.9,0.2c-0.1,0.3-0.2,0.7-0.3,1.1l-1.2,3.7L7.7,36l0.9-0.2v-0.3H6v0.3L6.8,36l1.8,6.4h0.5
		l1.7-5.1l1.6,5.1h0.5L15,36l0.6-0.2v-0.3h-2.2v0.3l1,0.2l-1.5,4.8L11.4,36l1-0.2v-0.3H9.7z M36.7,29.7c-2.8,0.5-6.5,3.5-7,7.1
		L19.9,39l0,0l9.8,2.2c0.5,3.6,4.2,6.6,7,7l2.2,9.8H39l2.2-9.8c2.8-0.5,6.5-3.4,7-7L58,39v-0.1l-9.8-2.2c-0.5-3.6-4.2-6.6-7-7
		L39,19.9h-0.1L36.7,29.7z M29.7,40.6L22.3,39l0,0h7.4V40.6z M30.5,39c0-4.7,3-8.4,8.4-8.4s8.4,3.7,8.4,8.4s-3,8.4-8.4,8.4
		S30.5,43.7,30.5,39z M40.6,62.9c-0.5,0-1-0.2-1.4-0.2c-1.3,0-2.2,0.8-2.2,1.9c0,2.5,3.3,2,3.3,3.6c0,0.9-0.5,1.3-1.4,1.3
		c-0.4,0-1.2-0.2-1.4-0.6c-0.1-0.3-0.3-0.7-0.3-1.2l-0.3,0.1l0.1,1.6c0.5,0.3,1.3,0.5,2,0.5c1.4,0,2.3-0.9,2.3-2.1
		c0-2-3.3-1.6-3.3-3.4c0-0.7,0.4-1.1,1.1-1.1c0.9,0,1.2,0.5,1.3,1.2h0.3L40.6,62.9z M37.3,29.7l1.6-7.4H39v7.4H37.3z M40.6,48.2
		L39,55.7h-0.1v-7.4L40.6,48.2L40.6,48.2z M48.1,37.4l7.5,1.6l0,0h-7.5V37.4z M66.4,39.1l0.2,0.8h0.3c-0.1-0.5-0.1-1.4,0-2h-0.3
		l-0.2,0.7h-1.7v-2.4h2.1L67,37h0.3l-0.1-1.5h-4.5v0.3l0.9,0.2v5.8L62.7,42v0.3h4.9l0.4-1.6h-0.4l-0.4,1h-2.6V39L66.4,39.1z"/>
	<g>
		<path class="st1" d="M33.2,5.4h2.7l6.2,7.5V7.2c0-0.6-0.1-1-0.2-1.2c-0.2-0.2-0.5-0.3-0.9-0.3h-0.3V5.4h3.5v0.3h-0.4
			c-0.4,0-0.7,0.1-0.9,0.4c-0.1,0.2-0.2,0.5-0.2,1.1v8.5h-0.3l-6.6-8.1v6.2c0,0.6,0.1,1,0.2,1.2c0.2,0.2,0.5,0.3,0.9,0.3h0.4v0.3
			h-3.5v-0.3h0.3c0.4,0,0.7-0.1,0.9-0.4c0.1-0.2,0.2-0.5,0.2-1.1v-7c-0.3-0.3-0.5-0.6-0.7-0.7s-0.4-0.2-0.7-0.3
			c-0.1,0-0.4-0.1-0.7-0.1L33.2,5.4L33.2,5.4z"/>
	</g>
	<circle class="st0" cx="38.8" cy="39.1" r="3.5"/>
</g>
</svg>
