<?xml version="1.0" encoding="utf-8"?>
<!-- Generator: Adobe Illustrator 21.1.0, SVG Export Plug-In . SVG Version: 6.00 Build 0)  -->
<svg version="1.1" id="Layer_2" xmlns="http://www.w3.org/2000/svg" xmlns:xlink="http://www.w3.org/1999/xlink" x="0px" y="0px"
	 viewBox="0 0 128 128" style="enable-background:new 0 0 128 128;" xml:space="preserve">
<style type="text/css">
	.st0{fill:#FFFFFF;}
</style>
<g>
	<g>
		<path class="st0" d="M119.9,124H8.3c-2.2,0-4-1.8-4-4s1.8-4,4-4h107.6V25.6c0-2.2,1.8-4,4-4s4,1.8,4,4V120
			C123.9,122.2,122.1,124,119.9,124z"/>
	</g>
	<g>
		<path class="st0" d="M8.3,108.4c-2.2,0-4-1.8-4-4v-96c0-2.2,1.8-4,4-4h111.6c2.2,0,4,1.8,4,4s-1.8,4-4,4H12.3v92
			C12.3,106.6,10.5,108.4,8.3,108.4z"/>
	</g>
</g>
</svg>
