<?xml version="1.0" encoding="utf-8"?>
<!-- Generator: Adobe Illustrator 21.1.0, SVG Export Plug-In . SVG Version: 6.00 Build 0)  -->
<svg version="1.1" xmlns="http://www.w3.org/2000/svg" xmlns:xlink="http://www.w3.org/1999/xlink" x="0px" y="0px"
	 viewBox="0 0 128 128" style="enable-background:new 0 0 128 128;" xml:space="preserve">
<style type="text/css">
	.st0{fill:#FFFFFF;stroke:#000000;stroke-width:8;stroke-linecap:round;stroke-linejoin:round;stroke-miterlimit:10;}
	.st1{fill:#FFFFFF;}
</style>
<g id="Layer_2">
	<g>
		<g>
			<path class="st0" d="M110.1,64.3"/>
		</g>
		<g>
			<path class="st1" d="M64,36.3c-2.2,0-4-1.8-4-4V5c0-2.2,1.8-4,4-4s4,1.8,4,4v27.3C68,34.5,66.2,36.3,64,36.3z"/>
		</g>
		<g>
			<path class="st1" d="M64,127c-2.2,0-4-1.8-4-4V95.7c0-2.2,1.8-4,4-4s4,1.8,4,4V123C68,125.2,66.2,127,64,127z"/>
		</g>
		<g>
			<path class="st1" d="M123,68H95.7c-2.2,0-4-1.8-4-4s1.8-4,4-4H123c2.2,0,4,1.8,4,4S125.2,68,123,68z"/>
		</g>
		<g>
			<path class="st1" d="M86.4,45.6c-1,0-2-0.4-2.8-1.2c-1.6-1.6-1.6-4.1,0-5.7l19.3-19.3c1.6-1.6,4.1-1.6,5.7,0
				c1.6,1.6,1.6,4.1,0,5.7L89.2,44.4C88.4,45.2,87.4,45.6,86.4,45.6z"/>
		</g>
		<g>
			<path class="st1" d="M105.7,109.7c-1,0-2-0.4-2.8-1.2L83.6,89.2c-1.6-1.6-1.6-4.1,0-5.7c1.6-1.6,4.1-1.6,5.7,0l19.3,19.3
				c1.6,1.6,1.6,4.1,0,5.7C107.8,109.3,106.7,109.7,105.7,109.7z"/>
		</g>
		<g>
			<path class="st0" d="M18,63.7"/>
		</g>
		<g>
			<path class="st1" d="M32.4,68H5c-2.2,0-4-1.8-4-4s1.8-4,4-4h27.3c2.2,0,4,1.8,4,4S34.6,68,32.4,68z"/>
		</g>
		<g>
			<path class="st1" d="M22.3,109.7c-1,0-2-0.4-2.8-1.2c-1.6-1.6-1.6-4.1,0-5.7l19.3-19.3c1.6-1.6,4.1-1.6,5.7,0
				c1.6,1.6,1.6,4.1,0,5.7l-19.3,19.3C24.3,109.3,23.3,109.7,22.3,109.7z"/>
		</g>
		<g>
			<path class="st1" d="M41.6,45.6c-1,0-2-0.4-2.8-1.2L19.5,25.1c-1.6-1.6-1.6-4.1,0-5.7c1.6-1.6,4.1-1.6,5.7,0l19.3,19.3
				c1.6,1.6,1.6,4.1,0,5.7C43.7,45.2,42.6,45.6,41.6,45.6z"/>
		</g>
		<g>
			<path class="st1" d="M64,99.7c-19.7,0-35.7-16-35.7-35.7s16-35.7,35.7-35.7s35.7,16,35.7,35.7S83.7,99.7,64,99.7z M64,36.3
				c-15.3,0-27.7,12.4-27.7,27.7S48.8,91.7,64,91.7S91.7,79.3,91.7,64S79.3,36.3,64,36.3z"/>
		</g>
	</g>
</g>
<g id="Layer_3">
</g>
</svg>
