<?xml version="1.0" encoding="utf-8"?>
<!-- Generator: Adobe Illustrator 22.0.1, SVG Export Plug-In . SVG Version: 6.00 Build 0)  -->
<svg version="1.1" id="Layer_1" xmlns="http://www.w3.org/2000/svg" xmlns:xlink="http://www.w3.org/1999/xlink" x="0px" y="0px"
	 viewBox="0 0 128 128" style="enable-background:new 0 0 128 128;" xml:space="preserve">
<style type="text/css">
	.st0{fill:#FFFFFF;}
</style>
<g>
	<g>
		<g>
			<path class="st0" d="M64,127c-2.2,0-4-1.8-4-4V5.6c0-2.2,1.8-4,4-4s4,1.8,4,4V123C68,125.2,66.2,127,64,127z"/>
		</g>
		<g>
			<path class="st0" d="M64,29.7c-1,0-2.1-0.4-2.9-1.2c-1.6-1.6-1.6-4.1,0-5.7L74.4,9.5c1.6-1.6,4.1-1.6,5.7,0
				c1.6,1.6,1.6,4.1,0,5.7L66.9,28.5C66.1,29.3,65,29.7,64,29.7z"/>
		</g>
		<g>
			<path class="st0" d="M64,29.7c-1,0-2.1-0.4-2.9-1.2L47.9,15.2c-1.6-1.6-1.6-4.1,0-5.7c1.6-1.6,4.1-1.6,5.7,0l13.2,13.2
				c1.6,1.6,1.6,4.1,0,5.7C66.1,29.3,65,29.7,64,29.7z"/>
		</g>
		<g>
			<path class="st0" d="M50.8,118.8c-1,0-2.1-0.4-2.9-1.2c-1.6-1.6-1.6-4.1,0-5.7l13.2-13.2c1.6-1.6,4.1-1.6,5.7,0
				c1.6,1.6,1.6,4.1,0,5.7l-13.2,13.2C52.8,118.4,51.8,118.8,50.8,118.8z"/>
		</g>
		<g>
			<path class="st0" d="M77.2,118.8c-1,0-2.1-0.4-2.9-1.2l-13.2-13.2c-1.6-1.6-1.6-4.1,0-5.7c1.6-1.6,4.1-1.6,5.7,0l13.2,13.2
				c1.6,1.6,1.6,4.1,0,5.7C79.3,118.4,78.3,118.8,77.2,118.8z"/>
		</g>
	</g>
	<g>
		<g>
			<path class="st0" d="M105.5,109.9c-1,0-2.1-0.4-2.9-1.2l-83-83c-1.6-1.6-1.6-4.1,0-5.7c1.6-1.6,4.1-1.6,5.7,0l83,83
				c1.6,1.6,1.6,4.1,0,5.7C107.6,109.5,106.5,109.9,105.5,109.9z"/>
		</g>
		<g>
			<path class="st0" d="M36.6,41c-2.2,0-4-1.8-4-4V18.2c0-2.2,1.8-4,4-4c2.2,0,4,1.8,4,4v18.7C40.7,39.2,38.9,41,36.6,41z"/>
		</g>
		<g>
			<path class="st0" d="M36.6,41H17.9c-2.2,0-4-1.8-4-4c0-2.2,1.8-4,4-4h18.7c2.2,0,4,1.8,4,4C40.7,39.2,38.9,41,36.6,41z"/>
		</g>
		<g>
			<path class="st0" d="M90.3,113.4c-2.2,0-4-1.8-4-4V90.6c0-2.2,1.8-4,4-4c2.2,0,4,1.8,4,4v18.7C94.4,111.6,92.6,113.4,90.3,113.4z
				"/>
		</g>
		<g>
			<path class="st0" d="M109.1,94.7H90.3c-2.2,0-4-1.8-4-4c0-2.2,1.8-4,4-4h18.7c2.2,0,4,1.8,4,4C113.1,92.9,111.3,94.7,109.1,94.7z
				"/>
		</g>
	</g>
	<g>
		<g>
			<path class="st0" d="M22.5,110.8c-1,0-2.1-0.4-2.9-1.2c-1.6-1.6-1.6-4.1,0-5.7l83-83c1.6-1.6,4.1-1.6,5.7,0
				c1.6,1.6,1.6,4.1,0,5.7l-83,83C24.6,110.4,23.5,110.8,22.5,110.8z"/>
		</g>
		<g>
			<path class="st0" d="M110.1,41.9H91.4c-2.2,0-4-1.8-4-4c0-2.2,1.8-4,4-4h18.7c2.2,0,4,1.8,4,4C114.1,40.1,112.3,41.9,110.1,41.9z
				"/>
		</g>
		<g>
			<path class="st0" d="M91.4,41.9c-2.2,0-4-1.8-4-4V19.2c0-2.2,1.8-4,4-4c2.2,0,4,1.8,4,4v18.7C95.4,40.1,93.6,41.9,91.4,41.9z"/>
		</g>
		<g>
			<path class="st0" d="M37.7,95.6H18.9c-2.2,0-4-1.8-4-4c0-2.2,1.8-4,4-4h18.7c2.2,0,4,1.8,4,4C41.7,93.8,39.9,95.6,37.7,95.6z"/>
		</g>
		<g>
			<path class="st0" d="M37.7,114.4c-2.2,0-4-1.8-4-4V91.6c0-2.2,1.8-4,4-4c2.2,0,4,1.8,4,4v18.7C41.7,112.5,39.9,114.4,37.7,114.4z
				"/>
		</g>
	</g>
	<g>
		<g>
			<path class="st0" d="M122.7,68.3H5.3c-2.2,0-4-1.8-4-4s1.8-4,4-4h117.4c2.2,0,4,1.8,4,4S124.9,68.3,122.7,68.3z"/>
		</g>
		<g>
			<path class="st0" d="M115.9,81.6c-1,0-2.1-0.4-2.9-1.2L99.8,67.2c-1.6-1.6-1.6-4.1,0-5.7c1.6-1.6,4.1-1.6,5.7,0l13.2,13.2
				c1.6,1.6,1.6,4.1,0,5.7C118,81.2,117,81.6,115.9,81.6z"/>
		</g>
		<g>
			<path class="st0" d="M102.7,68.3c-1,0-2.1-0.4-2.9-1.2c-1.6-1.6-1.6-4.1,0-5.7l13.2-13.2c1.6-1.6,4.1-1.6,5.7,0
				c1.6,1.6,1.6,4.1,0,5.7l-13.2,13.2C104.8,68,103.7,68.3,102.7,68.3z"/>
		</g>
		<g>
			<path class="st0" d="M26.8,68.3c-1,0-2.1-0.4-2.9-1.2L10.7,53.9c-1.6-1.6-1.6-4.1,0-5.7c1.6-1.6,4.1-1.6,5.7,0l13.2,13.2
				c1.6,1.6,1.6,4.1,0,5.7C28.8,68,27.8,68.3,26.8,68.3z"/>
		</g>
		<g>
			<path class="st0" d="M13.5,81.6c-1,0-2.1-0.4-2.9-1.2c-1.6-1.6-1.6-4.1,0-5.7l13.2-13.2c1.6-1.6,4.1-1.6,5.7,0
				c1.6,1.6,1.6,4.1,0,5.7L16.4,80.4C15.6,81.2,14.6,81.6,13.5,81.6z"/>
		</g>
	</g>
</g>
</svg>
