<?xml version="1.0" encoding="utf-8"?>
<!-- Generator: Adobe Illustrator 21.1.0, SVG Export Plug-In . SVG Version: 6.00 Build 0)  -->
<svg version="1.1" id="Layer_2" xmlns="http://www.w3.org/2000/svg" xmlns:xlink="http://www.w3.org/1999/xlink" x="0px" y="0px"
	 viewBox="0 0 128 128" style="enable-background:new 0 0 128 128;" xml:space="preserve">
<style type="text/css">
	.st0{fill:#FFFFFF;}
</style>
<g>
	<g>
		<path class="st0" d="M119.9,124H8.3c-2.2,0-4-1.8-4-4s1.8-4,4-4h107.6V25.6c0-2.2,1.8-4,4-4s4,1.8,4,4V120
			C123.9,122.2,122.1,124,119.9,124z"/>
	</g>
	<g>
		<path class="st0" d="M8.3,108.4c-2.2,0-4-1.8-4-4v-96c0-2.2,1.8-4,4-4h111.6c2.2,0,4,1.8,4,4s-1.8,4-4,4H12.3v92
			C12.3,106.6,10.5,108.4,8.3,108.4z"/>
	</g>
</g>
<g>
	<path class="st0" d="M107.5,67.6c-0.1-0.3-0.2-0.5-0.3-0.8c-0.2-0.7-0.4-1.4-0.7-2.1l0,0c-1.2-2.7-3-5-5.8-7c0-7.1,0-14.2,0-21.3
		v-6.2c0-1.6-0.1-2.9-1.1-3.9c-1-1-2.4-1.1-3.9-1.1c0,0,0,0,0,0c-21.3,0-42.6,0-63.9,0c-1,0-2.4,0.1-3.3,1.1c-1,1-1.1,2.3-1.1,3.3
		l0,7.2c0,7,0,13.9,0,20.9c0,0,0,0,0,0.1c0,0,0,0,0,0c-3.8,2.8-6,6.1-6.7,10.1c-0.1,0.4-0.1,0.8-0.2,1.2l-0.1,0.5l0,25.7l0.3,0.5
		c0,0.1,0.1,0.1,0.1,0.2c0.2,0.3,0.4,0.7,0.7,1.1c1.1,1.1,2.5,1.4,3.9,0.9C27,97.3,28,96,28,94.4c0-0.9,0-1.8,0-2.7l0-0.1h72.2v2.3
		c0,2.1,0.9,3.5,2.5,4c0.4,0.1,0.9,0.2,1.3,0.2c1.2,0,2.3-0.6,3.2-1.9l0.4-0.5V67.9L107.5,67.6z M55.2,51l0,1.8h-9.9
		c0-1.9,0-3.8,0-5.7c3.4,0.7,6.7,0.8,9.9,0.1C55.2,48.5,55.2,49.8,55.2,51z M73.1,47.1c3.4,0.7,6.6,0.8,9.8,0.1c0,1.7,0,3.4,0,5.2
		l0,0.5h-9.8l0-0.5C73.1,50.5,73.1,48.8,73.1,47.1z M93.3,54c-0.9-0.2-1.9-0.5-2.9-0.7c0-2.3,0-4.5,0-6.6c0-1.9-0.8-3.8-2.3-5.1
		c-1.4-1.3-3.2-2-5-2c-0.5,0-0.9,0.1-1.5,0.2c-2.5,0.7-5,0.6-7.3-0.1c-2-0.6-4.2-0.2-5.9,1.1c-1.8,1.4-2.9,3.5-2.9,5.6
		c0,1.7,0,3.4,0,5.1l0,1.3h-2.9l0-1.1c0-1.7,0-3.3,0-5c0-2.2-1-4.2-2.7-5.6c-1.7-1.3-3.9-1.8-6-1.3c-2.6,0.6-5.1,0.6-7.4-0.1
		c-2-0.6-4.2-0.2-5.9,1.1c-1.8,1.4-2.9,3.5-2.8,5.6c0,1.8,0,3.5,0,5.3l0,1.5c-0.7,0.1-1.4,0.3-2.1,0.5c-0.3,0.1-0.6,0.2-0.9,0.3
		l0-3.1c0-6.1,0-12.2,0-18.3c16.2,0,32.4,0,48.7,0h9.7V54z M43.5,60.3c5.9,0,11.8,0,17.7,0c8.5,0,17,0,25.5,0c2.6,0,5,0.5,7.2,1.6
		c2.8,1.3,4.5,2.8,5.5,4.8c0.2,0.5,0.6,1.6,0.9,2.3l-0.1,3.2l0,11.8H28.1V72.2l0-3.3c0.2-0.7,0.5-1.6,0.7-2c0.8-1.6,2.1-2.9,4.2-4.2
		C35.7,61,38.9,60.3,43.5,60.3z"/>
</g>
</svg>
