<?xml version="1.0" encoding="utf-8"?>
<!-- Generator: Adobe Illustrator 22.0.1, SVG Export Plug-In . SVG Version: 6.00 Build 0)  -->
<svg version="1.1" id="Layer_1" xmlns="http://www.w3.org/2000/svg" xmlns:xlink="http://www.w3.org/1999/xlink" x="0px" y="0px"
	 viewBox="0 0 128 128" style="enable-background:new 0 0 128 128;" xml:space="preserve">
<style type="text/css">
	.st0{fill:#FFFFFF;}
</style>
<g>
	<g>
		<path class="st0" d="M64,101.8c-20.7,0-37.5-16.8-37.5-37.5c0-20.7,16.8-37.5,37.5-37.5c20.7,0,37.5,16.8,37.5,37.5
			C101.5,85,84.7,101.8,64,101.8z M64,34.8c-16.3,0-29.5,13.2-29.5,29.5c0,16.3,13.2,29.5,29.5,29.5c16.3,0,29.5-13.2,29.5-29.5
			C93.5,48,80.3,34.8,64,34.8z"/>
	</g>
	<g>
		<path class="st0" d="M122.8,68.3h-15.1c-2.2,0-4-1.8-4-4s1.8-4,4-4h15.1c2.2,0,4,1.8,4,4S125,68.3,122.8,68.3z"/>
	</g>
	<g>
		<path class="st0" d="M20.3,68.3H5.3c-2.2,0-4-1.8-4-4s1.8-4,4-4h15.1c2.2,0,4,1.8,4,4S22.5,68.3,20.3,68.3z"/>
	</g>
	<g>
		<path class="st0" d="M64,24.6c-2.2,0-4-1.8-4-4V5.5c0-2.2,1.8-4,4-4s4,1.8,4,4v15.1C68,22.8,66.2,24.6,64,24.6z"/>
	</g>
	<g>
		<path class="st0" d="M64,127c-2.2,0-4-1.8-4-4V108c0-2.2,1.8-4,4-4s4,1.8,4,4V123C68,125.3,66.2,127,64,127z"/>
	</g>
	<g>
		<path class="st0" d="M94.8,37.4c-1,0-2-0.4-2.8-1.2c-1.6-1.6-1.6-4.1,0-5.7l10.6-10.6c1.6-1.6,4.1-1.6,5.7,0
			c1.6,1.6,1.6,4.1,0,5.7L97.7,36.2C96.9,37,95.9,37.4,94.8,37.4z"/>
	</g>
	<g>
		<path class="st0" d="M22.4,109.8c-1,0-2-0.4-2.8-1.2c-1.6-1.6-1.6-4.1,0-5.7l10.7-10.7c1.6-1.6,4.1-1.6,5.7,0
			c1.6,1.6,1.6,4.1,0,5.7l-10.7,10.7C24.4,109.5,23.4,109.8,22.4,109.8z"/>
	</g>
	<g>
		<path class="st0" d="M105.5,109.8c-1,0-2-0.4-2.8-1.2L92,98c-1.6-1.6-1.6-4.1,0-5.7c1.6-1.6,4.1-1.6,5.7,0l10.6,10.6
			c1.6,1.6,1.6,4.1,0,5.7C107.5,109.5,106.5,109.8,105.5,109.8z"/>
	</g>
	<g>
		<path class="st0" d="M33,37.4c-1,0-2-0.4-2.8-1.2L19.6,25.6c-1.6-1.6-1.6-4.1,0-5.7c1.6-1.6,4.1-1.6,5.7,0l10.6,10.6
			c1.6,1.6,1.6,4.1,0,5.7C35.1,37,34,37.4,33,37.4z"/>
	</g>
	<g>
		<path class="st0" d="M87.1,122.1c-1.5,0-2.9-0.8-3.6-2.2l-6.8-13.3c-1-2-0.2-4.4,1.8-5.4c2-1,4.4-0.2,5.4,1.8l6.8,13.3
			c1,2,0.2,4.4-1.8,5.4C88.4,122,87.7,122.1,87.1,122.1z"/>
	</g>
	<g>
		<path class="st0" d="M46.7,28.2c-1.5,0-3-0.9-3.7-2.4l-6-14c-0.9-2,0.1-4.4,2.1-5.3c2-0.9,4.4,0.1,5.3,2.1l6,14
			c0.9,2-0.1,4.4-2.1,5.3C47.7,28.1,47.2,28.2,46.7,28.2z"/>
	</g>
	<g>
		<path class="st0" d="M41.5,122.5c-0.5,0-1-0.1-1.5-0.3c-2-0.8-3-3.2-2.2-5.2l5.6-13.7c0.8-2,3.2-3,5.2-2.2c2,0.8,3,3.2,2.2,5.2
			L45.2,120C44.5,121.6,43,122.5,41.5,122.5z"/>
	</g>
	<g>
		<path class="st0" d="M80.5,27.9c-0.5,0-1-0.1-1.5-0.3c-2-0.8-3-3.2-2.2-5.2l5.8-14c0.8-2,3.2-3,5.2-2.2c2,0.8,3,3.2,2.2,5.2
			l-5.8,14C83.6,26.9,82.1,27.9,80.5,27.9z"/>
	</g>
	<g>
		<path class="st0" d="M9.7,90.9c-1.6,0-3-0.9-3.7-2.5c-0.9-2,0.1-4.4,2.1-5.2l14-5.9c2-0.9,4.4,0.1,5.2,2.1c0.9,2-0.1,4.4-2.1,5.2
			l-14,5.9C10.7,90.8,10.2,90.9,9.7,90.9z"/>
	</g>
	<g>
		<path class="st0" d="M104.2,51.3c-1.6,0-3-0.9-3.7-2.5c-0.9-2,0.1-4.4,2.1-5.2l13.8-5.8c2-0.9,4.4,0.1,5.2,2.1s-0.1,4.4-2.1,5.2
			l-13.8,5.8C105.3,51.2,104.7,51.3,104.2,51.3z"/>
	</g>
	<g>
		<path class="st0" d="M24,50.8c-0.5,0-1.1-0.1-1.6-0.3L8.5,44.4c-2-0.9-2.9-3.2-2.1-5.3c0.9-2,3.2-2.9,5.3-2.1l13.9,6.1
			c2,0.9,2.9,3.2,2.1,5.3C27,49.9,25.5,50.8,24,50.8z"/>
	</g>
	<g>
		<path class="st0" d="M117.7,91.9c-0.5,0-1.1-0.1-1.6-0.3l-13.5-5.9c-2-0.9-2.9-3.2-2.1-5.3c0.9-2,3.2-2.9,5.3-2.1l13.5,5.9
			c2,0.9,2.9,3.2,2.1,5.3C120.8,91,119.3,91.9,117.7,91.9z"/>
	</g>
</g>
</svg>
