<?xml version="1.0" encoding="utf-8"?>
<!-- Generator: Adobe Illustrator 21.1.0, SVG Export Plug-In . SVG Version: 6.00 Build 0)  -->
<svg version="1.1" xmlns="http://www.w3.org/2000/svg" xmlns:xlink="http://www.w3.org/1999/xlink" x="0px" y="0px"
	 viewBox="0 0 128 128" style="enable-background:new 0 0 128 128;" xml:space="preserve">
<style type="text/css">
	.st0{fill:#FFFFFF;}
</style>
<g id="Layer_2">
</g>
<g id="Layer_3">
	<g>
		<path class="st0" d="M90.6,125.8c-34,0-61.7-27.7-61.7-61.7C28.9,30,56.6,2.3,90.6,2.3c1.5,0,3,0.1,4.9,0.2c2.1,0.2,3.6,1.9,3.6,4
			V8c0,1.8-1.3,3.4-3,3.9C72,17.8,55.2,39.2,55.2,64c0,24.8,16.8,46.2,40.9,52.1c1.8,0.4,3,2,3,3.9v1.5c0,2.1-1.6,3.8-3.6,4
			C93.8,125.7,92.2,125.8,90.6,125.8z M74.6,12.7C52.8,19.5,36.9,39.9,36.9,64c0,24.1,15.9,44.5,37.7,51.3
			C57.8,104.1,47.2,85.1,47.2,64C47.2,42.9,57.8,23.9,74.6,12.7z"/>
	</g>
</g>
</svg>
